<?xml version="1.0" encoding="UTF-8"?>
<svg width="32px" height="32px" viewBox="0 0 32 32" version="1.1" xmlns="http://www.w3.org/2000/svg" xmlns:xlink="http://www.w3.org/1999/xlink">
    <!-- Generator: Sketch 49.1 (51147) - http://www.bohemiancoding.com/sketch -->
    <title>chatbot-regular</title>
    <desc>Created with Sketch.</desc>
    <defs></defs>
    <g id="chatbot-regular" stroke="none" stroke-width="1" fill="none" fill-rule="evenodd">
        <path d="M20.5741036,16.2789558 C19.6514371,17.198295 18.871878,17.5049496 16.0819102,17.5049496 C13.4268902,17.5049496 12.5870753,17.2757393 11.5897168,16.2789558 C11.4566519,16.1571683 11.2783953,16.0828467 11.0831917,16.0828467 C10.6689332,16.0828467 10.3331328,16.4169815 10.3331328,16.8291853 C10.3331328,17.0246698 10.4090802,17.2032914 10.5327301,17.3363208 C11.9644324,18.7684165 13.3446662,18.9995004 16.0819102,18.9995004 C18.8191542,18.9995004 20.199388,18.769041 21.631718,17.3363208 C21.7553678,17.2039159 21.8306876,17.0252943 21.8306876,16.8298098 C21.8306876,16.4176061 21.4948872,16.0834713 21.0806287,16.0834713 C20.8847974,16.0834713 20.7065408,16.1577928 20.573476,16.2802049 L20.5741036,16.2789558 Z M24.5566336,7.0012491 L7.44211104,7.0012491 C5.5402882,7.00562096 4,8.54076757 4,10.433782 L4,10.433782 L4,18.9838866 L4,18.9876339 C4,20.7151422 5.28231817,22.1447397 6.95127756,22.3845673 L6.97010749,26.2524123 L6.97010749,26.254286 C6.97010749,26.5409549 7.13267254,26.7901508 7.37118498,26.915061 C7.47537725,26.969397 7.59337814,27 7.71953867,27 C7.88335905,27 8.03462615,26.9481623 8.15764835,26.859476 L14.4029082,22.4220404 L24.557889,22.4220404 C26.4597118,22.4176686 28,20.8825219 28,18.9895075 L28,18.9895075 L28,10.4375293 L28,10.4325329 C28,8.53951847 26.4597118,7.00374731 24.557889,7 L24.5566336,7.0012491 Z M26.498627,18.9838866 L26.498627,18.9838866 C26.498627,20.0531181 25.6299396,20.919995 24.5566336,20.9243669 L14.1612574,20.9243669 L14.1606298,20.9243669 C13.997437,20.9243669 13.8467976,20.9762046 13.7244031,21.0648909 L8.46896985,24.7997065 L8.46896985,21.6719545 C8.46896985,21.2597508 8.13316944,20.925616 7.718911,20.925616 L7.44148338,20.925616 C6.36754976,20.9212441 5.49886236,20.0543672 5.49886236,18.9851357 L5.49886236,18.9851357 L5.49886236,10.4369047 L5.49886236,10.4369047 C5.49886236,9.36767323 6.36754976,8.5007963 7.44085572,8.49642444 L24.556006,8.49642444 C25.6299396,8.5007963 26.498627,9.36767323 26.498627,10.4369047 L26.498627,10.4369047 L26.498627,18.9838866 L26.498627,18.9838866 Z M13.56937,14.393436 L13.5756466,14.393436 C14.3037372,14.393436 14.8943693,13.8063579 14.8943693,13.0812541 C14.8943693,12.3561503 14.3043649,11.7690722 13.5756466,11.7690722 C12.847556,11.7690722 12.2569239,12.3561503 12.2569239,13.0812541 C12.2575516,13.8032352 12.8444177,14.3890641 13.5687423,14.393436 L13.56937,14.393436 Z M18.6314826,14.393436 C19.3589455,14.3928114 19.9483223,13.8057334 19.9483223,13.0812541 C19.9483223,12.3567748 19.3583179,11.7690722 18.6295996,11.7690722 C17.9008813,11.7690722 17.3108769,12.3561503 17.3108769,13.0812541 L17.3108769,13.085626 C17.3108769,13.807607 17.8989984,14.3928114 18.6245783,14.3928114 L18.6308549,14.3928114 L18.6314826,14.393436 Z" id="Mask" fill="#1F2229" fill-rule="nonzero"></path>
    </g>
</svg>