<?xml version="1.0" encoding="UTF-8"?>
<svg width="32px" height="32px" viewBox="0 0 32 32" version="1.1" xmlns="http://www.w3.org/2000/svg" xmlns:xlink="http://www.w3.org/1999/xlink">
    <!-- Generator: Sketch 49.1 (51147) - http://www.bohemiancoding.com/sketch -->
    <title>chatbot-sad</title>
    <desc>Created with Sketch.</desc>
    <defs></defs>
    <g id="chatbot-sad" stroke="none" stroke-width="1" fill="none" fill-rule="evenodd">
        <path d="M16.0840467,16.9747144 C13.3467393,16.9747144 11.9661323,17.2077168 10.5339767,18.6514329 C10.4107082,18.7847912 10.3345058,18.9646001 10.3345058,19.1616408 C10.3345058,19.5766998 10.6699455,19.9138415 11.0845759,19.9138415 C11.2803113,19.9138415 11.4581167,19.8389211 11.5918444,19.7153025 C12.5137432,18.7885372 13.2936965,18.4798651 16.0840467,18.4798651 C18.7391751,18.4798651 19.5788949,18.71062 20.5769961,19.7153025 C20.7122179,19.8516576 20.8989883,19.9355685 21.10593,19.9355685 C21.3128716,19.9355685 21.499642,19.8516576 21.6348638,19.7153025 C21.7708327,19.5789474 21.8552529,19.3908972 21.8552529,19.1826185 C21.8552529,18.9743398 21.7708327,18.7862896 21.6348638,18.6499344 C20.2019611,17.2062184 18.8221012,16.973216 16.0847938,16.973216 L16.0840467,16.9747144 Z M24.5589416,7.84416557 L22.5336031,7.84416557 L25.0759222,5.28713242 C25.2118911,5.1507773 25.2955642,4.9627271 25.2955642,4.7544484 C25.2955642,4.33789099 24.9586304,4 24.5432529,4 C24.3355642,4 24.1465525,4.08466005 24.0105837,4.22176438 L20.4103969,7.84041955 L11.5828794,7.84041955 L7.98269261,4.22176438 C7.84971206,4.09889492 7.67190661,4.02397453 7.47617121,4.02397453 C7.06228794,4.02397453 6.72610117,4.36036711 6.72610117,4.77617531 C6.72610117,4.97321596 6.80155642,5.15302491 6.92557198,5.28713242 L9.46789105,7.84416557 L7.44255253,7.84416557 C5.54048249,7.8486608 4,9.395767 4,11.3039895 L4,11.3039895 L4,19.9213336 L4,19.9250796 C4,21.6662296 5.28199222,23.1069489 6.95171984,23.3489417 L6.97039689,27.24705 L6.97039689,27.2485484 C6.97039689,27.5377412 7.1332607,27.7887245 7.37157977,27.9145907 C7.47467704,27.9692826 7.59196887,28 7.71673152,28 L7.72046693,28 C7.88333074,27.9985016 8.03424125,27.9468065 8.15750973,27.8591497 L14.4023658,23.3864019 L24.5574475,23.3864019 C26.4595175,23.3819067 28,21.8348005 28,19.926578 L28,19.926578 L28,11.3069863 L28,11.3017419 C28,9.39351939 26.4595175,7.84641319 24.5581946,7.84191796 L24.5589416,7.84416557 Z M26.5021012,19.9213336 L26.5021012,19.9213336 C26.5021012,20.9986889 25.6332451,21.8722607 24.5596887,21.8767559 L14.1640467,21.8767559 L14.1632996,21.8767559 C14.0004358,21.8767559 13.8495253,21.9292002 13.7270039,22.0183555 L8.47128405,25.7831055 L8.47128405,23.3511894 C8.47128405,22.4633827 8.47128405,21.8767559 7.72121401,21.8767559 L7.44404669,21.8767559 C6.37049027,21.8722607 5.50163424,20.9986889 5.50163424,19.9213336 L5.50163424,19.9213336 L5.50163424,11.3069863 L5.50163424,11.3069863 C5.50163424,10.229631 6.37049027,9.35605919 7.44404669,9.35156396 L24.5596887,9.35156396 C25.6332451,9.35605919 26.5021012,10.229631 26.5021012,11.3069863 L26.5021012,11.3069863 L26.5021012,19.9213336 L26.5021012,19.9213336 Z M13.5716109,15.2949991 L13.5775875,15.2949991 C14.3059922,15.2949991 14.8961868,14.7031279 14.8961868,13.9726541 C14.8961868,13.2421802 14.3059922,12.650309 13.5775875,12.650309 C12.8491829,12.650309 12.2589883,13.2421802 12.2589883,13.9726541 C12.2597354,14.7001311 12.8461946,15.2905038 13.5708638,15.2949991 L13.5716109,15.2949991 Z M18.6345837,15.2949991 C19.3622412,15.2942499 19.9516887,14.7023787 19.9516887,13.9726541 C19.9516887,13.2429294 19.3614942,12.650309 18.6330895,12.650309 C17.9046848,12.650309 17.3144903,13.2421802 17.3144903,13.9726541 L17.3144903,13.9771493 C17.3144903,14.7046263 17.9024436,15.2949991 18.628607,15.2949991 L18.6345837,15.2949991 Z" id="Mask" fill="#1F2229" fill-rule="nonzero"></path>
    </g>
</svg>