<?xml version="1.0" encoding="UTF-8"?>
<svg width="32px" height="32px" viewBox="0 0 32 32" version="1.1" xmlns="http://www.w3.org/2000/svg" xmlns:xlink="http://www.w3.org/1999/xlink">
    <!-- Generator: Sketch 49.1 (51147) - http://www.bohemiancoding.com/sketch -->
    <title>chatbot-annoyed</title>
    <desc>Created with Sketch.</desc>
    <defs></defs>
    <g id="chatbot-annoyed" stroke="none" stroke-width="1" fill="none" fill-rule="evenodd">
        <path d="M13.4744903,15.2949991 C14.2021479,15.2942499 14.7915953,14.7023787 14.7915953,13.9726541 C14.7915953,13.2429294 14.2014008,12.650309 13.4729961,12.650309 C12.7445914,12.650309 12.1543969,13.2421802 12.1543969,13.9726541 L12.1543969,13.9771493 C12.1543969,14.7046263 12.7423502,15.2949991 13.4685136,15.2949991 L13.4744903,15.2949991 L13.4744903,15.2949991 Z M18.5292451,15.2949991 L18.5352218,15.2949991 C19.2636265,15.2949991 19.853821,14.7031279 19.853821,13.9726541 C19.853821,13.2421802 19.2636265,12.650309 18.5352218,12.650309 C17.8068171,12.650309 17.2166226,13.2421802 17.2166226,13.9726541 L17.2166226,13.9771493 C17.2166226,14.7046263 17.8038288,15.2942499 18.5292451,15.2949991 Z M24.5589416,7.84416557 L22.5336031,7.84416557 L25.0759222,5.28713242 C25.2118911,5.1507773 25.2955642,4.9627271 25.2955642,4.7544484 C25.2955642,4.33789099 24.9586304,4 24.5432529,4 C24.3355642,4 24.1465525,4.08466005 24.0105837,4.22176438 L20.4103969,7.84041955 L11.5828794,7.84041955 L7.98269261,4.22176438 C7.84971206,4.09889492 7.67190661,4.02397453 7.47617121,4.02397453 C7.06228794,4.02397453 6.72610117,4.36036711 6.72610117,4.77617531 C6.72610117,4.97321596 6.80155642,5.15302491 6.92557198,5.28713242 L9.46789105,7.84416557 L7.44255253,7.84416557 C5.54048249,7.8486608 4,9.395767 4,11.3039895 L4,11.3039895 L4,19.9213336 L4,19.9250796 C4,21.6662296 5.28199222,23.1069489 6.95171984,23.3489417 L6.97039689,27.24705 L6.97039689,27.2485484 C6.97039689,27.5377412 7.1332607,27.7887245 7.37157977,27.9145907 C7.47467704,27.9692826 7.59196887,28 7.71673152,28 L7.72046693,28 C7.88333074,27.9985016 8.03424125,27.9468065 8.15750973,27.8591497 L14.4023658,23.3864019 L24.5574475,23.3864019 C26.4595175,23.3819067 28,21.8348005 28,19.926578 L28,19.926578 L28,11.3069863 L28,11.3017419 C28,9.39351939 26.4595175,7.84641319 24.5581946,7.84191796 L24.5589416,7.84416557 Z M26.5021012,19.9213336 L26.5021012,19.9213336 C26.5021012,20.9986889 25.6332451,21.8722607 24.5596887,21.8767559 L14.1640467,21.8767559 L14.1632996,21.8767559 C14.0004358,21.8767559 13.8495253,21.9292002 13.7270039,22.0183555 L8.47128405,25.7831055 L8.47128405,23.3511894 C8.47128405,22.4633827 8.47128405,21.8767559 7.72121401,21.8767559 L7.44404669,21.8767559 C6.37049027,21.8722607 5.50163424,20.9986889 5.50163424,19.9213336 L5.50163424,19.9213336 L5.50163424,11.3069863 L5.50163424,11.3069863 C5.50163424,10.229631 6.37049027,9.35605919 7.44404669,9.35156396 L24.5596887,9.35156396 C25.6332451,9.35605919 26.5021012,10.229631 26.5021012,11.3069863 L26.5021012,11.3069863 L26.5021012,19.9213336 L26.5021012,19.9213336 Z M22.8869728,18.7698071 L20.5471128,17.5471062 C20.4470039,17.4939127 20.3282179,17.4624462 20.2019611,17.4624462 C20.0757043,17.4624462 19.9569183,17.4939127 19.8530739,17.5486046 L17.5393619,18.7593182 L15.0941634,17.480427 C14.9940545,17.4264844 14.8752685,17.3950178 14.7490117,17.3950178 C14.6227549,17.3950178 14.5039689,17.4264844 14.4001245,17.4819255 L11.9668794,18.7518262 L9.80706615,17.623525 C9.7069572,17.5703315 9.58817121,17.5396142 9.4619144,17.5396142 C9.04728405,17.5396142 8.71109728,17.8767559 8.71109728,18.2925642 C8.71109728,18.5817569 8.87396109,18.8334894 9.11302724,18.9593557 L11.6224747,20.2704626 C11.7225837,20.3244053 11.8413696,20.3558719 11.9676265,20.3558719 C12.0938833,20.3558719 12.2126693,20.3244053 12.3165136,20.2689642 L14.7497588,18.9990635 L17.1949572,20.2779547 C17.293572,20.3311482 17.4108638,20.3618655 17.5356265,20.3618655 L17.5401089,20.3618655 C17.6663658,20.3611163 17.7844047,20.3296497 17.8889961,20.2749579 L20.2027082,19.0642442 L22.1974163,20.1056378 C22.2975253,20.1588312 22.4163113,20.1895486 22.5425681,20.1895486 C22.9571984,20.1895486 23.2926381,19.8524068 23.2926381,19.4373478 C23.2926381,19.1481551 23.1297743,18.8971718 22.8914553,18.7713055 L22.8869728,18.7698071 Z" id="Mask" fill="#1F2229" fill-rule="nonzero"></path>
    </g>
</svg>