<?xml version="1.0" encoding="UTF-8"?>
<svg width="32px" height="32px" viewBox="0 0 32 32" version="1.1" xmlns="http://www.w3.org/2000/svg" xmlns:xlink="http://www.w3.org/1999/xlink">
    <!-- Generator: Sketch 49.1 (51147) - http://www.bohemiancoding.com/sketch -->
    <title>Icons/Arrows/Rounded-Clean</title>
    <desc>Created with Sketch.</desc>
    <defs>
        <path d="M11.7703413,7.10272212 C11.8898596,7.00581249 11.949902,6.9636175 11.9648285,6.96077621 C12.6491806,6.55130414 13.3417221,6.35 14.0717587,6.35 L24.7157313,6.35 C26.8903467,6.35 28.65,8.13507078 28.65,10.3329344 L28.65,21.121611 C28.65,23.3194837 26.8903377,25.1045455 24.7157313,25.1045455 L14.0717587,25.1045455 C13.3530367,25.1045455 12.6582238,24.9091992 12.0848733,24.5587566 C11.954144,24.4904061 11.8960202,24.454782 11.8221386,24.3925691 C11.6358389,24.2543296 11.499682,24.1411437 11.3989035,24.0426432 C6.72942759,20.1204965 3.35,16.7833424 3.35,15.7272727 C3.35,14.6718806 6.72935415,11.3337141 11.3416286,7.46282708 C11.5059843,7.30803328 11.6445354,7.19286243 11.7703413,7.10272212 Z M12.5517423,8.14134478 C12.4515805,8.21361081 12.3563379,8.29298608 12.266784,8.37883731 L12.1936093,8.44449328 C8.22198146,11.7781108 4.65,15.3065569 4.65,15.7272727 C4.65,16.1485341 8.22602339,19.6798247 12.2667846,23.0757093 C12.3587454,23.1638688 12.456523,23.2448563 12.6278285,23.3719245 C12.6426822,23.3842012 12.639947,23.382112 12.7238976,23.4274422 C13.1306207,23.6749048 13.5917302,23.8045455 14.0717587,23.8045455 L24.7157313,23.8045455 C26.1681643,23.8045455 27.35,22.6056507 27.35,21.121611 L27.35,10.3329344 C27.35,8.84890083 26.1681702,7.65 24.7157313,7.65 L14.0717587,7.65 C13.5830404,7.65 13.1197968,7.78465311 12.5703314,8.10901709 C12.6209372,8.08572546 12.6366362,8.07523743 12.6417341,8.07116009 C12.6259884,8.08381916 12.6259884,8.08381916 12.5517423,8.14134478 Z M17.2037211,15.7887967 L14.0177337,12.5588875 C13.7478489,12.285282 13.7556048,11.833817 14.0174383,11.5683739 C14.28716,11.2949339 14.7252682,11.2957479 14.9944823,11.5686734 L18.1804697,14.7985827 L21.3664571,11.5686734 C21.6363419,11.295068 22.0816676,11.3029308 22.3435012,11.5683739 C22.6132228,11.8418139 22.6124198,12.2859619 22.3432057,12.5588875 L19.1572183,15.7887967 L22.2218309,18.895658 C22.4917158,19.1692635 22.4839599,19.6207284 22.2221263,19.8861715 C21.9524047,20.1596116 21.5142965,20.1587975 21.2450823,19.885872 L18.1804697,16.7790107 L15.1158571,19.885872 C14.8459722,20.1594775 14.4006465,20.1516147 14.138813,19.8861715 C13.8690914,19.6127315 13.8698943,19.1685835 14.1391085,18.895658 L17.2037211,15.7887967 Z" id="path-1"></path>
    </defs>
    <g id="Icons/Arrows/Rounded-Clean" stroke="none" stroke-width="1" fill="none" fill-rule="evenodd">
        <mask id="mask-2" fill="white">
            <use xlink:href="#path-1"></use>
        </mask>
        <use id="Mask" fill="#000000" fill-rule="nonzero" xlink:href="#path-1"></use>
    </g>
</svg>