<?xml version="1.0" encoding="UTF-8"?>
<svg width="32px" height="32px" viewBox="0 0 32 32" version="1.1" xmlns="http://www.w3.org/2000/svg" xmlns:xlink="http://www.w3.org/1999/xlink">
    <!-- Generator: Sketch 49.1 (51147) - http://www.bohemiancoding.com/sketch -->
    <title>Icons/Train</title>
    <desc>Created with Sketch.</desc>
    <defs>
        <path d="M19.1153598,9.67630634 L18.0493168,13.1352271 C17.6693692,14.3680186 16.5300819,15.2090583 15.2400684,15.2090583 L6.82572789,15.2090583 C5.53571436,15.2090583 4.39642703,14.3680186 4.01647943,13.1352271 L2.88464018,9.46282143 L2.88464018,17.6307196 C2.88464018,18.1405249 3.297919,18.5538037 3.80772425,18.5538037 L18.1922757,18.5538037 C18.702081,18.5538037 19.1153598,18.1405249 19.1153598,17.6307196 L19.1153598,9.67630634 Z M3.33558308,5.75472983 L5.47200292,12.6866333 C5.65509266,13.2806927 6.20409419,13.6859742 6.82572789,13.6859742 L15.2400684,13.6859742 C15.8617021,13.6859742 16.4107036,13.2806927 16.5937934,12.6866333 L18.7302132,5.75472983 L3.33558308,5.75472983 Z M1.52604823,4.2563364 L1.52604823,4.23164576 L1.53284542,4.23164576 C2.08357842,2.25240909 3.89912125,0.8 6.05389239,0.8 L15.9461076,0.8 C18.1008788,0.8 19.9164216,2.25240909 20.4671546,4.23164576 L20.4739518,4.23164576 L20.4739518,4.2563364 C20.581199,4.6501378 20.6384439,5.06455191 20.6384439,5.49233627 L20.6384439,17.6307196 C20.6384439,18.981701 19.5432571,20.0768878 18.1922757,20.0768878 L17.9474262,20.0768878 L20.9259712,22.5590086 C21.2490759,22.8282625 21.2927306,23.3084641 21.0234767,23.6315688 C20.7542228,23.9546734 20.2740212,23.9983281 19.9509166,23.7290742 L18.758746,22.7000008 L3.30296766,22.7000008 L2.04908344,23.7290742 C1.72597875,23.9983281 1.24577723,23.9546734 0.976523319,23.6315688 C0.707269409,23.3084641 0.750924093,22.8282625 1.07402878,22.5590086 L4.05257381,20.0768878 L3.80772425,20.0768878 C2.45674289,20.0768878 1.36155611,18.981701 1.36155611,17.6307196 L1.36155611,5.49233627 C1.36155611,5.06455191 1.41880097,4.6501378 1.52604823,4.2563364 Z M18.8547032,4.23164576 C18.3672586,3.10858333 17.2484147,2.32308407 15.9461076,2.32308407 L6.05389239,2.32308407 C4.75158531,2.32308407 3.63274142,3.10858333 3.14529682,4.23164576 L18.8547032,4.23164576 Z M17.6973648,21.3304311 L15.8507854,19.791615 C15.8344851,19.7780314 15.8195879,19.7632658 15.8061466,19.7474361 L15.6536925,19.6768878 L6.34630752,19.6768878 L6.19385342,19.7474361 C6.18041208,19.7632658 6.16551486,19.7780314 6.14921455,19.791615 L4.30263521,21.3304311 L17.1449548,21.3304311 L17.6973648,21.3304311 Z M5.19172684,17.3712762 C4.77113879,17.3712762 4.43018481,17.0303222 4.43018481,16.6097341 C4.43018481,16.1891461 4.77113879,15.8481921 5.19172684,15.8481921 L7.36982927,15.8481921 C7.79041733,15.8481921 8.13137131,16.1891461 8.13137131,16.6097341 C8.13137131,17.0303222 7.79041733,17.3712762 7.36982927,17.3712762 L5.19172684,17.3712762 Z M14.6301707,17.3712762 C14.2095827,17.3712762 13.8686287,17.0303222 13.8686287,16.6097341 C13.8686287,16.1891461 14.2095827,15.8481921 14.6301707,15.8481921 L16.8082732,15.8481921 C17.2288612,15.8481921 17.5698152,16.1891461 17.5698152,16.6097341 C17.5698152,17.0303222 17.2288612,17.3712762 16.8082732,17.3712762 L14.6301707,17.3712762 Z" id="path-1"></path>
    </defs>
    <g id="Icons/Train" stroke="none" stroke-width="1" fill="none" fill-rule="evenodd">
        <g id="train" transform="translate(5.000000, 4.000000)">
            <mask id="mask-2" fill="white">
                <use xlink:href="#path-1"></use>
            </mask>
            <use id="Mask" fill="#1F2229" fill-rule="nonzero" xlink:href="#path-1"></use>
        </g>
    </g>
</svg>