<?xml version="1.0" encoding="UTF-8"?>
<svg width="32px" height="32px" viewBox="0 0 32 32" version="1.1" xmlns="http://www.w3.org/2000/svg" xmlns:xlink="http://www.w3.org/1999/xlink">
    <!-- Generator: Sketch 49.1 (51147) - http://www.bohemiancoding.com/sketch -->
    <title>all-services</title>
    <desc>Created with Sketch.</desc>
    <defs>
        <path d="M24.1365525,4 L12.60243,4 C10.5372771,4.00449859 8.85367149,5.63298969 8.76147047,7.67610122 C7.31698785,8.25941893 6.31402068,9.64423618 6.31027267,11.2637301 L6.31027267,11.436926 C4.94149983,12.047985 4.00374801,13.3960637 4,14.9638238 L4,24.1424555 C4.00449761,26.2717901 5.72933129,27.9970009 7.85820033,28 L24.1403005,28 C26.2699191,27.9970009 27.9955024,26.2717901 28,24.1432052 L28,7.85754452 C27.9955024,5.7267104 26.2676703,4.00149953 24.1373021,4 L24.1365525,4 Z M12.60243,5.50852858 L24.1365525,5.50852858 C25.4318643,5.51227741 26.4805572,6.56194939 26.482806,7.85754452 L26.482806,8.22567948 C25.8433957,7.71958763 25.0263298,7.41293346 24.1380517,7.4076851 L10.3019021,7.4076851 C10.5200362,6.31977507 11.4667833,5.51152765 12.60243,5.50927835 L12.60243,5.50852858 Z M10.1692226,8.92296157 L24.1365525,8.92296157 L24.1365525,8.92296157 C25.4303651,8.92296157 26.4798076,9.97038425 26.482806,11.2644799 L26.482806,11.9250234 C25.8433957,11.4189316 25.0263298,11.1122774 24.1380517,11.1070291 L7.83871068,11.1070291 C7.92341569,9.88491097 8.93387888,8.92596064 10.1692226,8.92296157 L10.1692226,8.92296157 Z M18.2874098,12.6230553 L18.2874098,16.9754452 L13.4157479,16.9754452 L13.4157479,12.6230553 L18.2859106,12.6230553 L18.2874098,12.6230553 Z M26.482806,24.1424555 C26.4798076,25.4365511 25.4303651,26.4839738 24.1365525,26.4839738 L24.1365525,26.4839738 L7.85520192,26.4839738 C6.56138926,26.483224 5.51269638,25.4358013 5.50969797,24.1424555 L5.50969797,14.9638238 C5.51269638,13.670478 6.56138926,12.6230553 7.85520192,12.6223055 L11.8993035,12.6223055 L11.8993035,16.9746954 C11.9008027,17.8106842 12.5784427,18.4884724 13.4142487,18.4907216 L18.2829122,18.4907216 C19.1187182,18.4884724 19.7963582,17.8106842 19.7978574,16.9746954 L19.7978574,12.6215558 L24.133554,12.6215558 L24.133554,12.6215558 C25.4273667,12.6215558 26.4768092,13.6689784 26.4798076,14.963074 L26.4798076,24.1417057 L26.482806,24.1424555 Z" id="path-1"></path>
    </defs>
    <g id="all-services" stroke="none" stroke-width="1" fill="none" fill-rule="evenodd">
        <mask id="mask-2" fill="white">
            <use xlink:href="#path-1"></use>
        </mask>
        <use id="Mask" fill="#1F2229" fill-rule="nonzero" xlink:href="#path-1"></use>
    </g>
</svg>