<?xml version="1.0" encoding="UTF-8"?>
<svg width="32px" height="32px" viewBox="0 0 32 32" version="1.1" xmlns="http://www.w3.org/2000/svg" xmlns:xlink="http://www.w3.org/1999/xlink">
    <!-- Generator: Sketch 49.1 (51147) - http://www.bohemiancoding.com/sketch -->
    <title>change</title>
    <desc>Created with Sketch.</desc>
    <defs></defs>
    <g id="change" stroke="none" stroke-width="1" fill="none" fill-rule="evenodd">
        <path d="M28.80864,13.6398 L28.81124,13.6398 C29.06344,13.8933 29.06344,14.3054 28.81124,14.5589 L26.21124,17.1589 C26.08254,17.285 25.91614,17.3487 25.74974,17.3487 C25.58464,17.3487 25.41824,17.2863 25.29084,17.1589 L22.69084,14.5589 C22.43734,14.3054 22.43734,13.8933 22.69084,13.6398 C22.94304,13.3863 23.35644,13.3863 23.60864,13.6398 L25.09584,15.1257 C24.94894,10.2351 20.92544,6.3 15.99844,6.3 C12.61454,6.3 9.52964,8.1603 7.94884,11.1542 C7.78114,11.4714 7.38594,11.5923 7.06874,11.4246 C6.75284,11.2569 6.63064,10.863 6.79834,10.5458 C8.60664,7.1255 12.13224,5 15.99844,5 C18.77654,5 21.38954,6.0816 23.35384,8.0459 C25.25574,9.9465 26.33084,12.4555 26.39714,15.1335 L27.89084,13.6398 C28.14304,13.3863 28.55644,13.3863 28.80864,13.6398 Z M24.92892,19.37488 L24.93022,19.37488 C25.24742,19.54258 25.36832,19.93778 25.20062,20.25498 C23.39102,23.67528 19.86542,25.79948 16.00052,25.79948 C13.22242,25.79948 10.61072,24.71788 8.64642,22.75488 C6.74452,20.85428 5.66942,18.34398 5.60312,15.66598 L4.10942,17.15968 C3.85592,17.41318 3.44382,17.41318 3.19032,17.15968 C2.93682,16.90748 2.93682,16.49408 3.19032,16.24188 L5.79032,13.64058 C6.04382,13.38838 6.45592,13.38838 6.70942,13.64058 L9.30942,16.24188 C9.56292,16.49408 9.56292,16.90748 9.30942,17.15968 C9.18202,17.28708 9.01562,17.34948 8.84922,17.34948 C8.68282,17.34948 8.51642,17.28838 8.38902,17.15968 L6.90312,15.67378 C7.04872,20.56438 11.07352,24.49948 15.99922,24.49948 C19.38182,24.49948 22.46672,22.64048 24.05012,19.64528 C24.21782,19.32938 24.61172,19.20718 24.92892,19.37488 Z" id="Mask" fill="#1F2229"></path>
    </g>
</svg>