<?xml version="1.0" encoding="UTF-8"?>
<svg width="32px" height="32px" viewBox="0 0 32 32" version="1.1" xmlns="http://www.w3.org/2000/svg" xmlns:xlink="http://www.w3.org/1999/xlink">
    <!-- Generator: Sketch 49.1 (51147) - http://www.bohemiancoding.com/sketch -->
    <title>excluded</title>
    <desc>Created with Sketch.</desc>
    <defs>
        <path d="M16.2818713,0.00224873509 L3.7292144,0.00224873509 C3.69447934,0.000749578362 3.65383194,0 3.61318454,0 C1.66210923,0 0.0716872367,1.56736836 0,3.52901493 L0,20.4552439 C0.0679920183,22.4273846 1.66063114,24 3.61540167,24 C3.65531003,24 3.69521839,23.9992504 3.73512675,23.9977513 L12.8963122,23.9977513 L12.8992683,23.9977513 C13.5378021,23.9977513 14.1172123,23.7406459 14.5429015,23.3238803 L19.3178627,18.6285215 C19.7369005,18.2140046 19.9977829,17.6360797 20,16.9959398 L20,3.53576113 C19.9275737,1.56811793 18.3378908,0.000749578362 16.3868155,0.000749578362 C16.3498633,0.000749578362 16.3129111,0.00149915672 16.2759589,0.00224873509 L16.2818713,0.00224873509 Z M1.83800163,20.4552439 L1.83800163,3.53576113 C1.90082034,2.58379661 2.67755524,1.83496783 3.62722637,1.83496783 C3.66417855,1.83496783 3.70039169,1.83646699 3.73660483,1.83796614 L16.2840884,1.83796614 C16.3143892,1.83646699 16.3491242,1.83496783 16.3845983,1.83496783 C17.3342695,1.83496783 18.1117434,2.58304704 18.1760402,3.52976451 L18.1760402,16.01774 L13.2096667,16.01774 L13.2007982,16.01774 C12.7019437,16.01774 12.2962087,16.4255107 12.2910354,16.9307265 L12.2910354,22.1620339 L3.73364866,22.1620339 C3.70408691,22.163533 3.66935186,22.1650322 3.63461681,22.1650322 C2.68051142,22.1650322 1.90008129,21.4124555 1.83874067,20.4612406 L1.83800163,20.4552439 Z M14.1260809,21.1560997 L14.1260809,17.8534574 L17.4916858,17.8534574 L14.1260809,21.1560997 Z M12.2888183,13.2592916 C12.4506688,13.4249485 12.6745991,13.5268911 12.9229177,13.5268911 L12.9354815,13.5268911 L12.943611,13.5268911 C13.4409874,13.5268911 13.8437662,13.1176213 13.8437662,12.6139047 C13.8437662,12.3620463 13.7432562,12.1334249 13.5799276,11.9677681 L11.2970217,9.68005497 L13.5799276,7.39234181 C13.7439953,7.22743457 13.8459833,6.99881317 13.8459833,6.74620526 C13.8459833,6.49359735 13.7439953,6.26497595 13.5799276,6.10081829 C13.4121647,5.93366231 13.1830611,5.83097008 12.9295691,5.83097008 C12.6760772,5.83097008 12.4462346,5.93366231 12.2792107,6.10081829 L10.0051733,8.38853145 L7.72152834,6.10081829 C7.55450447,5.93591105 7.32613997,5.83471797 7.07412608,5.83471797 C6.82211219,5.83471797 6.59374769,5.93666063 6.42598478,6.10156787 C6.26043899,6.26722469 6.15771192,6.49734524 6.15771192,6.75145231 C6.15771192,7.00555937 6.26043899,7.23642951 6.42598478,7.40208633 L8.7088907,9.68979949 L6.4348533,11.9685177 C6.26930752,12.1341745 6.16658044,12.3642951 6.16658044,12.6191517 C6.16658044,12.8740084 6.26930752,13.1041289 6.4348533,13.2697857 C6.60187717,13.4354426 6.83024167,13.5373852 7.08225556,13.5373852 C7.33426946,13.5373852 7.56263395,13.4354426 7.73039687,13.2697857 L10.0044343,10.9820726 L12.2888183,13.2592916 Z" id="path-1"></path>
    </defs>
    <g id="excluded" stroke="none" stroke-width="1" fill="none" fill-rule="evenodd">
        <g transform="translate(6.000000, 4.000000)">
            <mask id="mask-2" fill="white">
                <use xlink:href="#path-1"></use>
            </mask>
            <use id="Mask" fill="#1F2229" fill-rule="nonzero" xlink:href="#path-1"></use>
        </g>
    </g>
</svg>