<?xml version="1.0" encoding="UTF-8"?>
<svg width="32px" height="32px" viewBox="0 0 32 32" version="1.1" xmlns="http://www.w3.org/2000/svg" xmlns:xlink="http://www.w3.org/1999/xlink">
    <!-- Generator: Sketch 49.1 (51147) - http://www.bohemiancoding.com/sketch -->
    <title>fast-action-1</title>
    <desc>Created with Sketch.</desc>
    <defs>
        <path d="M16.4631382,10.6179836 C17.1698822,9.93361968 17.6096492,8.97097525 17.6096492,7.90388974 C17.6096492,5.86110467 15.9996551,4.20035407 13.9959713,4.15431754 C13.9580254,4.15294331 13.9173689,4.1522562 13.8773901,4.1522562 C12.8928272,4.1522562 11.9997413,4.54803293 11.3444954,5.19185722 C10.6574019,5.87347269 10.2305096,6.82443621 10.2305096,7.87640524 C10.2305096,9.95011038 11.8886138,11.6314743 13.9336315,11.6314743 C14.9120959,11.6314743 15.8024714,11.2466914 16.4644934,10.6172965 L16.4624606,10.6193578 L16.4631382,10.6179836 Z M15.5192317,9.61686088 C15.099793,10.0263798 14.5285704,10.2792372 13.8990735,10.2792372 C12.6082323,10.2792372 11.5620072,9.2183357 11.5620072,7.90938664 C11.5620072,6.60043757 12.6082323,5.53953608 13.8990735,5.53953608 L13.9031392,5.53953608 L13.9593806,5.53953608 C15.2258279,5.5683948 16.2422383,6.61692827 16.2422383,7.90526396 C16.2422383,8.57794697 15.9650971,9.18535431 15.520587,9.61617376 L15.5192317,9.61686088 Z M21.9836019,0.727688153 C21.9639513,0.386880417 21.7030727,0.114096807 21.3730781,0.0797411881 C21.0051375,0.0378273336 12.3581954,-0.813504892 7.1670486,4.19485717 C6.91091318,4.44153051 6.66765229,4.70538166 6.43184507,4.97816527 L6.39999755,4.97816527 C3.69634586,5.57526592 0.587485217,6.17511502 0.556315298,6.18129903 C0.237840036,6.24313914 0,6.5241681 0,6.86085316 C0,7.0463735 0.0725039426,7.21540315 0.189729943,7.33908337 L3.40700769,10.7519705 C3.36025281,10.9086321 3.30875469,11.0618582 3.26538784,11.2219554 C3.19898236,11.4590091 3.16035877,11.7311056 3.16035877,12.0121346 C3.16035877,12.0341222 3.16035877,12.0567969 3.16103637,12.0787845 L0.775182339,12.0753489 C0.398432881,12.0753489 0.0935097577,12.3845495 0.0935097577,12.766584 C0.0935097577,13.1486185 0.398432881,13.457819 0.775182339,13.457819 L3.50187266,13.457819 C3.64891337,13.7525902 3.82576878,14.0061347 4.03447172,14.2294462 L7.20025134,17.5887386 C7.40421103,17.7976207 7.6359526,17.9783313 7.8893776,18.1246862 L7.90496256,20.9562763 C7.90496256,21.3389979 8.2112409,21.6495727 8.58866796,21.6495727 C8.96609503,21.6495727 9.27237336,21.3389979 9.27237336,20.9562763 L9.27237336,18.5596284 C9.34081167,18.563751 9.40518432,18.5802417 9.47294502,18.5802417 L9.47565545,18.5802417 C9.71281788,18.5802417 9.94388184,18.5520701 10.1654593,18.4991625 C10.3009807,18.4668682 10.4493766,18.4222059 10.6025158,18.3830405 L13.8109846,21.7856209 C13.9356643,21.9175465 14.1104869,22 14.3042825,22 L14.3056377,22 C14.3686552,22 14.4303174,21.9910675 14.4885916,21.975264 C14.7250764,21.9093012 14.9107407,21.7175968 14.9696925,21.474359 C14.9778238,21.4386292 15.717093,18.3260102 16.4346787,15.6215359 L16.4346787,15.5892416 C16.7145304,15.3631816 16.9869284,15.1295634 17.2423862,14.8828901 C22.4382762,9.87796358 22.0039302,1.10079017 21.9829243,0.727688153 L21.9836019,0.727688153 Z M2.04366253,7.29923085 C2.86831018,7.135011 4.02024197,6.9020799 5.21011976,6.64990967 C4.73918294,7.39954926 4.30212646,8.26393662 3.9450276,9.17023784 L2.04366253,7.29923085 Z M9.84020798,17.1558578 C9.72975805,17.181281 9.60236794,17.1950232 9.47226741,17.1950232 C8.96812785,17.1950232 8.51345359,16.979957 8.19294551,16.6343395 L5.02445546,13.2729858 C4.71817712,12.9541657 4.52912479,12.5178493 4.52912479,12.0361835 C4.52912479,11.8774606 4.54945299,11.7228603 4.5887542,11.5765054 C5.20266608,9.07472922 6.43591071,6.90963814 8.11502071,5.19391855 C11.5870787,1.84424575 16.9882836,1.39350004 19.6451804,1.39350004 C20.0381924,1.39350004 20.371575,1.4024325 20.6297433,1.41480052 C20.6297433,3.43903356 20.2990711,10.0291283 16.3052558,13.8817674 C14.5461882,15.487549 12.3541297,16.6405235 9.92829688,17.1393671 L9.84020798,17.1558578 Z M13.93973,19.9201109 L12.0803765,17.9480984 C13.1042406,17.5935484 13.9790312,17.1895263 14.8077445,16.7119832 C14.4235413,17.9405401 14.1409792,19.0914533 13.93973,19.9166753 L13.93973,19.9201109 Z M4.12527105,16.0049446 C3.99923616,15.8579025 3.81492707,15.7651424 3.60893456,15.7651424 C3.4368224,15.7651424 3.27961759,15.8297309 3.15968116,15.9362333 L1.02115366,17.8017434 C0.876145773,17.9295463 0.784668836,18.117128 0.784668836,18.3260102 C0.784668836,18.7087318 1.09026957,19.0186194 1.46769663,19.0186194 C1.63845358,19.0186194 1.79498078,18.954718 1.91491721,18.8495898 L4.05344471,16.9840797 C4.20184063,16.8562768 4.29535039,16.6673209 4.29535039,16.4556903 C4.29535039,16.2811637 4.23165534,16.1210666 4.12594866,15.9994477 L4.12527105,16.0049446 Z M4.55216342,17.5784319 L2.41295831,19.4446291 C2.26795043,19.572432 2.17647349,19.7600137 2.17647349,19.9688958 C2.17647349,20.3516174 2.48207422,20.6615051 2.85950129,20.6615051 C3.03025823,20.6615051 3.18678544,20.5976037 3.30672187,20.4924755 L5.44524937,18.6269654 C5.59161247,18.4991625 5.6830894,18.3108937 5.6830894,18.1013244 C5.6830894,17.7186028 5.37681107,17.408028 4.999384,17.408028 C4.82862705,17.408028 4.67277746,17.4712424 4.55284103,17.5763706 L4.55216342,17.5784319 Z" id="path-1"></path>
    </defs>
    <g id="fast-action-1" stroke="none" stroke-width="1" fill="none" fill-rule="evenodd">
        <g transform="translate(5.000000, 5.000000)">
            <mask id="mask-2" fill="white">
                <use xlink:href="#path-1"></use>
            </mask>
            <use id="Mask" fill="#1F2229" fill-rule="nonzero" xlink:href="#path-1"></use>
        </g>
    </g>
</svg>