<?xml version="1.0" encoding="UTF-8"?>
<svg width="32px" height="32px" viewBox="0 0 32 32" version="1.1" xmlns="http://www.w3.org/2000/svg" xmlns:xlink="http://www.w3.org/1999/xlink">
    <!-- Generator: Sketch 49.1 (51147) - http://www.bohemiancoding.com/sketch -->
    <title>help-1</title>
    <desc>Created with Sketch.</desc>
    <defs>
        <path d="M12,0 C5.37225,0 0,5.37225 0,12 C0,18.62775 5.37225,24 12,24 C18.62775,24 24,18.62775 24,12 C23.99175,5.376 18.624,0.00825 12.00075,0 L12,0 Z M22.46475,11.25 L18.78075,11.25 C18.41625,8.07675 15.9225,5.58375 12.78075,5.223 L12.74925,1.5375 C17.9505,1.9245 22.0755,6.04875 22.4625,11.21475 L22.46475,11.25 Z M12,17.325 C9.05925,17.325 6.675,14.94075 6.675,12 C6.675,9.05925 9.05925,6.675 12,6.675 C14.94075,6.675 17.325,9.05925 17.325,12 C17.3205,14.93925 14.93925,17.3205 12.00075,17.325 L12,17.325 Z M11.25,1.5225 L11.25,5.2125 C8.076,5.5815 5.58375,8.07525 5.21925,11.2185 L1.52325,11.25 C1.914,6.04275 6.04275,1.91325 11.21475,1.52475 L11.25,1.5225 Z M1.53525,12.75 L5.22,12.75 C5.5845,15.92325 8.0775,18.41625 11.21925,18.777 L11.25075,22.4625 C6.0495,22.0755 1.9245,17.95125 1.5375,12.78525 L1.53525,12.75 Z M12.75,22.4775 L12.75,18.78 C15.924,18.417 18.4185,15.924 18.78075,12.7815 L22.47675,12.75 C22.0845,17.9565 17.9565,22.0845 12.78525,22.47525 L12.75,22.4775 Z" id="path-1"></path>
    </defs>
    <g id="help-1" stroke="none" stroke-width="1" fill="none" fill-rule="evenodd">
        <g transform="translate(4.000000, 4.000000)">
            <mask id="mask-2" fill="white">
                <use xlink:href="#path-1"></use>
            </mask>
            <use id="Mask" fill="#1F2229" fill-rule="nonzero" xlink:href="#path-1"></use>
        </g>
    </g>
</svg>