<?xml version="1.0" encoding="UTF-8"?>
<svg width="32px" height="32px" viewBox="0 0 32 32" version="1.1" xmlns="http://www.w3.org/2000/svg" xmlns:xlink="http://www.w3.org/1999/xlink">
    <!-- Generator: Sketch 49.1 (51147) - http://www.bohemiancoding.com/sketch -->
    <title>included </title>
    <desc>Created with Sketch.</desc>
    <defs>
        <path d="M16.2747561,0.00224873509 L3.72893881,0.00224873509 C3.69420633,0.000749578362 3.65356193,0 3.61291753,0 C1.6619864,0 0.0716819391,1.56736836 0,3.52901493 L0,20.4552439 C0.0679869938,22.4273846 1.66050842,24 3.6151345,24 C3.65503991,24 3.69494531,23.9992504 3.73485072,23.9977513 L12.8931422,23.9977513 L12.8997931,23.9977513 C13.5368017,23.9977513 14.1154301,23.7406459 14.5388708,23.3238803 L19.3179131,18.6285215 C19.7354419,18.2125055 19.9963051,17.6353301 20,16.9966894 L20,3.53576113 C19.9275791,1.56811793 18.3380136,0.000749578362 16.3870825,0.000749578362 C16.3479161,0.000749578362 16.3080106,0.00149915672 16.2688442,0.00299831345 L16.2747561,0.00224873509 Z M1.83564883,20.4552439 L1.83564883,3.53576113 C1.8984629,2.58379661 2.67514041,1.83496783 3.62474135,1.83496783 C3.66169081,1.83496783 3.69790127,1.83646699 3.73411174,1.83796614 L16.2747561,1.83796614 C16.3057937,1.83571741 16.3427431,1.83496783 16.3796926,1.83496783 C17.3292935,1.83496783 18.105971,2.58304704 18.1680461,3.52976451 L18.1680461,16.01774 L13.2057346,16.01774 L13.1983447,16.01774 C12.699527,16.01774 12.2938221,16.4255107 12.2886491,16.9307265 L12.2886491,22.1620339 L3.72819982,22.1620339 C3.69937925,22.163533 3.66538575,22.1650322 3.63065327,22.1650322 C2.67661839,22.1650322 1.89624594,21.4124555 1.83490984,20.4612406 L1.83564883,20.4552439 Z M14.122081,21.1560997 L14.122081,17.8534574 L17.4874372,17.8534574 L14.122081,21.1560997 Z M15.0842448,8.56318321 C15.2497783,8.39752639 15.3532368,8.16740583 15.3532368,7.91254919 C15.3532368,7.65769255 15.2505173,7.42757199 15.0849837,7.26191517 C14.9187112,7.0947592 14.6896246,6.99206696 14.4376293,6.99206696 C14.1856341,6.99206696 13.9565474,7.0947592 13.7902749,7.26191517 L8.79766479,12.2623524 L6.21563701,9.67930539 C6.04936447,9.51289899 5.82027786,9.40945718 5.56828259,9.40945718 C5.31628732,9.40945718 5.08720071,9.51214942 4.92092817,9.67930539 C4.75539462,9.84346305 4.65341413,10.0720845 4.65341413,10.3246924 C4.65341413,10.5773003 4.75613361,10.8066712 4.92092817,10.9700793 L8.15104936,14.2082579 C8.31806089,14.3739147 8.54640851,14.4758573 8.79840378,14.4758573 C9.05039905,14.4758573 9.27874667,14.3739147 9.44649719,14.2082579 L15.0842448,8.56318321 Z" id="path-1"></path>
    </defs>
    <g id="included-" stroke="none" stroke-width="1" fill="none" fill-rule="evenodd">
        <g id="included" transform="translate(6.000000, 4.000000)">
            <mask id="mask-2" fill="white">
                <use xlink:href="#path-1"></use>
            </mask>
            <use id="Mask" fill="#1F2229" fill-rule="nonzero" xlink:href="#path-1"></use>
        </g>
    </g>
</svg>