<?xml version="1.0" encoding="UTF-8"?>
<svg width="32px" height="32px" viewBox="0 0 32 32" version="1.1" xmlns="http://www.w3.org/2000/svg" xmlns:xlink="http://www.w3.org/1999/xlink">
    <!-- Generator: Sketch 49.1 (51147) - http://www.bohemiancoding.com/sketch -->
    <title>music</title>
    <desc>Created with Sketch.</desc>
    <defs>
        <path d="M20.9993431,1.62674669 C21,1.61361718 21,1.59720529 21,1.58144987 C21,0.726062084 20.3200801,0.0288849292 19.4713298,0 L8.06903995,0 C7.21700504,0.0288849292 6.53774205,0.726062084 6.53774205,1.58144987 C6.53774205,1.59654881 6.53774205,1.61164775 6.53839897,1.62674669 L6.52328964,15.2794711 C5.82234805,14.8291288 4.9670285,14.5612867 4.04864391,14.5612867 L4.02105296,14.5612867 C1.80457972,14.5612867 0,16.0055332 0,17.7799869 C0,19.5544406 1.80195201,21 4.02236682,21 C6.24278162,21 8.0440767,19.5557535 8.0440767,17.7799869 C8.0440767,17.7576667 8.03553665,17.737316 8.03553665,17.7149958 C8.03553665,17.6926756 8.0440767,17.6887368 8.0440767,17.6742943 L8.05787218,5.14479977 L19.4765852,5.14479977 L19.4765852,13.5430929 C18.7763006,13.0934071 17.920981,12.825565 17.0032534,12.825565 L16.9769763,12.825565 C14.760503,12.825565 12.9565802,14.2698115 12.9565802,16.0455782 C12.9565802,17.8213448 14.7585322,19.2649348 16.9782901,19.2649348 C19.198048,19.2649348 21,17.8200319 21,16.0455782 C21,15.9707399 20.9789783,15.8998406 20.972409,15.8263153 C20.9848907,15.7869268 20.9947446,15.7409735 21,15.6937072 L21,1.62609022 L20.9993431,1.62674669 Z M4.02170989,19.4874801 C2.67041011,19.4874801 1.52210092,18.7049611 1.52210092,17.777361 C1.52210092,16.8497609 2.66646855,16.0685548 4.02170989,16.0685548 C5.37695123,16.0685548 6.52000501,16.8517303 6.52000501,17.777361 C6.52000501,18.7029917 5.37563738,19.4874801 4.02170989,19.4874801 Z M8.05852911,3.62899747 L8.05852911,1.62674669 C8.06706917,1.59851824 8.07232458,1.56635093 8.07232458,1.5322142 C8.07232458,1.52433649 8.07232458,1.51645878 8.07166766,1.50858107 L19.4319142,1.50135984 C19.4588482,1.53155772 19.4752714,1.57094626 19.4752714,1.61427366 C19.4752714,1.61886899 19.4752714,1.62280784 19.4746144,1.62674669 L19.4746144,3.62834099 L8.05918604,3.62834099 L8.05852911,3.62899747 Z M16.9769763,17.749789 C15.6256765,17.749789 14.4786811,16.9666135 14.4786811,16.0409828 C14.4786811,15.1153522 15.6230488,14.3308637 16.9769763,14.3308637 C18.3309037,14.3308637 19.4752714,15.1133827 19.4752714,16.0409828 C19.4752714,16.968583 18.3309037,17.749789 16.9769763,17.749789 Z" id="path-1"></path>
    </defs>
    <g id="music" stroke="none" stroke-width="1" fill="none" fill-rule="evenodd">
        <g transform="translate(4.000000, 6.000000)">
            <mask id="mask-2" fill="white">
                <use xlink:href="#path-1"></use>
            </mask>
            <use id="Mask" fill="#1F2229" fill-rule="nonzero" xlink:href="#path-1"></use>
        </g>
    </g>
</svg>