<?xml version="1.0" encoding="UTF-8"?>
<svg width="32px" height="32px" viewBox="0 0 32 32" version="1.1" xmlns="http://www.w3.org/2000/svg" xmlns:xlink="http://www.w3.org/1999/xlink">
    <!-- Generator: Sketch 49.1 (51147) - http://www.bohemiancoding.com/sketch -->
    <title>my-services</title>
    <desc>Created with Sketch.</desc>
    <defs>
        <path d="M20.4045,0 L8.562,0 C6.79575,0.0075 5.3295,1.28625 5.03175,2.96775 L2.919,2.9895 C2.86125,2.985 2.79375,2.98275 2.7255,2.98275 C1.29975,2.98275 0.129,4.0725 0.00075,5.4645 L0,21.513 C0.129,22.91625 1.29975,24.00675 2.72625,24.00675 C2.7945,24.00675 2.86125,24.0045 2.928,23.99925 L12.44025,24 L12.45,24 C12.84675,24 13.209,23.85225 13.485,23.60925 L15.51375,21.78975 L20.4045,21.78975 C22.392,21.783 24,20.1705 24,18.18225 L24,18.1785 L24,3.61125 L24,3.6075 C24,1.61925 22.392,0.00675 20.40525,1.33226763e-15 L20.4045,0 Z M1.49475,21.51375 L1.49475,5.475 C1.63425,4.89975 2.14425,4.47975 2.75325,4.47975 C2.81175,4.47975 2.8695,4.4835 2.9265,4.491 L15.95475,4.49025 C16.005,4.4835 16.06275,4.47975 16.12125,4.47975 C16.7295,4.47975 17.24025,4.9005 17.3775,5.46675 L17.379,16.812 L12.25725,16.812 C11.84325,16.812 11.50725,17.148 11.50725,17.562 L11.50725,22.50075 L2.91825,22.50075 C2.86875,22.5075 2.811,22.51125 2.7525,22.51125 C2.1435,22.51125 1.63275,22.0905 1.4955,21.5235 L1.49475,21.51375 Z M13.0035,22.02825 L13.0035,18.3135 L17.14575,18.3135 L13.0035,22.02825 Z M22.50525,18.1785 L22.50525,18.18 C22.50525,19.34175 21.56625,20.28375 20.406,20.28825 L17.1885,20.28825 L18.45075,19.1565 C18.70725,18.93075 18.86925,18.603 18.873,18.23775 L18.873,5.475 C18.744,4.07175 17.5725,2.982 16.1475,2.982 C16.08,2.982 16.0125,2.98425 15.9465,2.9895 L6.56625,2.98875 C6.8355,2.124 7.626,1.506 8.562,1.5 L20.40525,1.5 C21.56625,1.5045 22.50525,2.4465 22.50525,3.60825 L22.50525,3.60975 L22.50525,18.177 L22.50525,18.1785 Z M5.50125,9.49875 L13.37175,9.49875 C13.78575,9.49875 14.12175,9.16275 14.12175,8.74875 C14.12175,8.33475 13.78575,7.99875 13.37175,7.99875 L5.50125,7.99875 C5.08725,7.99875 4.75125,8.33475 4.75125,8.74875 C4.75125,9.16275 5.08725,9.49875 5.50125,9.49875 L5.50125,9.49875 Z M13.37175,13.458 C13.78575,13.458 14.12175,13.122 14.12175,12.708 C14.12175,12.294 13.78575,11.958 13.37175,11.958 L5.50125,11.958 C5.08725,11.958 4.75125,12.294 4.75125,12.708 C4.75125,13.122 5.08725,13.458 5.50125,13.458 L13.37175,13.458 Z" id="path-1"></path>
    </defs>
    <g id="my-services" stroke="none" stroke-width="1" fill="none" fill-rule="evenodd">
        <g transform="translate(4.000000, 4.000000)">
            <mask id="mask-2" fill="white">
                <use xlink:href="#path-1"></use>
            </mask>
            <use id="Mask" fill="#1F2229" fill-rule="nonzero" xlink:href="#path-1"></use>
        </g>
    </g>
</svg>