<?xml version="1.0" encoding="UTF-8"?>
<svg width="32px" height="32px" viewBox="0 0 32 32" version="1.1" xmlns="http://www.w3.org/2000/svg" xmlns:xlink="http://www.w3.org/1999/xlink">
    <!-- Generator: Sketch 49.1 (51147) - http://www.bohemiancoding.com/sketch -->
    <title>my-tele2</title>
    <desc>Created with Sketch.</desc>
    <defs>
        <path d="M15.9645961,10.9415338 C15.9657059,10.1671296 16.5917828,9.53837629 17.3657685,9.53614759 L29.0215755,9.53614759 C29.7415238,9.60993579 30.2989529,10.2108974 30.3,10.9428393 L30.2999988,28.8950437 C30.297781,29.6688683 29.6741175,30.2955426 28.8997006,30.3 L17.3662102,30.2999997 C16.5922709,30.2988864 15.9650695,29.6703814 15.96285,28.8935469 L15.977472,22.0064114 L15.5401918,22.1007568 C15.3894367,22.133283 15.2348824,22.1553866 15.0608931,22.1691293 L14.8970808,22.178424 C14.8266542,22.1832709 14.8266542,22.1832709 14.7774451,22.1845528 L5.53318363,22.1845528 C5.3865116,22.1785647 5.32253259,22.1746374 5.25303517,22.1688207 C5.09159004,22.1566571 4.92962009,22.1340953 4.7569534,22.095537 C3.65189699,21.7889461 2.76702605,21.0653886 2.27765595,20.1047848 C1.90051247,19.4088266 1.7,18.6286995 1.7,17.8202627 C1.7,16.8800308 1.97045647,15.9824161 2.47847368,15.197405 C3.64778851,13.3976605 5.3866255,12.0377014 7.43314442,11.3252874 C5.96176871,10.3795397 5.03320858,8.73661102 5.03320858,6.9249531 C5.03320858,4.03911838 7.36619903,1.7 10.2452595,1.7 C13.1240266,1.7 15.4573104,4.03969974 15.4573104,6.9249531 C15.4573104,8.74500173 14.518661,10.4034582 13.0413236,11.3665831 C13.9878112,11.6860298 14.8770025,12.1543352 15.6782776,12.7540174 C15.775429,12.8311309 15.8708385,12.9105318 15.9645959,12.9922839 L15.9645961,10.9415338 Z M17.2937625,23.895122 L28.9682136,23.895122 L28.9682136,14.2450907 L17.2937625,14.2450907 L17.2937625,23.895122 Z M17.2946357,10.9428393 L17.2946357,12.9131332 L28.9691308,12.9131332 L28.9691308,10.9470997 C28.9683996,10.9043965 28.9339749,10.8698251 28.8979541,10.8689806 L17.3701752,10.8689806 C17.3287985,10.8705398 17.2953293,10.904684 17.2946357,10.9428393 Z M10.2417665,10.8214509 C12.3839136,10.8214509 14.1202844,9.08051925 14.1202844,6.93195747 C14.1202844,4.78339569 12.3839136,3.04246404 10.2417665,3.04246404 C8.10556897,3.04246404 6.37175486,4.77456419 6.36325503,6.91672792 C6.36412176,9.07084184 8.09889919,10.8149488 10.2417665,10.8214509 Z M15.9660222,20.4796512 L15.9543382,14.889232 C15.6294996,14.4924654 15.2647074,14.1295741 14.877802,13.8165172 C13.5265911,12.8034828 11.8930007,12.2377207 10.1719062,12.2146967 C7.59088248,12.2146967 5.12142158,13.6131356 3.58026417,15.9499473 C3.22295831,16.5034473 3.03003992,17.1473032 3.03003992,17.8202627 C3.03003992,18.4013261 3.17361782,18.9632885 3.43853786,19.4489038 C3.91533837,20.3456487 4.6854949,20.8482176 5.56025449,20.8482176 L14.7486277,20.8482176 C14.7770698,20.8482176 14.7990049,20.8473432 14.859234,20.8441623 C14.8698227,20.8435962 14.8856402,20.8429051 14.9066866,20.8420888 C14.9379892,20.8402042 14.9390172,20.8401375 14.9652706,20.8395729 C15.3276362,20.8033858 15.6712731,20.6780671 15.9660222,20.4796512 Z M17.2945918,28.8890479 C17.2953229,28.9317511 17.3297477,28.9663225 17.3657685,28.967167 L28.9019717,28.967167 C28.9387954,28.9612832 28.9675727,28.9292634 28.9682136,28.8941839 L28.9682136,25.227955 L17.2945918,25.227955 L17.2945918,28.8890479 Z M22.1595309,26.977414 C22.1595309,26.438108 22.5956273,26.0008661 23.1383147,26 C23.6728336,26.0032681 24.1059381,26.4391171 24.1059381,26.977414 C24.1059381,27.51672 23.6698417,27.9539618 23.1327345,27.9539618 C22.5956273,27.9539618 22.1595309,27.51672 22.1595309,26.977414 Z M26.9375,16.0651032 C27.3059567,16.0651032 27.6042665,16.3641966 27.6042665,16.732833 C27.6042665,17.1014695 27.3059567,17.4005629 26.9375,17.4005629 L19.324476,17.4005629 C18.9560194,17.4005629 18.6577096,17.1014695 18.6577096,16.732833 C18.6577096,16.3641966 18.9560194,16.0651032 19.324476,16.0651032 L26.9375,16.0651032 Z M24.7203094,18.4816135 C25.0878928,18.4816135 25.3853293,18.7798313 25.3853293,19.1475922 C25.3853293,19.5153532 25.0878928,19.813571 24.7203094,19.813571 L19.3236028,19.813571 C18.9560194,19.813571 18.6585828,19.5153532 18.6585828,19.1475922 C18.6585828,18.7798313 18.9560194,18.4816135 19.3236028,18.4816135 L24.7203094,18.4816135 Z" id="path-1"></path>
    </defs>
    <g id="my-tele2" stroke="none" stroke-width="1" fill="none" fill-rule="evenodd">
        <mask id="mask-2" fill="white">
            <use xlink:href="#path-1"></use>
        </mask>
        <use id="Mask" fill="#1F2229" xlink:href="#path-1"></use>
    </g>
</svg>