<?xml version="1.0" encoding="UTF-8"?>
<svg width="32px" height="32px" viewBox="0 0 32 32" version="1.1" xmlns="http://www.w3.org/2000/svg" xmlns:xlink="http://www.w3.org/1999/xlink">
    <!-- Generator: Sketch 49.1 (51147) - http://www.bohemiancoding.com/sketch -->
    <title>set-tarif</title>
    <desc>Created with Sketch.</desc>
    <defs></defs>
    <g id="set-tarif" stroke="none" stroke-width="1" fill="none" fill-rule="evenodd">
        <path d="M8.13793103,15.9193548 L9.79310345,15.9193548 C10.2501667,15.9193548 10.6206897,16.294858 10.6206897,16.7580645 L10.6206897,21.7903226 C10.6206897,22.2535291 10.2501667,22.6290323 9.79310345,22.6290323 L8.13634093,22.6290323 C8.1373958,22.6475239 8.13793103,22.6661675 8.13793103,22.6849462 L8.13793103,27.6053763 C8.13793103,28.0994633 7.76740807,28.5 7.31034483,28.5 C6.85328159,28.5 6.48275862,28.0994633 6.48275862,27.6053763 L6.48275862,22.6849462 C6.48275862,22.6661675 6.48329385,22.6475239 6.48434872,22.6290323 L4.82758621,22.6290323 C4.37052297,22.6290323 4,22.2535291 4,21.7903226 L4,16.7580645 C4,16.294858 4.37052297,15.9193548 4.82758621,15.9193548 L6.48275862,15.9193548 L6.48275862,3.31604185 C6.48275862,2.86535438 6.85328159,2.5 7.31034483,2.5 C7.76740807,2.5 8.13793103,2.86535438 8.13793103,3.31604185 L8.13793103,15.9193548 Z M16.4137931,7.53225806 L18.0689655,7.53225806 C18.5260288,7.53225806 18.8965517,7.90776118 18.8965517,8.37096774 L18.8965517,13.4032258 C18.8965517,13.8664324 18.5260288,14.2419355 18.0689655,14.2419355 L16.4137931,14.2419355 L16.4137931,27.6146953 C16.4137931,28.1036356 16.0432701,28.5 15.5862069,28.5 C15.1291437,28.5 14.7586207,28.1036356 14.7586207,27.6146953 L14.7586207,14.2419355 L13.1034483,14.2419355 C12.646385,14.2419355 12.2758621,13.8664324 12.2758621,13.4032258 L12.2758621,8.37096774 C12.2758621,7.90776118 12.646385,7.53225806 13.1034483,7.53225806 L14.7586207,7.53225806 L14.7586207,3.33870968 C14.7586207,2.87550311 15.1291437,2.5 15.5862069,2.5 C16.0432701,2.5 16.4137931,2.87550311 16.4137931,3.33870968 L16.4137931,7.53225806 Z M25.5148293,12.5645161 L27.1724138,12.5645161 C27.629477,12.5645161 28,12.9400192 28,13.4032258 L28,18.4354839 C28,18.8986904 27.629477,19.2741935 27.1724138,19.2741935 L25.5172414,19.2741935 L25.5172414,27.7258065 C25.5172414,28.1533817 25.1467184,28.5 24.6896552,28.5 C24.2325919,28.5 23.862069,28.1533817 23.862069,27.7258065 L23.862069,19.2741935 L22.2068966,19.2741935 C21.7498333,19.2741935 21.3793103,18.8986904 21.3793103,18.4354839 L21.3793103,13.4032258 C21.3793103,12.9400192 21.7498333,12.5645161 22.2068966,12.5645161 L23.864481,12.5645161 C23.8628827,12.5414487 23.862069,12.5181405 23.862069,12.4946237 L23.862069,3.40860215 C23.862069,2.90679504 24.2325919,2.5 24.6896552,2.5 C25.1467184,2.5 25.5172414,2.90679504 25.5172414,3.40860215 L25.5172414,12.4946237 C25.5172414,12.5181405 25.5164276,12.5414487 25.5148293,12.5645161 Z M23.0344828,14.2419355 L23.0344828,17.5967742 L26.3448276,17.5967742 L26.3448276,14.2419355 L23.0344828,14.2419355 Z M13.9310345,9.20967742 L13.9310345,12.5645161 L17.2413793,12.5645161 L17.2413793,9.20967742 L13.9310345,9.20967742 Z M5.65517241,17.5967742 L5.65517241,20.9516129 L8.96551724,20.9516129 L8.96551724,17.5967742 L5.65517241,17.5967742 Z" id="Mask" fill="#1F2229" transform="translate(16.000000, 15.500000) rotate(90.000000) translate(-16.000000, -15.500000) "></path>
    </g>
</svg>