<?xml version="1.0" encoding="UTF-8"?>
<svg width="32px" height="32px" viewBox="0 0 32 32" version="1.1" xmlns="http://www.w3.org/2000/svg" xmlns:xlink="http://www.w3.org/1999/xlink">
    <!-- Generator: Sketch 49.1 (51147) - http://www.bohemiancoding.com/sketch -->
    <title>tarif</title>
    <desc>Created with Sketch.</desc>
    <defs></defs>
    <g id="tarif" stroke="none" stroke-width="1" fill="none" fill-rule="evenodd">
        <path d="M24.721,4.0015 L16.1905,4.0015 C14.37625,4.01725 12.9115,5.4925 12.9115,7.309 L12.9115,7.3315 L12.9115,14.81425 L6.2965,14.81425 C5.023,14.83675 4,15.874 4,17.1505 L4,17.17675 L4,25.6405 L4,25.66525 C4,26.94175 5.02375,27.979 6.29425,28.00075 L21.169,28.00075 C22.4425,27.97825 23.4655,26.941 23.4655,25.6645 L23.4655,25.63825 L23.4655,25.26475 L24.721,25.26475 C26.53525,25.24825 28,23.77375 28,21.9565 L28,21.93475 L28,7.3285 L28,7.3075 C28,5.491 26.53525,4.0165 24.7225,4 L24.721,4.0015 Z M16.1905,5.5165 L24.721,5.5165 C25.7035,5.5315 26.49475,6.33175 26.49475,7.3165 L26.49475,7.33075 L26.49475,8.3665 L14.41975,8.3665 L14.41975,7.33 L14.41975,7.312 C14.41975,6.32875 15.2095,5.53075 16.189,5.5165 L16.1905,5.5165 Z M14.41675,9.8815 L26.49175,9.8815 L26.49175,18.715 L22.04125,18.715 L18.4765,15.1735 C18.25525,14.95225 17.95075,14.815 17.61325,14.81425 L14.41375,14.81425 L14.41375,9.8815 L14.41675,9.8815 Z M21.96025,25.6405 L21.96025,25.65625 C21.96025,26.101 21.61075,26.46475 21.1705,26.4865 L6.29575,26.4865 C5.854,26.46475 5.5045,26.10175 5.5045,25.65625 L5.5045,25.63975 L5.5045,17.17525 L5.5045,17.1595 C5.5045,16.71475 5.854,16.351 6.29425,16.32925 L17.5,16.32925 L21.9595,20.77825 L21.9595,25.6405 L21.96025,25.6405 Z M24.721,23.7505 L23.4655,23.7505 L23.4655,20.77825 C23.464,20.58025 23.4265,20.392 23.359,20.21875 L26.49475,20.22925 L26.49475,21.937 L26.49475,21.9505 C26.49475,22.93525 25.7035,23.7355 24.7225,23.7505 L24.721,23.7505 Z M13.50175,18.244 L8.17075,18.244 C7.756,18.24775 7.42075,18.5845 7.42075,19 L7.42075,19.003 L7.42075,23.8135 L7.42075,23.81575 C7.42075,24.23125 7.756,24.568 8.17075,24.57175 L13.50175,24.57175 C13.91875,24.57025 14.25625,24.232 14.25625,23.815 L14.25625,23.8135 L14.25625,19.0015 L14.25625,19.00075 C14.25625,18.58375 13.91875,18.2455 13.50175,18.244 L13.50175,18.244 Z M12.75175,23.0575 L8.92225,23.0575 L8.92225,19.7575 L12.75175,19.7575 L12.75175,23.0575 Z" id="Mask" fill="#1F2229" fill-rule="nonzero"></path>
    </g>
</svg>