<?xml version="1.0" encoding="UTF-8"?>
<svg width="32px" height="32px" viewBox="0 0 32 32" version="1.1" xmlns="http://www.w3.org/2000/svg" xmlns:xlink="http://www.w3.org/1999/xlink">
    <!-- Generator: Sketch 49.1 (51147) - http://www.bohemiancoding.com/sketch -->
    <title>loader</title>
    <desc>Created with Sketch.</desc>
    <defs>
        <path d="M16,25 C11.0294373,25 7,20.9705627 7,16 C7,11.0294373 11.0294373,7 16,7 C20.9705627,7 25,11.0294373 25,16 C25,20.9705627 20.9705627,25 16,25 Z M16,23.8 C20.307821,23.8 23.8,20.307821 23.8,16 C23.8,11.692179 20.307821,8.2 16,8.2 C11.692179,8.2 8.2,11.692179 8.2,16 C8.2,20.307821 11.692179,23.8 16,23.8 Z M14.8,11.801484 C14.8,11.4692935 15.0783203,11.2 15.4,11.2 L15.4,11.2 C15.7313708,11.2 16,11.4734566 16,11.801484 L16,17.798516 C16,18.1307065 15.7216797,18.4 15.4,18.4 L15.4,18.4 C15.0686292,18.4 14.8,18.1265434 14.8,17.798516 L14.8,11.801484 Z M18.9920767,17.2 C19.3278235,17.2 19.6,17.4783203 19.6,17.8 L19.6,17.8 C19.6,18.1313708 19.3281782,18.4 18.9920767,18.4 L15.4079233,18.4 C15.0721765,18.4 14.8,18.1216797 14.8,17.8 L14.8,17.8 C14.8,17.4686292 15.0718218,17.2 15.4079233,17.2 L18.9920767,17.2 Z" id="path-1"></path>
    </defs>
    <g id="loader" stroke="none" stroke-width="1" fill="none" fill-rule="evenodd">
        <mask id="mask-2" fill="white">
            <use xlink:href="#path-1"></use>
        </mask>
        <use id="Mask" fill="#1F2229" fill-rule="nonzero" xlink:href="#path-1"></use>
    </g>
</svg>