<?xml version="1.0" encoding="UTF-8"?>
<svg width="32px" height="32px" viewBox="0 0 32 32" version="1.1" xmlns="http://www.w3.org/2000/svg" xmlns:xlink="http://www.w3.org/1999/xlink">
    <!-- Generator: Sketch 49.1 (51147) - http://www.bohemiancoding.com/sketch -->
    <title>login</title>
    <desc>Created with Sketch.</desc>
    <defs></defs>
    <g id="login" stroke="none" stroke-width="1" fill="none" fill-rule="evenodd">
        <path d="M15.3451667,11.4166025 L18.9225833,15.4256583 C19.248,15.7511 19.248,16.2787333 18.9225833,16.604175 L15.4166667,20.5833583 C15.09125,20.908775 14.5635833,20.908775 14.2381667,20.5833583 C13.91275,20.2578583 13.91275,19.730275 14.2381667,19.4048167 L16.25,16.8333333 L5,16.84825 L5,15.1815833 L16.25,15.1666667 L14.1666667,12.5951167 C13.84125,12.269675 13.84125,11.74204 14.1666667,11.4166025 C14.4920833,11.0911657 15.01975,11.0911657 15.3451667,11.4166025 Z M10.8333333,6 L21.6666667,6 C23.5075833,6 25,7.49238333 25,9.33333333 L25,22.6666667 C25,24.5075833 23.5075833,26 21.6666667,26 L10.8333333,26 L10.8333333,24.3333333 L21.6666667,24.3333333 C22.5871667,24.3333333 23.3333333,23.5871667 23.3333333,22.6666667 L23.3333333,9.33333333 C23.3333333,8.41285833 22.5871667,7.66666667 21.6666667,7.66666667 L10.8333333,7.66666667 L10.8333333,6 Z" id="Mask" fill="#1F2229"></path>
    </g>
</svg>