<?xml version="1.0" encoding="UTF-8"?>
<svg width="24px" height="24px" viewBox="0 0 24 24" version="1.1" xmlns="http://www.w3.org/2000/svg" xmlns:xlink="http://www.w3.org/1999/xlink">
    <!-- Generator: Sketch 49.1 (51147) - http://www.bohemiancoding.com/sketch -->
    <title>circle-arrow</title>
    <desc>Created with Sketch.</desc>
    <defs>
        <path d="M12,0 C5.37225,0 0,5.37225 0,12 C0,18.62775 5.37225,24 12,24 C18.62775,24 24,18.62775 24,12 C23.991,5.376 18.624,0.009 12.00075,0 L12,0 Z M11.798903,15.4519799 C12.0584884,15.4560057 12.320254,15.357945 12.5234161,15.1547829 L16.0548073,11.6233917 C16.4464756,11.2317234 16.4501256,10.6003537 16.0568787,10.2071068 C15.6663544,9.81658249 15.040143,9.80962887 14.6405938,10.2091781 L11.798903,13.0508689 L8.95721225,10.2091781 C8.557663,9.80962887 7.93145163,9.81658249 7.54092734,10.2071068 C7.14768039,10.6003537 7.15133043,11.2317234 7.54299869,11.6233917 L11.0743899,15.1547829 C11.277552,15.357945 11.5393176,15.4560057 11.798903,15.4519799 Z M12,22.08 C6.43275,22.08 1.92,17.56725 1.92,12 C1.92,6.43275 6.43275,1.92 12,1.92 C17.56725,1.92 22.08,6.43275 22.08,12 C22.07325,17.56425 17.56425,22.07325 12.00075,22.08 L12,22.08 Z" id="path-1"></path>
    </defs>
    <g id="circle-arrow" stroke="none" stroke-width="1" fill="none" fill-rule="evenodd">
        <mask id="mask-2" fill="white">
            <use xlink:href="#path-1"></use>
        </mask>
        <use id="Mask" fill="#1F2229" fill-rule="nonzero" xlink:href="#path-1"></use>
    </g>
</svg>