<?xml version="1.0" encoding="UTF-8"?>
<svg width="11px" height="20px" viewBox="0 0 11 20" version="1.1" xmlns="http://www.w3.org/2000/svg" xmlns:xlink="http://www.w3.org/1999/xlink">
    <!-- Generator: Sketch 49.1 (51147) - http://www.bohemiancoding.com/sketch -->
    <title>side-arrow</title>
    <desc>Created with Sketch.</desc>
    <defs></defs>
    <g id="side-arrow" stroke="none" stroke-width="1" fill="none" fill-rule="evenodd">
        <path d="M9.52998525,10.0959705 L0.415089051,0.884296221 C0.20476833,0.671742405 0.201413125,0.319198578 0.415626935,0.104984767 L0.364700996,0.155910706 C0.584461416,-0.0638497136 0.925983196,-0.0567026896 1.13989994,0.159485332 L10.5634937,9.68313477 C10.5879175,9.7078179 10.6095503,9.73438885 10.6283755,9.76241176 L10.6375178,9.77155403 C10.6346142,9.76865044 10.6316893,9.7657859 10.6287436,9.76296037 C10.6355,9.7730443 10.6418934,9.78331562 10.6479228,9.79375407 C10.7976175,10.0080373 10.7744268,10.3064789 10.5861565,10.4928187 L1.13888407,19.8432209 C0.924429813,20.0554761 0.582472296,20.0594351 0.362711876,19.8396746 L0.413637816,19.8906006 C0.199424005,19.6763868 0.203223983,19.3270972 0.414073177,19.11841 L9.52998525,10.0959705 Z" id="Mask" fill="#1F2229"></path>
    </g>
</svg>