<?xml version="1.0" encoding="UTF-8"?>
<svg width="32px" height="32px" viewBox="0 0 32 32" version="1.1" xmlns="http://www.w3.org/2000/svg" xmlns:xlink="http://www.w3.org/1999/xlink">
    <!-- Generator: Sketch 49.1 (51147) - http://www.bohemiancoding.com/sketch -->
    <title>Icons/Notification-Bell</title>
    <desc>Created with Sketch.</desc>
    <defs>
        <path d="M19.4463,8.8447 C18.9553,8.3337 18.2343,8.1317 17.5623,8.3187 C16.8903,8.5057 16.1733,8.3047 15.6813,7.7927 L11.8683,3.8167 C9.5893,1.4407 5.8813,1.4407 3.6023,3.8167 C3.5103,3.9127 3.4203,4.0127 3.3333,4.1157 C1.3113,6.5157 1.5123,10.2577 3.7903,12.6327 L7.4153,16.4107 C7.9063,16.9247 8.0993,17.6717 7.9203,18.3717 C7.7403,19.0737 7.9333,19.8247 8.4243,20.3377 L11.1793,17.4647 L16.6913,11.7177 L19.4463,8.8447 Z M16.6913,14.5907 L13.9353,17.4647 C14.6953,18.2567 15.9303,18.2567 16.6913,17.4647 C17.4503,16.6717 17.4503,15.3837 16.6913,14.5907 Z M21.8573,9.2037 L18.0683,13.1547 C19.5883,14.7387 19.5883,17.3167 18.0683,18.9007 C16.5493,20.4847 14.0763,20.4847 12.5573,18.9007 L8.7683,22.8507 C8.5783,23.0497 8.2703,23.0497 8.0793,22.8507 L7.0463,21.7737 C6.0263,20.7107 5.6903,19.2027 6.0373,17.8487 L2.4133,14.0697 C-0.5227,11.0087 -0.8697,6.0277 1.8693,2.7757 C1.9843,2.6387 2.1033,2.5067 2.2243,2.3807 C5.2683,-0.7933 10.2023,-0.7933 13.2463,2.3807 L17.0593,6.3557 C18.3593,5.9937 19.8043,6.3447 20.8243,7.4077 L21.8573,8.4857 C22.0473,8.6837 22.0473,9.0057 21.8573,9.2037 Z M6.0133,7.0497 C5.2533,7.8417 5.2533,9.1297 6.0133,9.9227 C6.3933,10.3187 6.3933,10.9617 6.0133,11.3587 C5.6333,11.7557 5.0153,11.7557 4.6353,11.3587 C3.1153,9.7747 3.1153,7.1967 4.6353,5.6127 C5.0153,5.2157 5.6333,5.2157 6.0133,5.6127 C6.3933,6.0097 6.3933,6.6527 6.0133,7.0497 Z" id="path-1"></path>
    </defs>
    <g id="Icons/Notification-Bell" stroke="none" stroke-width="1" fill="none" fill-rule="evenodd">
        <g id="notification-bell" transform="translate(5.000000, 5.000000)">
            <mask id="mask-2" fill="white">
                <use xlink:href="#path-1"></use>
            </mask>
            <use id="Mask" fill="#000000" xlink:href="#path-1"></use>
        </g>
    </g>
</svg>