<?xml version="1.0" encoding="UTF-8"?>
<svg width="32px" height="32px" viewBox="0 0 32 32" version="1.1" xmlns="http://www.w3.org/2000/svg" xmlns:xlink="http://www.w3.org/1999/xlink">
    <!-- Generator: Sketch 49.1 (51147) - http://www.bohemiancoding.com/sketch -->
    <title>Icons/Magazine</title>
    <desc>Created with Sketch.</desc>
    <defs>
        <path d="M21.2142857,3.10902848 L17.2857143,3.10902848 L17.2857143,0.77961672 C17.2857143,0.469028485 17.1285714,0.158440249 16.8142857,0.0807931898 C16.5,-0.074500928 16.1857143,0.00314613164 15.95,0.236087308 C13.2,2.95373437 4.08571429,3.18667554 0.785714286,3.10902848 C0.628571429,3.10902848 0.392857143,3.18667554 0.235714286,3.34196966 C0.0785714286,3.49726378 0,3.6525579 0,3.88549907 L0,24.0737344 C0,24.4619697 0.314285714,24.8502049 0.785714286,24.8502049 C1.57142857,24.8502049 2.43571429,24.8502049 3.22142857,24.8502049 L21.2142857,24.8502049 C21.6857143,24.8502049 22,24.5396167 22,24.0737344 L22,3.88549907 C22,3.41961672 21.6857143,3.10902848 21.2142857,3.10902848 Z M1.57142857,23.2972638 L1.57142857,4.66196966 C4.08571429,4.66196966 11.7071429,4.58432261 15.7142857,2.3325579 L15.7142857,20.6572638 C13.3571429,22.6760873 7.22857143,23.2196167 3.22142857,23.2972638 L2.35714286,23.2972638 C2.04285714,23.2972638 1.80714286,23.2972638 1.57142857,23.2972638 Z M20.4285714,23.2972638 L13.9071429,23.2972638 C15.1642857,22.8313814 16.2642857,22.287852 17.05,21.5113814 C17.2071429,21.3560873 17.2857143,21.2007931 17.2857143,20.967852 L17.2857143,4.66196966 L20.4285714,4.66196966 L20.4285714,23.2972638 Z M4.78017746,12.0975191 C4.34776805,12.1339101 3.96773022,11.8128737 3.93133921,11.3804643 C3.8949482,10.9480549 4.21598455,10.5680171 4.64839396,10.5316261 C8.8623806,10.1769825 11.7699073,9.77637965 13.338945,9.34024962 C13.7570324,9.22403797 14.1901673,9.4687566 14.306379,9.88684398 C14.4225906,10.3049314 14.177872,10.7380663 13.7597846,10.8542779 C12.0694041,11.3241364 9.08687804,11.7350728 4.78017746,12.0975191 Z M4.78017747,18.3092838 C4.34776806,18.3456748 3.96773023,18.0246385 3.93133921,17.5922291 C3.8949482,17.1598196 4.21598454,16.7797818 4.64839395,16.7433908 C8.86238063,16.3887471 11.7699073,15.9881443 13.338945,15.5520143 C13.7570324,15.4358026 14.1901673,15.6805213 14.306379,16.0986087 C14.4225906,16.516696 14.177872,16.949831 13.7597846,17.0660426 C12.0694041,17.5359011 9.08687808,17.9468374 4.78017747,18.3092838 Z" id="path-1"></path>
    </defs>
    <g id="Icons/Magazine" stroke="none" stroke-width="1" fill="none" fill-rule="evenodd">
        <g id="magazine" transform="translate(5.000000, 3.000000)">
            <mask id="mask-2" fill="white">
                <use xlink:href="#path-1"></use>
            </mask>
            <use id="Mask" fill="#1F2229" fill-rule="nonzero" xlink:href="#path-1"></use>
        </g>
    </g>
</svg>