<?xml version="1.0" encoding="UTF-8"?>
<svg width="32px" height="32px" viewBox="0 0 32 32" version="1.1" xmlns="http://www.w3.org/2000/svg" xmlns:xlink="http://www.w3.org/1999/xlink">
    <!-- Generator: sketchtool 49.1 (51147) - http://www.bohemiancoding.com/sketch -->
    <title>BBFF7F49-F0C6-4DB8-9B4F-41829D5C5248</title>
    <desc>Created with sketchtool.</desc>
    <defs></defs>
    <g id="Symbols" stroke="none" stroke-width="1" fill="none" fill-rule="evenodd">
        <g id="plus-icon" fill="#1F2229" fill-rule="nonzero">
            <path d="M26.6975318,14.3255235 L17.6743789,14.3255235 L17.6743789,5.3023218 C17.6743789,4.89127801 17.1162201,4 15.9999512,4 C14.8836823,4 14.3255235,4.8913268 14.3255235,5.3023218 L14.3255235,14.3255723 L5.3023218,14.3255723 C4.8913268,14.3255235 4,14.8836823 4,15.9999024 C4,17.1161225 4.8913268,17.6743301 5.3023218,17.6743301 L14.3255723,17.6743301 L14.3255723,26.6975806 C14.3255723,27.1085268 14.8836823,27.9999024 16,27.9999024 C17.1163177,27.9999024 17.6744277,27.1085268 17.6744277,26.6975806 L17.6744277,17.6743301 L26.6976782,17.6743301 C27.1086244,17.6743301 28,17.1162201 28,15.9999024 C28,14.8835848 27.1085268,14.3255235 26.6975318,14.3255235 Z"></path>
        </g>
    </g>
</svg>