<?xml version="1.0" encoding="UTF-8"?>
<svg width="32px" height="32px" viewBox="0 0 32 32" version="1.1" xmlns="http://www.w3.org/2000/svg" xmlns:xlink="http://www.w3.org/1999/xlink">
    <!-- Generator: Sketch 49.1 (51147) - http://www.bohemiancoding.com/sketch -->
    <title>Icons/Arrows/Rounded-Right</title>
    <desc>Created with Sketch.</desc>
    <defs>
        <path d="M10.93,9 L21.07,9 C24.8973333,9 28,12.1026667 28,15.93 L28,16.07 C28,19.8973333 24.8973333,23 21.07,23 L10.93,23 C7.10266668,23 4,19.8973333 4,16.07 L4,15.93 C4,12.1026667 7.10266668,9 10.93,9 Z M10.93,10.2 C7.76540838,10.2 5.2,12.7654084 5.2,15.93 L5.2,16.07 C5.2,19.2345916 7.76540838,21.8 10.93,21.8 L21.07,21.8 C24.2345916,21.8 26.8,19.2345916 26.8,16.07 L26.8,15.93 C26.8,12.7654084 24.2345916,10.2 21.07,10.2 L10.93,10.2 Z M19.9930811,15.2564444 C20.339744,15.2673296 20.6061081,15.5494536 20.6061081,15.8911111 C20.6061081,16.2329452 20.3395617,16.5149132 19.9928649,16.5262222 L13.3695922,16.5262222 L15.3392136,18.6220201 C15.4494738,18.7409348 15.5120541,18.8982211 15.5120541,19.0644444 C15.5120541,19.2306677 15.4494738,19.3879541 15.3395637,19.5064904 C15.2265994,19.6288262 15.0688193,19.7 14.8998919,19.7 C14.7309645,19.7 14.5731844,19.6288262 14.4617221,19.5081027 L11.490408,16.3466465 C11.3801478,16.2277319 11.3175676,16.0704455 11.3175676,15.9042222 C11.3175676,15.7380738 11.3800992,15.5807724 11.4913375,15.4607929 L14.4847613,12.275592 C14.597751,12.154008 14.7553201,12.0833333 14.9238919,12.0833333 C15.0924637,12.0833333 15.2500327,12.154008 15.3632136,12.2757979 C15.4735054,12.3947465 15.5360541,12.5520485 15.5360541,12.7184444 C15.5360541,12.8849838 15.4735954,13.0424292 15.362268,13.1621133 L13.3936647,15.2564444 L19.9930811,15.2564444 Z" id="path-1"></path>
    </defs>
    <g id="Icons/Arrows/Rounded-Right" stroke="none" stroke-width="1" fill="none" fill-rule="evenodd">
        <mask id="mask-2" fill="white">
            <use xlink:href="#path-1"></use>
        </mask>
        <use id="Mask" fill="#1F2229" fill-rule="nonzero" transform="translate(16.000000, 16.000000) scale(-1, 1) translate(-16.000000, -16.000000) " xlink:href="#path-1"></use>
    </g>
</svg>