<?xml version="1.0" encoding="UTF-8"?>
<svg width="32px" height="32px" viewBox="0 0 32 32" version="1.1" xmlns="http://www.w3.org/2000/svg" xmlns:xlink="http://www.w3.org/1999/xlink">
    <!-- Generator: Sketch 49.1 (51147) - http://www.bohemiancoding.com/sketch -->
    <title>chatbot-wink</title>
    <desc>Created with Sketch.</desc>
    <defs></defs>
    <g id="chatbot-wink" stroke="none" stroke-width="1" fill="none" fill-rule="evenodd">
        <path d="M22.4134969,15.891001 C22.2977028,15.812342 22.1550146,15.7658957 22.0011206,15.7658957 C21.7418913,15.7658957 21.5132914,15.8984924 21.380315,16.1007585 C20.6586565,17.1974904 19.9534334,17.6567094 17.2162112,18.2178107 C14.6209301,18.7504448 13.751354,18.6935106 12.5739899,17.9091675 C12.4567017,17.8305085 12.3125195,17.783313 12.1578784,17.783313 C11.7425139,17.783313 11.4055905,18.1211724 11.4055905,18.5376908 C11.4055905,18.7983894 11.5378198,19.0283734 11.7387786,19.1639667 C12.5358899,19.7303118 13.5249953,20.0689203 14.5932889,20.0689203 C14.6186889,20.0689203 14.644836,20.0689203 14.6702359,20.0681712 C15.6944531,20.033711 16.6730997,19.8988669 17.6158874,19.6718794 C20.2007097,19.1414926 21.5058208,18.639573 22.6234203,16.9337953 C22.7018614,16.8169304 22.748179,16.6730967 22.748179,16.5187752 C22.748179,16.2588257 22.6166968,16.0295908 22.415738,15.8939976 L22.4134969,15.891001 Z M24.5583017,7.8438056 L22.5330262,7.8438056 L25.0752661,5.28701189 C25.2112308,5.15066954 25.2949013,4.96263695 25.2949013,4.75437775 C25.2949013,4.33785935 24.957978,4 24.5426135,4 C24.3349312,4 24.1459254,4.08465212 24.0099608,4.22174361 L20.4098861,7.84005993 L11.5826433,7.84005993 L7.98256864,4.22174361 C7.84959223,4.09888566 7.67179232,4.02397228 7.476063,4.02397228 C7.06219262,4.02397228 6.72601631,4.36033336 6.72601631,4.77610263 C6.72601631,4.97312482 6.80146921,5.15291694 6.92548092,5.28701189 L9.46772085,7.8438056 L7.44244537,7.8438056 C5.54043454,7.8483004 4,9.39526173 4,11.3033056 L4,11.3033056 L4,19.9220901 L4,19.9258358 C4,21.6668227 5.28195231,23.1074071 6.95162796,23.3493773 L6.97030443,27.2471205 L6.97030443,27.2486188 C6.97030443,27.5377844 7.13316317,27.7887443 7.37147482,27.9145987 C7.47456889,27.9692855 7.59185706,28 7.71661583,28 L7.72035112,28 L7.72035112,28 C7.88320986,28 8.03411567,27.9475606 8.15738032,27.8591628 L14.402789,23.386834 L24.5575546,23.386834 C26.4595655,23.3823392 28,21.8353778 28,19.927334 L28,19.927334 L28,11.3092986 L28,11.3033056 C28,9.39526173 26.4595655,7.8483004 24.5583017,7.8438056 L24.5583017,7.8438056 Z M26.5014007,19.9220901 L26.5014007,19.9220901 C26.5014007,20.9993445 25.6325717,21.8728345 24.5590487,21.8773293 L14.1637303,21.8773293 L14.1614891,21.8773293 C13.9993775,21.8773293 13.8484716,21.9297687 13.7267011,22.0181665 L8.47114487,25.7825639 L8.47114487,23.3508756 C8.47114487,22.463152 8.47114487,21.8773293 7.72109818,21.8773293 L7.44393949,21.8773293 C6.37041649,21.8728345 5.5015875,20.9993445 5.5015875,19.9220901 L5.5015875,19.9220901 L5.5015875,11.3092986 L5.5015875,11.3092986 C5.5015875,10.2320442 6.37041649,9.35855417 7.44393949,9.35405937 L24.5590487,9.35405937 C25.6325717,9.35855417 26.5014007,10.2320442 26.5014007,11.3092986 L26.5014007,11.3092986 L26.5014007,19.9220901 Z M13.4741954,15.2961888 C14.2018303,15.2954396 14.7912594,14.7036239 14.7912594,13.9739676 C14.7912594,13.2443113 14.2010832,12.6517464 13.4727012,12.6517464 C12.7443192,12.6517464 12.1541431,13.2435621 12.1541431,13.9739676 L12.1541431,13.9784624 C12.1541431,14.7058713 12.7420781,15.2961888 13.4682189,15.2961888 L13.4741954,15.2961888 L13.4741954,15.2961888 Z M17.8766108,14.7268471 L20.7266389,14.7268471 C21.1405092,14.7268471 21.4766856,14.390486 21.4766856,13.9747167 C21.4766856,13.5589475 21.1412563,13.2225864 20.7266389,13.2225864 L17.8766108,13.2225864 C17.4627405,13.2225864 17.1265642,13.5589475 17.1265642,13.9747167 C17.1265642,14.390486 17.4619934,14.7268471 17.8766108,14.7268471 Z" id="Mask" fill="#1F2229" fill-rule="nonzero"></path>
    </g>
</svg>