<?xml version="1.0" encoding="UTF-8"?>
<svg width="32px" height="32px" viewBox="0 0 32 32" version="1.1" xmlns="http://www.w3.org/2000/svg" xmlns:xlink="http://www.w3.org/1999/xlink">
    <!-- Generator: Sketch 49.1 (51147) - http://www.bohemiancoding.com/sketch -->
    <title>chatbot-main</title>
    <desc>Created with Sketch.</desc>
    <defs></defs>
    <g id="chatbot-main" stroke="none" stroke-width="1" fill="none" fill-rule="evenodd">
        <path d="M20.5758566,17.1939683 C19.6534404,18.1208205 18.8744282,18.4295214 16.0832789,18.4295214 C13.4303053,18.4295214 12.5907945,18.198745 11.591448,17.1939683 C11.4547661,17.0531048 11.2643077,16.9654397 11.0529362,16.9654397 C10.639156,16.9654397 10.3030529,17.3018638 10.3030529,17.717711 C10.3030529,17.9305048 10.3911866,18.122319 10.5323499,18.2594362 C11.9686304,19.7032874 13.3451592,19.9363117 16.0810382,19.9363117 C18.8169172,19.9363117 20.1971805,19.7032874 21.6297264,18.2594362 C21.790309,18.1208205 21.8911399,17.9162686 21.8911399,17.6884893 C21.8911399,17.2733914 21.5557838,16.936218 21.1412567,16.936218 C20.916441,16.936218 20.7140323,17.0358715 20.5766035,17.1932191 L20.5758566,17.1939683 Z M24.5493418,7.84227779 L22.5245075,7.84227779 L25.0646998,5.28500515 C25.2006349,5.14863726 25.2850341,4.96056945 25.2850341,4.75227124 C25.2850341,4.33642409 24.948931,4 24.5351508,4 C24.3282607,4 24.1407898,4.0839187 24.0056017,4.21953732 L20.4063113,7.83853142 L11.5884605,7.83853142 L7.98917001,4.21953732 C7.85323499,4.0839187 7.66651106,4 7.45962095,4 C7.04509383,4 6.70973765,4.33717336 6.70973765,4.75227124 C6.70973765,4.96056945 6.79413687,5.14863726 6.93007189,5.28500515 L9.47026421,7.84227779 L7.44542993,7.84227779 C5.54233965,7.84452562 4,9.39252599 4,11.3024258 L4,11.3024258 L4,19.9205769 C4.0007469,21.6626393 5.28241994,23.1034935 6.95098497,23.3485061 L6.96965736,27.2469795 C6.96965736,27.2469795 6.96965736,27.2469795 6.96965736,27.2477288 C6.96965736,27.6628266 7.30501354,28 7.71954066,28 C7.88236392,28 8.03323686,27.9483001 8.15572776,27.8598857 L14.3997759,23.3867191 L24.5508356,23.3867191 C26.4554197,23.3867191 28,21.8372202 28,19.9265711 L28,11.3061721 L28,11.3009272 C28,9.39102744 26.4569135,7.84227779 24.5530763,7.84077925 L24.5493418,7.84227779 Z M26.4994865,19.9205769 C26.4994865,21.0010303 25.6263654,21.8761824 24.5500887,21.8761824 L14.1637569,21.8761824 C14.0009336,21.8761824 13.8500607,21.9286316 13.7275698,22.0177953 L8.47166464,25.7828978 L8.47166464,22.6307015 C8.47166464,22.2156036 8.13630847,21.8784303 7.72178135,21.8784303 L7.44841751,21.8784303 C6.37139389,21.8784303 5.4990197,21.0025288 5.4990197,19.9228248 L5.4990197,11.3061721 C5.4990197,10.2257188 6.37214079,9.35056664 7.44841751,9.35056664 L24.5538232,9.35056664 C25.6308468,9.35056664 26.503221,10.2264681 26.503221,11.3061721 L26.503221,19.9213262 L26.4994865,19.9205769 Z M13.5729624,15.2938091 L13.5766969,15.2938091 C14.3049202,15.2938091 14.8949678,14.7018826 14.8949678,13.9713403 C14.8949678,13.240798 14.3049202,12.6488714 13.5766969,12.6488714 C12.8484735,12.6488714 12.2584259,13.240798 12.2584259,13.9713403 L12.2584259,13.9728388 C12.2584259,14.7026318 12.8477266,15.2938091 13.5752031,15.2938091 L13.5729624,15.2938091 Z M18.6294464,15.2938091 L18.6324339,15.2938091 C19.3606573,15.2938091 19.9507049,14.7018826 19.9507049,13.9713403 C19.9507049,13.240798 19.3606573,12.6488714 18.6324339,12.6488714 C17.9042106,12.6488714 17.314163,13.240798 17.314163,13.9713403 L17.314163,13.9728388 C17.314163,14.7026318 17.9034637,15.2938091 18.6309402,15.2938091 L18.6316871,15.2938091 L18.6294464,15.2938091 Z" id="Mask" fill="#1F2229" fill-rule="nonzero"></path>
    </g>
</svg>