<?xml version="1.0" encoding="UTF-8"?>
<svg width="32px" height="32px" viewBox="0 0 32 32" version="1.1" xmlns="http://www.w3.org/2000/svg" xmlns:xlink="http://www.w3.org/1999/xlink">
    <!-- Generator: Sketch 49.1 (51147) - http://www.bohemiancoding.com/sketch -->
    <title>back</title>
    <desc>Created with Sketch.</desc>
    <defs>
        <path d="M19.1738628,7.13392662 L2.840062,7.13392662 L8.22102492,1.47834504 C8.37060546,1.31946916 8.46212513,1.10363778 8.46212513,0.865823575 C8.46212513,0.628009368 8.37011342,0.412177986 8.22053288,0.252802498 C8.07390459,0.0969242779 7.86724728,0 7.63795606,0 C7.40866485,0 7.20200753,0.0969242779 7.05537924,0.252802498 L0.241100204,7.41620609 C0.0920117106,7.57508197 0,7.79091335 0,8.02822795 C0,8.26554254 0.0920117106,8.48137393 0.241592245,8.64074941 L7.00076266,15.7456987 C7.14739095,15.9025761 7.35404827,16 7.58333948,16 C7.8126307,16 8.01928802,15.9025761 8.1659163,15.7456987 C8.31549684,15.5863232 8.40750855,15.3704918 8.40750855,15.1331772 C8.40750855,14.8958626 8.31549684,14.6800312 8.1659163,14.5206557 L2.78544542,8.86457455 L19.1733707,8.86457455 C19.6329372,8.84958626 20,8.46788447 20,7.99875098 C20,7.52961749 19.6329372,7.14791569 19.1748469,7.1329274 L19.1738628,7.13392662 Z" id="path-1"></path>
    </defs>
    <g id="back" stroke="none" stroke-width="1" fill="none" fill-rule="evenodd">
        <g transform="translate(5.000000, 8.000000)">
            <mask id="mask-2" fill="white">
                <use xlink:href="#path-1"></use>
            </mask>
            <use id="Mask" fill="#1F2229" fill-rule="nonzero" xlink:href="#path-1"></use>
        </g>
    </g>
</svg>