<?xml version="1.0" encoding="UTF-8"?>
<svg width="32px" height="32px" viewBox="0 0 32 32" version="1.1" xmlns="http://www.w3.org/2000/svg" xmlns:xlink="http://www.w3.org/1999/xlink">
    <!-- Generator: Sketch 49.1 (51147) - http://www.bohemiancoding.com/sketch -->
    <title>edit</title>
    <desc>Created with Sketch.</desc>
    <defs>
        <path d="M2.28927681,13.1399602 L2.28927681,15.7107232 L4.86003984,15.7107232 L15.2365984,5.33416459 L12.6658354,2.76340156 L2.28927681,13.1399602 Z M13.475217,0.335256827 L17.6647432,4.52478301 C18.1117523,4.97179211 18.1117523,5.69653706 17.6647432,6.14354617 L6.14354617,17.6647432 C5.92888483,17.8794045 5.63774157,18 5.33416459,18 L1.1446384,18 C0.512472069,18 0,17.4875279 0,16.8553616 L0,12.6658354 C0,12.3622584 0.120595486,12.0711152 0.335256827,11.8564538 L11.8564538,0.335256827 C12.3034629,-0.111752276 13.0282079,-0.111752276 13.475217,0.335256827 Z M1.02866242,22 C0.460547853,22 0,21.5522847 0,21 C0,20.4477153 0.460547853,20 1.02866242,20 L17.9713376,20 C18.5394521,20 19,20.4477153 19,21 C19,21.5522847 18.5394521,22 17.9713376,22 L1.02866242,22 Z" id="path-1"></path>
    </defs>
    <g id="edit" stroke="none" stroke-width="1" fill="none" fill-rule="evenodd">
        <g transform="translate(6.000000, 4.000000)">
            <mask id="mask-2" fill="white">
                <use xlink:href="#path-1"></use>
            </mask>
            <use id="Mask" fill="#1F2229" fill-rule="nonzero" xlink:href="#path-1"></use>
        </g>
    </g>
</svg>