<?xml version="1.0" encoding="UTF-8"?>
<svg width="32px" height="32px" viewBox="0 0 32 32" version="1.1" xmlns="http://www.w3.org/2000/svg" xmlns:xlink="http://www.w3.org/1999/xlink">
    <!-- Generator: Sketch 49.1 (51147) - http://www.bohemiancoding.com/sketch -->
    <title>enter</title>
    <desc>Created with Sketch.</desc>
    <defs>
        <path d="M17.2479374,3.7439841e-15 C16.8316057,0.00312519532 16.4946055,0.336896056 16.4946055,0.747546722 L16.4946055,0.754422151 L16.4946055,12.3026439 L16.4946055,12.3232702 C16.4946055,13.7077317 15.3617516,14.831552 13.9585361,14.8446778 L2.5703406,14.8446778 L4.92426486,12.4864054 C5.06071504,12.3488968 5.14448911,12.16076 5.14448911,11.9532471 C5.14448911,11.7457341 5.06071504,11.5575973 4.92426486,11.4200888 C4.78908399,11.2838302 4.60059234,11.19945 4.39179183,11.19945 C4.18299133,11.19945 3.99449968,11.2838302 3.85931881,11.4200888 L0.220224244,15.0659416 C0.0837740639,15.2034502 0,15.391587 0,15.599725 C0,15.807863 0.0837740639,15.9959997 0.220224244,16.1335083 L3.85868415,19.7793612 C3.99386503,19.9156197 4.18235667,20 4.39115718,20 C4.59995769,20 4.78844933,19.9156197 4.92363021,19.7793612 C5.06008039,19.6418526 5.14385445,19.4537159 5.14385445,19.2462029 C5.14385445,19.0386899 5.06008039,18.8505532 4.92363021,18.7130446 L2.56970594,16.3547722 L13.9572668,16.3547722 C16.1950497,16.3322708 18,14.5409088 18,12.3338959 L18,12.3013938 L18,0.754422151 L18,0.747546722 C18,0.336896056 17.6636344,0.00312519532 17.2473027,0 L17.2479374,3.7439841e-15 Z" id="path-1"></path>
    </defs>
    <g id="enter" stroke="none" stroke-width="1" fill="none" fill-rule="evenodd">
        <g transform="translate(5.000000, 6.000000)">
            <mask id="mask-2" fill="white">
                <use xlink:href="#path-1"></use>
            </mask>
            <use id="Mask" fill="#1F2229" fill-rule="nonzero" xlink:href="#path-1"></use>
        </g>
    </g>
</svg>