<?xml version="1.0" encoding="UTF-8"?>
<svg width="32px" height="32px" viewBox="0 0 32 32" version="1.1" xmlns="http://www.w3.org/2000/svg" xmlns:xlink="http://www.w3.org/1999/xlink">
    <!-- Generator: Sketch 49.1 (51147) - http://www.bohemiancoding.com/sketch -->
    <title>filter</title>
    <desc>Created with Sketch.</desc>
    <defs>
        <path d="M19.8036889,0.733614495 C19.5469744,0.292439863 19.0766908,0.000718525461 18.5380937,0 L1.4619063,0 C0.923309244,0.000718525461 0.452306475,0.292439863 0.199906519,0.726429241 C0.0726279078,0.941268354 0,1.19203374 0,1.46004374 C0,1.72805373 0.0726279078,1.97810059 0.199906519,2.19293971 L7.10243411,14.0888472 L7.10243411,21.5399563 C7.10387229,22.139925 7.46557365,22.6558263 7.98331715,22.8814433 C8.16165103,22.9554514 8.3579621,22.9971259 8.56290224,23 C8.95840075,22.9992815 9.31578758,22.8426429 9.57897386,22.589722 L12.5171682,19.7709466 C12.7918599,19.5050922 12.9630029,19.132896 12.9651602,18.7211809 L12.9651602,13.9882537 L19.8029698,2.18647298 C19.926653,1.97810059 20,1.72661668 20,1.45788816 C20,1.19131521 19.9273721,0.941268354 19.8015317,0.726429241 L19.8036889,0.733614495 Z M11.5622191,13.4924711 L11.5025348,13.8661043 L11.5025348,18.7204624 L8.56362133,21.5399563 L8.56362133,13.8661043 L8.47804983,13.5499531 L1.46118721,1.46004374 L18.5373746,1.46004374 L11.5622191,13.4924711 Z" id="path-1"></path>
    </defs>
    <g id="filter" stroke="none" stroke-width="1" fill="none" fill-rule="evenodd">
        <g transform="translate(6.000000, 5.000000)">
            <mask id="mask-2" fill="white">
                <use xlink:href="#path-1"></use>
            </mask>
            <use id="Mask" fill="#1F2229" fill-rule="nonzero" xlink:href="#path-1"></use>
        </g>
    </g>
</svg>