<?xml version="1.0" encoding="UTF-8"?>
<svg width="24px" height="24px" viewBox="0 0 24 24" version="1.1" xmlns="http://www.w3.org/2000/svg" xmlns:xlink="http://www.w3.org/1999/xlink">
    <!-- Generator: Sketch 49.1 (51147) - http://www.bohemiancoding.com/sketch -->
    <title>loader</title>
    <desc>Created with Sketch.</desc>
    <defs>
        <path d="M9,18 C4.02943725,18 0,13.9705627 0,9 C0,4.02943725 4.02943725,0 9,0 C13.9705627,0 18,4.02943725 18,9 C18,13.9705627 13.9705627,18 9,18 Z M9,16.8 C13.307821,16.8 16.8,13.307821 16.8,9 C16.8,4.69217895 13.307821,1.2 9,1.2 C4.69217895,1.2 1.2,4.69217895 1.2,9 C1.2,13.307821 4.69217895,16.8 9,16.8 Z M7.8,4.80148398 C7.8,4.46929355 8.07832031,4.2 8.4,4.2 L8.4,4.2 C8.73137085,4.2 9,4.47345657 9,4.80148398 L9,10.798516 C9,11.1307065 8.72167969,11.4 8.4,11.4 L8.4,11.4 C8.06862915,11.4 7.8,11.1265434 7.8,10.798516 L7.8,4.80148398 Z M11.9920767,10.2 C12.3278235,10.2 12.6,10.4783203 12.6,10.8 L12.6,10.8 C12.6,11.1313708 12.3281782,11.4 11.9920767,11.4 L8.40792332,11.4 C8.07217654,11.4 7.8,11.1216797 7.8,10.8 L7.8,10.8 C7.8,10.4686292 8.07182178,10.2 8.40792332,10.2 L11.9920767,10.2 Z" id="path-1"></path>
    </defs>
    <g id="loader" stroke="none" stroke-width="1" fill="none" fill-rule="evenodd">
        <g transform="translate(3.000000, 3.000000)">
            <mask id="mask-2" fill="white">
                <use xlink:href="#path-1"></use>
            </mask>
            <use id="Mask" fill="#8F9399" fill-rule="nonzero" xlink:href="#path-1"></use>
        </g>
    </g>
</svg>