<?xml version="1.0" encoding="UTF-8"?>
<svg width="32px" height="32px" viewBox="0 0 32 32" version="1.1" xmlns="http://www.w3.org/2000/svg" xmlns:xlink="http://www.w3.org/1999/xlink">
    <!-- Generator: Sketch 49.1 (51147) - http://www.bohemiancoding.com/sketch -->
    <title>secure</title>
    <desc>Created with Sketch.</desc>
    <defs>
        <path d="M8.00029993,10.7308514 C7.21868556,10.7320511 6.58523601,11.3661006 6.58523601,12.1483148 C6.58523601,12.9311289 7.21988528,13.5657781 8.00269936,13.5657781 C8.78551344,13.5657781 9.42016271,12.9311289 9.42016271,12.1483148 L9.42016271,12.1483148 C9.42016271,11.3655007 8.78551344,10.7308514 8.00269936,10.7308514 L8.00029993,10.7308514 Z M14.0720579,5.09339032 L12.4938327,5.09339032 L12.4938327,4.08442995 C12.4938327,1.36947475 10.9821917,0 8.00029993,0 C4.0172459,0 3.50676714,2.17808271 3.50676714,4.08442995 L3.50676714,5.09339032 L1.92854197,5.09339032 C0.863794849,5.09459003 0.000599857534,5.95838488 0,7.02313201 L0,17.2734975 C0.000599857534,18.3388445 0.863194991,19.2020395 1.92794211,19.2032392 L14.071458,19.2032392 C15.1362052,19.2020395 15.9994001,18.3382447 16,17.2734975 L16,7.02313201 C15.9994001,5.95898474 15.1380047,5.09578975 14.0744573,5.09339032 L14.0720579,5.09339032 Z M5.12458291,4.08442995 C5.12458291,2.59498369 5.32493533,1.61001762 8.00029993,1.61001762 C10.3949312,1.61001762 10.8760169,2.55479324 10.8760169,4.08442995 L10.8760169,5.09339032 L5.12458291,5.09339032 L5.12458291,4.08442995 L5.12458291,4.08442995 Z M14.3827841,17.2734975 C14.3785851,17.4438571 14.2418176,17.5806246 14.0726577,17.5860233 L1.9309414,17.5860233 C1.76118172,17.5806246 1.62501406,17.4438571 1.62081506,17.2740974 L1.62081506,7.02313201 C1.62501406,6.85337232 1.76118172,6.71660481 1.93034154,6.71060623 L14.0744573,6.71060623 C14.244217,6.71600495 14.3809845,6.85277247 14.3851835,7.02253215 L14.3851835,17.2734975 L14.3827841,17.2734975 Z" id="path-1"></path>
    </defs>
    <g id="secure" stroke="none" stroke-width="1" fill="none" fill-rule="evenodd">
        <g transform="translate(8.000000, 6.000000)">
            <mask id="mask-2" fill="white">
                <use xlink:href="#path-1"></use>
            </mask>
            <use id="Mask" fill="#1F2229" fill-rule="nonzero" xlink:href="#path-1"></use>
        </g>
    </g>
</svg>