<?xml version="1.0" encoding="UTF-8"?>
<svg width="32px" height="32px" viewBox="0 0 32 32" version="1.1" xmlns="http://www.w3.org/2000/svg" xmlns:xlink="http://www.w3.org/1999/xlink">
    <!-- Generator: Sketch 49.1 (51147) - http://www.bohemiancoding.com/sketch -->
    <title>add-traffic</title>
    <desc>Created with Sketch.</desc>
    <defs></defs>
    <g id="add-traffic" stroke="none" stroke-width="1" fill="none" fill-rule="evenodd">
        <path d="M23.3160211,16.4109153 C27.172465,16.4109153 30.3,19.5198707 30.3,23.3554576 C30.3,27.191186 27.1723228,30.3 23.3151408,30.3 C19.4579589,30.3 16.3302817,27.191186 16.3302817,23.3554576 C16.3302817,22.9587641 16.3640588,22.5850053 16.4347501,22.2339866 C15.1320263,22.778265 13.7255503,23.0631012 12.278169,23.0631012 C6.40597488,22.9657377 1.7,18.2141086 1.7,12.3815506 C1.7,6.55188418 6.39946278,1.80456091 12.2649648,1.7 C18.2197151,1.70810135 23.0227113,6.48853131 23.0227113,12.3833005 C23.0227113,13.843189 22.7280542,15.2495995 22.1668428,16.5062769 C22.4464432,16.4602041 22.7299328,16.4308103 23.0160211,16.4184668 L23.3160211,16.4109153 Z M28.9702465,23.3554576 C28.9702465,20.2561527 26.4421138,17.7432674 23.3221831,17.7432674 C20.2025632,17.7432674 17.6741197,20.2567186 17.6741197,23.3554576 C17.6741197,26.4533437 20.2004612,28.9658283 23.3186619,28.9676471 C26.4385762,28.9658292 28.9669049,26.4541943 28.9702465,23.3554576 Z M4.76212284,6.69704926 C5.51202586,7.16237223 6.31078638,7.53735795 7.18618031,7.83100304 C7.59359256,6.1249583 8.22827184,4.67141966 9.02648036,3.60866319 C7.36880255,4.21818093 5.89927625,5.28579793 4.76212284,6.69704926 Z M9.01992181,21.1480602 C8.27099534,20.1532318 7.64425018,18.8024295 7.17124942,17.1854044 C6.37902171,17.4523738 5.61892228,17.8031761 4.9284375,18.2181598 C5.99589486,19.5413358 7.40042298,20.5500363 9.01992181,21.1480602 Z M21.6894366,12.3868004 C21.6894366,10.7820796 21.2819688,9.21098355 20.536285,7.8049748 C19.5936702,8.39208287 18.640946,8.80571907 17.6195586,9.04565085 C17.7954556,10.1404172 17.884507,11.2533379 17.884507,12.3771757 C17.884507,13.2772052 17.8375764,14.0850531 17.7251285,15.455772 C17.7055148,15.693279 17.6918579,15.858973 17.6808875,15.9936552 C18.6166825,16.2955435 19.5272881,16.6693799 20.3319858,17.0803334 C20.3716519,17.0612617 20.4118087,17.0424475 20.4524323,17.0238936 C21.25901,15.6239364 21.6894366,14.0373133 21.6894366,12.3868004 Z M15.5401201,3.61753373 C16.3259973,4.66211036 16.9740571,6.09533165 17.44523,7.80975807 C18.2641507,7.53081679 19.0478042,7.16064694 19.7592939,6.71938369 C18.6803887,5.31424882 17.2269963,4.24288273 15.5401201,3.61753373 Z M19.0602918,17.9483594 C18.4991442,17.700874 17.9222396,17.4817789 17.2907599,17.2774433 C16.8864514,18.8202608 16.2899608,20.1544321 15.5704133,21.1459673 C16.0565606,20.9672012 16.5221907,20.7502288 16.9529718,20.5018796 C17.4289332,19.4608332 18.1376703,18.5931613 19.0602918,17.9483594 Z M12.278169,21.7351239 C13.7407145,21.7351239 15.1991755,19.8813342 16.0894643,16.9213761 C14.8553947,16.5876391 13.5813272,16.4050772 12.2799296,16.38006 L12.2508803,16.38006 C10.9685215,16.38006 9.69602993,16.5268177 8.54491638,16.8002528 C9.3126868,19.7996762 10.7814478,21.7351239 12.278169,21.7351239 Z M12.2878521,3.03322709 C10.7512479,3.03836334 9.2453383,5.04122563 8.37907522,8.18019546 C9.6457279,8.48245118 10.9519639,8.63678323 12.278169,8.63678323 C13.590374,8.63678323 14.8933622,8.48543316 16.069633,8.2036924 C15.3229198,5.08289768 13.8227305,3.04065444 12.2878521,3.03322709 Z M2.86866197,12.3815506 C2.86866197,14.0575636 3.31443792,15.6946364 4.12778246,17.1471827 C5.05659004,16.5834009 5.98603267,16.189153 6.98149552,15.9627165 C6.77834993,14.7861696 6.67535211,13.5897723 6.67535211,12.3815506 C6.67535211,11.4113922 6.72517478,10.6045976 6.85584209,9.1266028 C5.86348083,8.80285727 4.91518965,8.36150589 4.06101246,7.82879172 C3.28386991,9.20603776 2.86866197,10.7634345 2.86866197,12.3815506 Z M12.272007,15.0468329 L12.2983798,15.0477538 C13.763217,15.0733726 15.1061082,15.2817718 16.2586624,15.6810639 C16.4504346,14.6085494 16.5477113,13.516525 16.5477113,12.4121746 L16.5477113,12.3623012 C16.5477113,11.711649 16.5208347,11.13356 16.4536848,10.0989906 C16.4336813,9.79079911 16.4222085,9.61381818 16.4143468,9.48874728 C15.0707775,9.80630763 13.6858838,9.96826037 12.2790493,9.96826037 C10.7915345,9.96826037 9.42161967,9.78734037 8.24118899,9.41735746 C8.08728486,10.388242 8.00950704,11.3764968 8.00950704,12.3763007 C8.00950704,13.176608 8.05092826,13.9025118 8.15018445,15.1326171 C8.16290893,15.2891938 8.17294764,15.4128876 8.18132718,15.516752 C9.51072736,15.2055061 10.8805233,15.0468329 12.272007,15.0468329 Z M27.4082746,23.3537077 C27.4082746,23.7202765 27.1117538,24.0169772 26.7440957,24.0185712 L23.9877606,24.0209384 L23.9901408,26.7599763 C23.9901408,27.127998 23.6910027,27.4248398 23.3230634,27.4248398 C22.9553181,27.4248398 22.6559859,27.127313 22.655986,26.7602372 L22.6536059,24.0238211 L19.897007,24.0238211 C19.5292617,24.0238211 19.2299296,23.7262943 19.2299296,23.3589575 C19.2299296,22.9916208 19.5292617,22.6940939 19.8967494,22.694094 L22.6530845,22.6917268 L22.6507042,19.952689 C22.6507042,19.5846672 22.9498424,19.2878254 23.3177817,19.2878254 C23.685527,19.2878254 23.9848592,19.5853522 23.984859,19.9524283 L23.9872392,22.6912115 L26.7394366,22.6888478 C27.1102349,22.6901304 27.4082746,22.9871648 27.4082746,23.3537077 Z" id="Mask" fill="#1F2229" fill-rule="nonzero"></path>
    </g>
</svg>