<?xml version="1.0" encoding="UTF-8"?>
<svg width="32px" height="32px" viewBox="0 0 32 32" version="1.1" xmlns="http://www.w3.org/2000/svg" xmlns:xlink="http://www.w3.org/1999/xlink">
    <!-- Generator: Sketch 49.1 (51147) - http://www.bohemiancoding.com/sketch -->
    <title>call-filled</title>
    <desc>Created with Sketch.</desc>
    <defs></defs>
    <g id="call-filled" stroke="none" stroke-width="1" fill="none" fill-rule="evenodd">
        <path d="M24.7070901,25.3883617 L21.415268,21.9679936 C21.2407362,21.7880137 20.9963916,21.6770261 20.724729,21.6770261 C20.4697608,21.6770261 20.2375575,21.776015 20.0660611,21.937247 L19.3231625,22.6294197 C18.9961051,22.940635 18.5514283,23.1318636 18.0612215,23.1318636 C17.8791013,23.1318636 17.7030518,23.1056166 17.537626,23.0561221 C15.3142423,22.3924462 13.4535812,21.0568453 12.155975,19.2900426 L11.4661949,18.1591689 C10.5168935,16.7185798 9.95232094,14.9555266 9.95232094,13.0619881 C9.95232094,12.86551 9.95839161,12.6705318 9.97053295,12.4770534 C10.0357927,11.6168995 10.5851885,10.8707328 11.3561639,10.5160224 L11.9230129,10.2580512 C12.306983,10.0870703 12.5687807,9.71286207 12.5687807,9.27716072 C12.5687807,9.11967831 12.5346332,8.96969506 12.4724088,8.83471013 L10.5426938,4.57068627 C10.3871328,4.23172412 10.047934,4 9.65334032,4 C9.481085,4 9.31945335,4.04424506 9.17906905,4.12223635 C8.68355042,4.3367124 8.25480918,4.6224305 7.88677467,4.97114156 C6.57171528,6.44922651 3.90669012,13.7211645 8.96052484,20.7298819 C14.9279958,29.0194562 21.5639995,28.1375547 23.0930501,27.7918433 C23.6856994,27.6081138 24.1948771,27.3051476 24.6129946,26.9091918 C24.8497509,26.719463 25,26.4299954 25,26.1067814 C25,25.8278126 24.8884514,25.5750908 24.7063312,25.3891116 L24.7070901,25.3883617 Z" id="Mask" fill="#1F2229" fill-rule="nonzero"></path>
    </g>
</svg>