<?xml version="1.0" encoding="UTF-8"?>
<svg width="32px" height="32px" viewBox="0 0 32 32" version="1.1" xmlns="http://www.w3.org/2000/svg" xmlns:xlink="http://www.w3.org/1999/xlink">
    <!-- Generator: Sketch 49.1 (51147) - http://www.bohemiancoding.com/sketch -->
    <title>chat</title>
    <desc>Created with Sketch.</desc>
    <defs>
        <path d="M16.0018732,4.00075012 C8.93577035,4.00075012 4,8.24191206 4,14.3148599 C4,17.8884176 5.2609468,20.2692892 8.1556486,22.2068416 L8.1556486,27.2498787 C8.1556486,27.2626307 8.16164953,27.2731324 8.16239965,27.2851342 C8.16765047,27.3406429 8.17815211,27.3916509 8.19390457,27.4404085 C8.20365609,27.4891661 8.21865843,27.5356733 8.23816147,27.5806804 C8.24191206,27.5866813 8.24116194,27.5994333 8.24716288,27.6106851 C8.2831685,27.6751951 8.32517505,27.7307038 8.37393266,27.7802115 C8.42269027,27.8297192 8.38218395,27.7854623 8.38518442,27.7884628 C8.44219332,27.8424712 8.50820362,27.8882284 8.58096498,27.9212335 C8.60196826,27.9317352 8.62297153,27.9407366 8.64472493,27.9482377 C8.72498746,27.9797427 8.81275115,27.9984956 8.90501555,28.001496 L8.90651579,28.001496 C9.00028042,27.9992457 9.08804412,27.9804928 9.16980688,27.9474876 C9.18405911,27.9422368 9.20281203,27.9354857 9.22156496,27.9272345 C9.24031789,27.9189832 9.25156964,27.9174829 9.26657198,27.9092316 L14.0928252,25.27182 C14.6531627,25.348332 15.302014,25.393339 15.9613669,25.3955893 C22.939706,25.3955893 27.9999958,20.8161246 27.9999958,14.5053896 C28.0052466,8.31917412 23.0694763,4 16.0033734,4 L16.0018732,4.00075012 Z M15.9666177,23.8923547 L15.9613669,23.8923547 C15.2862615,23.8923547 14.623158,23.842847 13.9750569,23.746832 C14.0478182,23.7558334 14.046318,23.7558334 14.0455679,23.7558334 C14.0163133,23.7558334 13.9878089,23.7580838 13.9593044,23.7618343 C13.9525534,23.7610842 13.9413016,23.7610842 13.9292997,23.7610842 C13.8857929,23.7610842 13.8430363,23.7648348 13.8017798,23.772336 C13.7567728,23.7820875 13.713266,23.7955896 13.6720096,23.8128423 C13.6390044,23.8195934 13.6074995,23.8293449 13.5767447,23.8420969 L9.66038345,25.982931 L9.66038345,21.8160306 C9.65588275,21.7845257 9.65063193,21.7575215 9.64388087,21.7305173 C9.63938017,21.6795093 9.62887853,21.6292515 9.61387619,21.5797438 C9.59887385,21.5347367 9.5793708,21.4919801 9.55536706,21.4514737 C9.50960992,21.3652103 9.44584996,21.2901986 9.36933802,21.2309393 C9.34608439,21.2129365 9.33258229,21.1889328 9.30857854,21.1739304 C6.57215145,19.4576626 5.50623509,17.5336123 5.50623509,14.3103592 C5.50623509,9.04078674 9.72489352,5.49948403 16.0026233,5.49948403 C22.1828379,5.49948403 26.4990115,9.2013118 26.4990115,14.5008889 C26.4990115,19.9444885 22.0695702,23.8923547 15.9673678,23.8923547 L15.9666177,23.8923547 Z M20.8513801,11.7044525 L11.0623523,11.7044525 C10.6482876,11.7044525 10.3122352,12.0405049 10.3122352,12.4545696 C10.3122352,12.8686342 10.6482876,13.2046866 11.0623523,13.2046866 L20.8513801,13.2046866 C21.2654447,13.2046866 21.6014972,12.8686342 21.6014972,12.4545696 C21.6014972,12.0405049 21.2654447,11.7044525 20.8513801,11.7044525 Z M20.8513801,15.6688212 L11.0623523,15.6688212 C10.6482876,15.6688212 10.3122352,16.0048737 10.3122352,16.4189383 C10.3122352,16.8330029 10.6482876,17.1690554 11.0623523,17.1690554 L20.8513801,17.1690554 C21.2654447,17.1690554 21.6014972,16.8330029 21.6014972,16.4189383 C21.6014972,16.0048737 21.2654447,15.6688212 20.8513801,15.6688212 Z" id="path-1"></path>
    </defs>
    <g id="chat" stroke="none" stroke-width="1" fill="none" fill-rule="evenodd">
        <mask id="mask-2" fill="white">
            <use xlink:href="#path-1"></use>
        </mask>
        <use id="Mask" fill="#1F2229" fill-rule="nonzero" xlink:href="#path-1"></use>
    </g>
</svg>