<?xml version="1.0" encoding="UTF-8"?>
<svg width="32px" height="32px" viewBox="0 0 32 32" version="1.1" xmlns="http://www.w3.org/2000/svg" xmlns:xlink="http://www.w3.org/1999/xlink">
    <!-- Generator: Sketch 49.1 (51147) - http://www.bohemiancoding.com/sketch -->
    <title>day-sms</title>
    <desc>Created with Sketch.</desc>
    <defs></defs>
    <g id="day-sms" stroke="none" stroke-width="1" fill="none" fill-rule="evenodd">
        <path d="M29.2533363,16.5324845 C29.9851478,16.5324845 30.3,17.4157877 30.3,18.0284973 L30.3,28.8031122 C30.3,29.6293607 29.6302356,30.2991251 28.8039871,30.2991251 L13.8857607,30.2991251 C13.0595122,30.2991251 12.3897478,29.6293607 12.389753,28.8048689 L12.3527993,22.4941856 C10.6291791,22.2536096 9.02934327,21.5122222 7.73738243,20.3773062 L4.67905106,23.4397323 C4.55570862,23.5647193 4.38736552,23.6366247 4.20829297,23.6366247 C4.02922043,23.6366247 3.86087732,23.5647193 3.73893505,23.4411418 C3.61570392,23.3179107 3.54432709,23.1502385 3.54432709,22.9726588 C3.54432709,22.7950791 3.61570392,22.6274069 3.73921915,22.5038921 L6.8133895,19.4379393 C5.59790895,18.0024867 4.86231193,16.2199888 4.72590542,14.3056245 L2.3648408,14.3056245 C1.99792424,14.3056245 1.7,14.0077002 1.7,13.6407837 C1.7,13.2738671 1.99792424,12.9759429 2.3627582,12.9759501 L4.72873771,12.9595251 C4.87378129,11.0403939 5.63079828,9.24580581 6.86842939,7.81562872 L3.74258259,4.68563724 C3.61482048,4.56115109 3.54082742,4.39046256 3.54082742,4.20829297 C3.54082742,3.84137641 3.83875166,3.54345218 4.20566822,3.54345218 C4.38718675,3.54345218 4.55779576,3.61759337 4.67987377,3.74290882 L7.80296921,6.87997968 C9.23619535,5.63783652 11.0289172,4.88248816 12.9584445,4.73901881 L12.9584445,2.3648408 C12.9584445,1.99792424 13.2563688,1.7 13.6232853,1.7 C13.9902019,1.7 14.2881261,1.99792424 14.2881196,2.36286521 L14.3037664,4.73883662 C16.1967397,4.87936121 17.9681932,5.61825559 19.3864379,6.82923455 L22.4720648,3.73871279 C22.5948962,3.61915698 22.7596275,3.55132644 22.9341624,3.55132644 C23.301079,3.55132644 23.5990032,3.84925067 23.5990032,4.21616723 C23.5990032,4.39135885 23.531317,4.55616019 23.4086284,4.68216684 L20.3274605,7.75922981 C21.5968199,9.20336412 22.37048,11.0185661 22.5177616,12.974193 L25.2999406,12.974193 C25.6668572,12.974193 25.9647814,13.2721173 25.9647814,13.6390338 C25.9647814,14.0059504 25.6668572,14.3038746 25.3015673,14.3038702 L22.5180086,14.3189637 C22.4628689,15.087225 22.3099904,15.8384556 22.0712799,16.5324845 C26.4490566,16.5324845 28.8430754,16.5324845 29.2533363,16.5324845 Z M14.5452718,17.8612911 L21.3469034,24.3276533 L28.1381608,17.8612911 L14.5452718,17.8612911 Z M28.8066119,28.9676937 C28.8978113,28.9676937 28.9720682,28.8932438 28.9720682,28.8013624 L28.9720682,18.9032882 L21.8044055,25.7269081 C21.6817732,25.843 21.5191922,25.9087867 21.3470612,25.9087867 C21.1758164,25.9087867 21.0138788,25.8436777 20.8892489,25.7273391 L13.7211793,18.9122797 L13.7211793,28.8022373 C13.7211793,28.8941672 13.7954843,28.9685686 13.8875105,28.9685686 L28.6814729,28.9685686 L28.8066119,28.9676937 Z M12.3906228,21.1532727 L12.3906228,18.0293722 C12.3906228,17.2039987 13.0595122,16.5351092 13.8848858,16.5351092 L20.6257171,16.5835596 C21.0105356,15.6624218 21.2115458,14.6706209 21.2115458,13.6504078 C21.2115458,9.45477941 17.8155609,6.05125022 13.6199383,6.0411484 C9.42926186,6.05155786 6.03569921,9.44949054 6.03065025,13.6407837 C6.03065025,15.6666371 6.80485115,17.5414157 8.13270803,18.917783 C8.14449011,18.925368 8.15937165,18.9384288 8.22394911,18.9951056 C8.24496128,19.023402 8.25230799,19.0332956 8.26115016,19.0472655 C9.37665668,20.1588495 10.8064332,20.8949675 12.3906228,21.1532727 Z" id="Mask" fill="#1F2229" fill-rule="nonzero"></path>
    </g>
</svg>