<?xml version="1.0" encoding="UTF-8"?>
<svg width="32px" height="32px" viewBox="0 0 32 32" version="1.1" xmlns="http://www.w3.org/2000/svg" xmlns:xlink="http://www.w3.org/1999/xlink">
    <!-- Generator: Sketch 49.1 (51147) - http://www.bohemiancoding.com/sketch -->
    <title>exchange</title>
    <desc>Created with Sketch.</desc>
    <defs></defs>
    <g id="exchange" stroke="none" stroke-width="1" fill="none" fill-rule="evenodd">
        <path d="M17.5079745,21.8487618 C17.1642759,21.5802127 17.1033551,21.0838879 17.3719042,20.7401892 C17.6404533,20.3964906 18.1367781,20.3355699 18.4804767,20.604119 C19.5775194,21.4612938 20.9191623,21.9247648 22.3228555,21.9247648 C24.4437286,21.9247648 26.4014448,20.858277 27.5564679,19.0901443 C28.2192494,18.0757188 28.5704759,16.8991397 28.5704759,15.6771445 C28.5704759,14.567119 28.2812335,13.4943815 27.7297262,12.545344 C26.6108993,10.6179531 24.5604436,9.42952408 22.3228555,9.42952408 C20.9203007,9.42952408 19.5791259,9.89267669 18.4821434,10.7490877 C18.1383358,11.0174973 17.6420358,10.9563751 17.3736262,10.6125675 C17.1052166,10.2687599 17.1663388,9.77245988 17.5101464,9.50405032 C18.8842035,8.43132801 20.5672534,7.85 22.3228555,7.85 C25.1250703,7.85 27.695042,9.33934303 29.0955862,11.7520454 C29.7868076,12.9415039 30.15,14.2879646 30.15,15.6771445 C30.15,17.2066087 29.7090962,18.6832342 28.8788119,19.9540324 C27.4329104,22.1674476 24.9786917,23.5042889 22.3228555,23.5042889 C20.5659246,23.5042889 18.8821961,22.9225105 17.5079745,21.8487618 Z M16.9689067,12.8271616 C17.1278188,13.2333565 16.9273566,13.6914663 16.5211617,13.8503784 C16.1149668,14.0092905 15.656857,13.8088282 15.4979449,13.4026333 C15.3818027,13.1057624 15.2434774,12.8192786 15.0840151,12.545344 C13.9651882,10.6179531 11.9147326,9.42952408 9.67714445,9.42952408 C6.2267636,9.42952408 3.42952408,12.2267636 3.42952408,15.6771445 C3.42952408,19.1278723 6.22647087,21.9247648 9.67714445,21.9247648 C11.7980833,21.9247648 13.7557692,20.8582227 14.9110905,19.0896341 C15.1455737,18.7313483 15.3427404,18.349063 15.4992298,17.9490828 C15.6581495,17.5428908 16.116263,17.3424371 16.5224549,17.5013568 C16.9286469,17.6602766 17.1291006,18.1183901 16.9701809,18.524582 C16.7740493,19.0258857 16.5268572,19.5051789 16.2331008,19.9540324 C14.7871993,22.1674476 12.3329806,23.5042889 9.67714445,23.5042889 C5.35413068,23.5042889 1.85,20.0002263 1.85,15.6771445 C1.85,11.3544165 5.35441654,7.85 9.67714445,7.85 C12.4792923,7.85 15.0492978,9.33928589 16.4495791,11.7515364 C16.6495063,12.0949828 16.8232111,12.4547496 16.9689067,12.8271616 Z M22.9313624,15.0020708 C23.0618873,15.1334323 23.1361781,15.3099798 23.1361781,15.4993317 C23.1361781,15.6882515 23.061728,15.8653915 22.9315989,15.9963542 L20.2981972,18.6585202 C20.1701022,18.7908567 19.9936489,18.866695 19.8027222,18.866695 C19.6148197,18.866695 19.437834,18.7908132 19.3089604,18.6602615 C19.1783015,18.5296026 19.1031666,18.3516403 19.1031666,18.1626611 C19.1031666,17.9738293 19.1780379,17.7959832 19.3081989,17.6658277 L20.7314495,16.2219188 L9.54093912,16.2219188 C9.15177612,16.2219188 8.83626543,15.9066595 8.83626543,15.5178848 C8.83626543,15.1285961 9.15165039,14.8132111 9.54093912,14.8132111 L20.7654863,14.8132111 L19.3470056,13.3697276 C19.2166958,13.2385771 19.1415523,13.0613155 19.1415523,12.8724688 C19.1415523,12.6836795 19.2165249,12.5058874 19.346664,12.3749152 C19.4760129,12.2438864 19.6536474,12.1684349 19.8423874,12.1684349 C20.0309791,12.1684349 20.2079491,12.2436241 20.336978,12.3750637 L22.9313624,15.0020708 Z" id="Mask" fill="#1F2229" fill-rule="nonzero"></path>
    </g>
</svg>