<?xml version="1.0" encoding="UTF-8"?>
<svg width="32px" height="32px" viewBox="0 0 32 32" version="1.1" xmlns="http://www.w3.org/2000/svg" xmlns:xlink="http://www.w3.org/1999/xlink">
    <!-- Generator: Sketch 49.1 (51147) - http://www.bohemiancoding.com/sketch -->
    <title>infinity</title>
    <desc>Created with Sketch.</desc>
    <defs></defs>
    <g id="infinity" stroke="none" stroke-width="1" fill="none" fill-rule="evenodd">
        <path d="M23.2606686,21.9820865 C21.7306764,21.9820865 20.430183,21.5048721 19.3209386,20.5504434 C18.4794429,19.8529763 18.1734137,19.5903205 17.3701678,18.8561446 C17.0259196,18.5624742 16.9876698,18.1219686 17.1789188,17.7915895 C17.3701678,17.4979191 17.7526659,17.3143751 18.1734137,17.4612103 C18.326413,17.4979191 18.4794122,17.6080455 18.5941616,17.7181719 C19.3974075,18.415639 19.7034367,18.641586 20.5066826,19.3390531 C21.7306764,20.4036082 23.375418,20.6605698 24.7906608,19.9998115 C26.3589028,19.2656355 27.3533977,17.7972837 27.2768981,16.2922231 C27.1621487,13.9428601 24.0639145,11.4833708 21.1569293,13.2086842 C20.3919332,13.6858985 19.7034367,14.3099481 19.0149402,14.8972888 C16.9494507,16.7327286 14.922211,18.5681684 12.8567215,20.4036082 C11.9004764,21.2479105 10.791232,21.7618337 9.49073865,21.9453777 C5.81875734,22.4593008 2.49102428,19.2656355 3.06477136,15.7782999 C3.48551922,13.0985578 5.93350676,11.0061564 8.80224216,11.0061564 C10.2557348,11.0061564 11.4736324,11.5013623 12.6654725,12.4377995 C13.4130039,13.0251402 13.6746516,13.2980477 14.369249,13.9067585 C14.4839985,14.0168849 14.6369977,14.1270113 14.7134973,14.2738465 C14.9047463,14.6042256 14.8282467,15.08144 14.5222483,15.3016928 C14.2162498,15.5586543 13.7190024,15.5586543 13.4130039,15.264984 C12.9540063,14.8611872 11.7696053,13.7960879 11.2119799,13.3922282 C9.91148651,12.4745083 8.53449352,12.2909643 7.08100092,13.0251402 C5.58925851,13.7960249 4.67126318,14.9707064 4.74776279,16.659311 C4.7860126,18.9719652 7.96074644,21.5048721 10.8677316,19.7428499 C11.7092274,19.2289268 12.4359737,18.5314596 13.2009698,17.8707013 C15.1517098,16.1453879 17.1406997,14.3099481 19.1679394,12.5479259 C20.3536834,11.5200796 21.807176,10.9327388 23.4519176,11.0061564 C25.7086561,11.1529916 28.0418942,12.6580523 28.7686405,15.0074152 C29.457137,17.209943 28.5773915,19.5593059 26.5501518,20.9542402 C25.5174071,21.6149985 24.3699129,21.9820865 23.2606686,21.9820865 Z" id="Mask" fill="#1F2229" fill-rule="nonzero"></path>
    </g>
</svg>