<?xml version="1.0" encoding="UTF-8"?>
<svg width="32px" height="32px" viewBox="0 0 32 32" version="1.1" xmlns="http://www.w3.org/2000/svg" xmlns:xlink="http://www.w3.org/1999/xlink">
    <!-- Generator: Sketch 49.1 (51147) - http://www.bohemiancoding.com/sketch -->
    <title>phone</title>
    <desc>Created with Sketch.</desc>
    <defs></defs>
    <g id="phone" stroke="none" stroke-width="1" fill="none" fill-rule="evenodd">
        <path d="M21.5238095,26.8571429 C22.4706944,26.8571429 23.2380952,26.089742 23.2380952,25.1428571 L23.2380952,6.85714286 C23.2380952,5.91025795 22.4706944,5.14285714 21.5238095,5.14285714 L10.8571429,5.14285714 C9.91025795,5.14285714 9.14285714,5.91025795 9.14285714,6.85714286 L9.14285714,25.1428571 C9.14285714,26.089742 9.91025795,26.8571429 10.8571429,26.8571429 L21.5238095,26.8571429 Z M21.5238095,28 L10.8571429,28 C9.27907538,28 8,26.7209246 8,25.1428571 L8,6.85714286 C8,5.27907538 9.27907538,4 10.8571429,4 L21.5238095,4 C23.101877,4 24.3809524,5.27907538 24.3809524,6.85714286 L24.3809524,25.1428571 C24.3809524,26.7209246 23.101877,28 21.5238095,28 Z M8.95238095,10.0952381 C8.63678967,10.0952381 8.38095238,9.83940081 8.38095238,9.52380952 C8.38095238,9.20821824 8.63678967,8.95238095 8.95238095,8.95238095 L23.4285714,8.95238095 C23.7441627,8.95238095 24,9.20821824 24,9.52380952 C24,9.83940081 23.7441627,10.0952381 23.4285714,10.0952381 L8.95238095,10.0952381 Z M8.95238095,21.9047619 C8.63678967,21.9047619 8.38095238,21.6489246 8.38095238,21.3333333 C8.38095238,21.017742 8.63678967,20.7619048 8.95238095,20.7619048 L23.4285714,20.7619048 C23.7441627,20.7619048 24,21.017742 24,21.3333333 C24,21.6489246 23.7441627,21.9047619 23.4285714,21.9047619 L8.95238095,21.9047619 Z M17.3333333,24.3809524 C17.3333333,25.0118095 16.8220952,25.5238095 16.1904762,25.5238095 C15.5588571,25.5238095 15.047619,25.0118095 15.047619,24.3809524 C15.047619,23.7500952 15.5588571,23.2380952 16.1904762,23.2380952 C16.8220952,23.2380952 17.3333333,23.7500952 17.3333333,24.3809524" id="Mask" fill="#1F2229" fill-rule="nonzero"></path>
    </g>
</svg>