<?xml version="1.0" encoding="UTF-8"?>
<svg width="32px" height="32px" viewBox="0 0 32 32" version="1.1" xmlns="http://www.w3.org/2000/svg" xmlns:xlink="http://www.w3.org/1999/xlink">
    <!-- Generator: Sketch 49.1 (51147) - http://www.bohemiancoding.com/sketch -->
    <title>simcard</title>
    <desc>Created with Sketch.</desc>
    <defs></defs>
    <g id="simcard" stroke="none" stroke-width="1" fill="none" fill-rule="evenodd">
        <path d="M27.2405389,13.7276238 L22.0056638,8.62044109 C21.615378,8.23684888 21.0798936,8 20.4888012,8 L20.4857118,8 L7.40444521,8 C5.5220115,8.01184244 4,9.54106239 4,11.4250408 L4,11.4384279 L4,21.0452244 L4,21.0570668 C4,22.9415601 5.5220115,24.4707801 7.40393032,24.4821076 L24.5919506,24.4821076 C26.4759289,24.4728396 28,22.9431048 28,21.0575817 L28,21.0441946 L28,15.5266455 C27.9979404,14.8217626 27.7075431,14.1848451 27.2405389,13.7276238 L27.2405389,13.7276238 Z M26.4903458,21.0452244 L26.4903458,21.0514031 C26.4903458,22.1043508 25.6402643,22.9585514 24.5888612,22.965245 L7.40444521,22.965245 C6.35149747,22.9595812 5.50038617,22.1048657 5.50038617,21.0514031 L5.50038617,21.0452244 L5.50038617,11.4384279 L5.50038617,11.4317343 C5.50038617,10.3787866 6.35046769,9.52458594 7.40187076,9.51789239 L20.4836523,9.51789239 C20.6690123,9.51789239 20.836866,9.59203639 20.9594096,9.71200549 L26.1999485,14.8207329 C26.3842787,15.000944 26.4990989,15.2516948 26.5001287,15.5292199 L26.5001287,21.0457393 L26.4903458,21.0452244 Z M14.3194027,11.5002145 L8.91924826,11.5002145 C8.50424783,11.5033039 8.16905518,11.8400412 8.16905518,12.2555565 L8.16905518,12.2596756 L8.16905518,20.2244915 L8.16905518,20.2280958 C8.16905518,20.6430962 8.50424783,20.9803484 8.91873337,20.9834377 L14.3188878,20.9834377 C14.7338883,20.9803484 15.0690809,20.6436111 15.0690809,20.2280958 L15.0690809,20.2239767 L15.0690809,12.2591607 L15.0690809,12.2555565 C15.0690809,11.8415859 14.7354329,11.5048485 14.3224921,11.5002145 L14.3194027,11.5002145 Z M13.5697245,19.4655454 L9.66995623,19.4655454 L9.66995623,13.0155325 L13.5697245,13.0155325 L13.5697245,19.4655454 Z" id="Mask" fill="#1F2229" fill-rule="nonzero"></path>
    </g>
</svg>