<?xml version="1.0" encoding="UTF-8"?>
<svg width="32px" height="32px" viewBox="0 0 32 32" version="1.1" xmlns="http://www.w3.org/2000/svg" xmlns:xlink="http://www.w3.org/1999/xlink">
    <!-- Generator: Sketch 49.1 (51147) - http://www.bohemiancoding.com/sketch -->
    <title>websites</title>
    <desc>Created with Sketch.</desc>
    <defs></defs>
    <g id="websites" stroke="none" stroke-width="1" fill="none" fill-rule="evenodd">
        <path d="M23.0696688,13.0024546 L8.5586836,13.0024546 C8.55141065,13.0024546 8.54341041,13.0017273 8.53541016,13.0017273 C8.12448862,13.0017273 7.79138762,13.3348283 7.79138762,13.7457499 C7.79138762,14.1566714 8.12448862,14.4897724 8.53541016,14.4897724 C8.54341041,14.4897724 8.55213794,14.4897724 8.56013819,14.4890451 L23.0703961,14.4890451 C23.077669,14.4890451 23.0856693,14.4897724 23.0936695,14.4897724 C23.504591,14.4897724 23.8376921,14.1566714 23.8376921,13.7457499 C23.8376921,13.3348283 23.504591,13.0017273 23.0936695,13.0017273 C23.0856693,13.0017273 23.0769417,13.0017273 23.0689415,13.0024546 L23.0696688,13.0024546 Z M18.3124337,16.9233007 L8.56232007,16.9233007 L8.53904664,16.9233007 C8.12812509,16.9233007 7.79502409,17.2564017 7.79502409,17.6673233 C7.79502409,18.0782448 8.12812509,18.4113458 8.53904664,18.4113458 C8.54704688,18.4113458 8.55577442,18.4113458 8.56377466,18.4106185 L18.3124337,18.4106185 L18.3357071,18.4106185 C18.7466287,18.4106185 19.0797297,18.0775175 19.0797297,17.666596 C19.0797297,17.2556744 18.7466287,16.9225734 18.3357071,16.9225734 C18.3277069,16.9225734 18.3189794,16.9225734 18.3109791,16.9233007 L18.3124337,16.9233007 Z M24.5540774,4 L7.44446801,4 L7.43574048,4 C5.54404679,4 4.00872754,5.52950089 4,7.4190127 L4,23.844965 C4.00945483,25.7352041 5.54404679,27.2639777 7.43574048,27.2639777 L7.4459226,27.2639777 L24.555532,27.2639777 L24.5635322,27.2639777 C26.4552259,27.2639777 27.9905452,25.7352041 28,23.8456923 L28,7.41973999 C27.9905452,5.5287736 26.4559532,4 24.5635322,4 L24.5540774,4 L24.5540774,4 Z M7.44374072,5.4873178 L24.5533501,5.4873178 L24.5569866,5.4873178 C25.6261099,5.4873178 26.4937725,6.35134398 26.4988636,7.41973999 L26.4988636,8.79359981 L5.49895451,8.79359981 L5.49895451,7.42046729 C5.50404558,6.35207127 6.37170823,5.48804509 7.44083154,5.48804509 L7.44374072,5.48804509 L7.44374072,5.4873178 Z M24.5540774,25.7759326 L7.44446801,25.7759326 L7.44228613,25.7759326 C6.37389012,25.7759326 5.50695476,24.913361 5.49968181,23.8456923 L5.49968181,10.279463 L26.4995909,10.279463 L26.4995909,23.844965 C26.4930452,24.9126337 25.6253826,25.7752053 24.5569866,25.7752053 L24.5540774,25.7752053 L24.5540774,25.7759326 Z" id="Mask" fill="#1F2229" fill-rule="nonzero"></path>
    </g>
</svg>