<?xml version="1.0" encoding="UTF-8"?>
<svg width="32px" height="32px" viewBox="0 0 32 32" version="1.1" xmlns="http://www.w3.org/2000/svg" xmlns:xlink="http://www.w3.org/1999/xlink">
    <!-- Generator: Sketch 49.1 (51147) - http://www.bohemiancoding.com/sketch -->
    <title>wifi</title>
    <desc>Created with Sketch.</desc>
    <defs></defs>
    <g id="wifi" stroke="none" stroke-width="1" fill="none" fill-rule="evenodd">
        <path d="M7.10825832,4.24110527 C2.20606034,9.21819742 2.20606034,17.3172312 7.10825832,22.2947961 C7.38811619,22.5789296 7.38811619,23.0386678 7.10825832,23.3228013 C6.97246228,23.460672 6.79006978,23.5357809 6.60199033,23.5357809 C6.41416455,23.5357809 6.23238766,23.4608478 6.09572233,23.3228013 C0.634759223,17.7784074 0.634759223,8.75749399 6.09572233,3.21310009 C6.3755802,2.92896664 6.82840045,2.92896664 7.10825832,3.21310009 C7.38811619,3.49723353 7.38811619,3.95697182 7.10825832,4.24110527 Z M9.12260521,20.2501566 C9.40246308,20.53429 9.40246308,20.9940283 9.12260521,21.2781618 C8.98671492,21.4161281 8.80474374,21.4911414 8.61633721,21.4911414 C8.42793068,21.4911414 8.24595951,21.4161281 8.11007874,21.2781714 C3.75927356,16.8613886 3.75927356,9.67452342 8.11006922,5.25725773 C8.38992709,4.97312428 8.84274734,4.97312428 9.12260521,5.25725773 C9.40246134,5.54138942 9.40246308,6.00112376 9.12261042,6.28525762 C5.33057587,10.1357016 5.33057761,16.4001956 9.12260521,20.2501566 Z M11.1360028,7.30189727 C11.4153133,7.58620174 11.4153133,8.04607986 11.1360028,8.33038433 C8.45414426,11.0532155 8.45414426,15.4831678 11.1360028,18.2059989 C11.4158607,18.4901324 11.4158607,18.9498707 11.1360028,19.2340041 C11.0001125,19.3719705 10.8181414,19.4469837 10.6297348,19.4469837 C10.4413283,19.4469837 10.2593571,19.3719705 10.1234402,19.2339771 C8.55626876,17.6423666 7.69287939,15.5232495 7.69287939,13.2679507 C7.69287939,11.0124696 8.55639655,8.89290873 10.1234668,7.30189727 C10.4033247,7.01776382 10.856145,7.01776382 11.1360028,7.30189727 Z M24.8917417,4.24110527 C24.6118838,3.95697182 24.6118838,3.49723353 24.8917417,3.21310009 C25.1715996,2.92896664 25.6244198,2.92896664 25.9042777,3.21310009 C31.3652408,8.75749399 31.3652408,17.7784074 25.9042777,23.3228013 C25.7676123,23.4608478 25.5858354,23.5357809 25.3980097,23.5357809 C25.2099302,23.5357809 25.0275377,23.460672 24.8917417,23.3228013 C24.6118838,23.0386678 24.6118838,22.5789296 24.8917417,22.2947961 C29.7939397,17.3172312 29.7939397,9.21819742 24.8917417,4.24110527 Z M22.8773948,20.2501566 C26.6694224,16.4001956 26.6694241,10.1357016 22.8773896,6.28525762 C22.5975369,6.00112376 22.5975387,5.54138942 22.8773948,5.25725773 C23.1572527,4.97312428 23.6100729,4.97312428 23.8899308,5.25725773 C28.2407264,9.67452342 28.2407264,16.8613886 23.8899213,21.2781714 C23.7540405,21.4161281 23.5720693,21.4911414 23.3836628,21.4911414 C23.1952563,21.4911414 23.0132851,21.4161281 22.8773948,21.2781618 C22.5975369,20.9940283 22.5975369,20.53429 22.8773948,20.2501566 Z M20.8639972,7.30189727 C21.143855,7.01776382 21.5966753,7.01776382 21.8765332,7.30189727 C23.4436034,8.89290873 24.3071206,11.0124696 24.3071206,13.2679507 C24.3071206,15.5232495 23.4437312,17.6423666 21.8765598,19.2339771 C21.7406429,19.3719705 21.5586717,19.4469837 21.3702652,19.4469837 C21.1818586,19.4469837 20.9998875,19.3719705 20.8639972,19.2340041 C20.5841393,18.9498707 20.5841393,18.4901324 20.8639972,18.2059989 C23.5458557,15.4831678 23.5458557,11.0532155 20.8639972,8.33038433 C20.5846867,8.04607986 20.5846867,7.58620174 20.8639972,7.30189727 Z M12.4354228,13.3648096 C12.4354228,11.3698508 14.0343307,9.74651535 15.9992698,9.74651535 C17.9645251,9.74651535 19.5631168,11.3696899 19.5631168,13.3648096 C19.5631168,15.0938681 18.3534738,16.5649588 16.7153125,16.9054349 L16.7153125,27.2730178 C16.7153125,27.6748636 16.3950688,28 15.9992698,28 C15.6034708,28 15.283227,27.6748636 15.283227,27.2730178 L15.283227,16.9054349 C13.6450658,16.5649588 12.4354228,15.0938681 12.4354228,13.3648096 Z M15.9997449,15.696138 C17.2778167,15.696138 18.3172684,14.6408058 18.3172684,13.3432081 C18.3172684,12.0456103 17.2778167,10.9902781 15.9997449,10.9902781 C14.7216731,10.9902781 13.6822213,12.0456103 13.6822213,13.3432081 C13.6822213,14.6408058 14.7216731,15.696138 15.9997449,15.696138 Z" id="Mask" fill="#1F2229"></path>
    </g>
</svg>