<?xml version="1.0" encoding="UTF-8"?>
<svg width="32px" height="32px" viewBox="0 0 32 32" version="1.1" xmlns="http://www.w3.org/2000/svg" xmlns:xlink="http://www.w3.org/1999/xlink">
    <!-- Generator: Sketch 49.1 (51147) - http://www.bohemiancoding.com/sketch -->
    <title>attached-file</title>
    <desc>Created with Sketch.</desc>
    <defs></defs>
    <g id="attached-file" stroke="none" stroke-width="1" fill="none" fill-rule="evenodd">
        <path d="M10.9448366,12.3438496 L20.5841194,12.3438496 C20.991941,12.3303555 21.3180484,11.9967514 21.3180484,11.5866808 C21.3180484,11.1766102 20.991941,10.8422565 20.5848691,10.8295121 L10.944087,10.8295121 C10.5355157,10.8430062 10.2101581,11.1766102 10.2101581,11.5866808 C10.2101581,11.9967514 10.5362654,12.3311051 10.9433373,12.3438496 L10.9448366,12.3438496 Z M20.5848691,16.3366027 C21.0031861,16.3366027 21.3420379,15.997751 21.3420379,15.579434 C21.3420379,15.161117 21.0031861,14.8222653 20.5848691,14.8222653 L10.9455863,14.8222653 C10.5272693,14.8222653 10.1884176,15.161117 10.1884176,15.579434 C10.1884176,15.997751 10.5272693,16.3366027 10.9455863,16.3366027 L20.5848691,16.3366027 Z M21.9980009,4.00149934 L9.53245455,4.00149934 C9.51671144,4.00149934 9.49796964,4.00074967 9.47922784,4.00074967 C7.57955894,4.00074967 6.03523458,5.52333354 6,7.41550572 L6,24.5814956 C6.03448491,26.4766665 7.57955894,28 9.47997751,28 C9.49871931,28 9.51671144,28 9.53545324,27.9992503 L18.6387206,27.9992503 L18.6417192,27.9992503 C19.2339601,27.9992503 19.769226,27.7571063 20.1545574,27.3665271 L24.905229,22.5993628 C25.2913101,22.2072843 25.5304554,21.6690198 25.5312051,21.0745299 L25.5312051,7.41700506 C25.4959705,5.52258387 23.9516462,4 22.0519773,4 C22.0332355,4 22.0144937,4 21.9957519,4.00074967 L21.9980009,4.00149934 Z M7.48060224,24.5822453 L7.48060224,7.41925408 C7.52408321,6.35846817 8.39445243,5.51508715 9.46198538,5.51508715 C9.48597489,5.51508715 9.51071406,5.51583682 9.53470357,5.51658649 L21.9972512,5.51658649 C22.0174923,5.51583682 22.0422315,5.51508715 22.066221,5.51508715 C23.133754,5.51508715 24.0041232,6.35846817 24.0476042,7.41550572 L24.0476042,20.25139 L18.9445867,20.25139 C18.5345161,20.2566377 18.2039108,20.5909914 18.2039108,21.0018117 L18.2039108,21.0100581 L18.2039108,26.4879115 L9.53095521,26.4879115 C9.51071406,26.4886612 9.48597489,26.4894109 9.46198538,26.4894109 C8.39370276,26.4894109 7.52333354,25.6452802 7.48060224,24.587493 L7.48060224,24.5822453 Z M19.6882614,25.712001 L19.6882614,21.7649778 L23.6217905,21.7649778 L19.6882614,25.712001 Z" id="Mask" fill="#1F2229" fill-rule="nonzero"></path>
    </g>
</svg>