<?xml version="1.0" encoding="UTF-8"?>
<svg width="32px" height="32px" viewBox="0 0 32 32" version="1.1" xmlns="http://www.w3.org/2000/svg" xmlns:xlink="http://www.w3.org/1999/xlink">
    <!-- Generator: Sketch 49.1 (51147) - http://www.bohemiancoding.com/sketch -->
    <title>calendar</title>
    <desc>Created with Sketch.</desc>
    <defs></defs>
    <g id="calendar" stroke="none" stroke-width="1" fill="none" fill-rule="evenodd">
        <path d="M24.9502762,25.8516538 C25.8940772,25.8516538 26.6740331,25.0572542 26.6740331,24.083698 L26.6740331,9.49806262 C26.6740331,8.52450637 25.8940772,7.73010681 24.9502762,7.73010681 L7.04972376,7.73010681 C6.10592278,7.73010681 5.32596685,8.52450637 5.32596685,9.49806262 L5.32596685,24.083698 C5.32596685,25.0572542 6.10592278,25.8516538 7.04972376,25.8516538 L24.9502762,25.8516538 Z M24.9502762,27.1776206 L7.04972376,27.1776206 C5.36811037,27.1776206 4,25.7841749 4,24.083698 L4,9.49806262 C4,7.79758571 5.36811037,6.40413996 7.04972376,6.40413996 L24.9502762,6.40413996 C26.6318896,6.40413996 28,7.79758571 28,9.49806262 L28,24.083698 C28,25.7841749 26.6318896,27.1776206 24.9502762,27.1776206 Z M9.37016575,3.66298343 C9.37016575,3.29682779 9.66699354,3 10.0331492,3 C10.3993048,3 10.6961326,3.29682779 10.6961326,3.66298343 L10.6961326,9.55616943 C10.6961326,9.92232506 10.3993048,10.2191529 10.0331492,10.2191529 C9.66699354,10.2191529 9.37016575,9.92232506 9.37016575,9.55616943 L9.37016575,3.66298343 Z M20.9944751,3.66298343 C20.9944751,3.29682779 21.2913029,3 21.6574586,3 C22.0236142,3 22.320442,3.29682779 22.320442,3.66298343 L22.320442,9.55616943 C22.320442,9.92232506 22.0236142,10.2191529 21.6574586,10.2191529 C21.2913029,10.2191529 20.9944751,9.92232506 20.9944751,9.55616943 L20.9944751,3.66298343 Z M4.66298343,14.0498416 C4.29682779,14.0498416 4,13.7530138 4,13.3868582 C4,13.0207026 4.29682779,12.7238748 4.66298343,12.7238748 L27.3370166,12.7238748 C27.7031722,12.7238748 28,13.0207026 28,13.3868582 C28,13.7530138 27.7031722,14.0498416 27.3370166,14.0498416 L4.66298343,14.0498416 Z M14.2093481,17.8804125 C13.8431924,17.8804125 13.5463646,17.5835847 13.5463646,17.2174291 C13.5463646,16.8512735 13.8431924,16.5544457 14.2093481,16.5544457 L17.7894586,16.5544457 C18.1556142,16.5544457 18.452442,16.8512735 18.452442,17.2174291 C18.452442,17.5835847 18.1556142,17.8804125 17.7894586,17.8804125 L14.2093481,17.8804125 Z M7.64581215,17.8804125 C7.27965652,17.8804125 6.98282873,17.5835847 6.98282873,17.2174291 C6.98282873,16.8512735 7.27965652,16.5544457 7.64581215,16.5544457 L11.2259227,16.5544457 C11.5920783,16.5544457 11.8889061,16.8512735 11.8889061,17.2174291 C11.8889061,17.5835847 11.5920783,17.8804125 11.2259227,17.8804125 L7.64581215,17.8804125 Z M20.772884,17.8804125 C20.4067283,17.8804125 20.1099006,17.5835847 20.1099006,17.2174291 C20.1099006,16.8512735 20.4067283,16.5544457 20.772884,16.5544457 L24.3529945,16.5544457 C24.7191501,16.5544457 25.0159779,16.8512735 25.0159779,17.2174291 C25.0159779,17.5835847 24.7191501,17.8804125 24.3529945,17.8804125 L20.772884,17.8804125 Z M14.2093481,22.5949613 C13.8431924,22.5949613 13.5463646,22.2981335 13.5463646,21.9319779 C13.5463646,21.5658223 13.8431924,21.2689945 14.2093481,21.2689945 L17.7894586,21.2689945 C18.1556142,21.2689945 18.452442,21.5658223 18.452442,21.9319779 C18.452442,22.2981335 18.1556142,22.5949613 17.7894586,22.5949613 L14.2093481,22.5949613 Z M7.64581215,22.5949613 C7.27965652,22.5949613 6.98282873,22.2981335 6.98282873,21.9319779 C6.98282873,21.5658223 7.27965652,21.2689945 7.64581215,21.2689945 L11.2259227,21.2689945 C11.5920783,21.2689945 11.8889061,21.5658223 11.8889061,21.9319779 C11.8889061,22.2981335 11.5920783,22.5949613 11.2259227,22.5949613 L7.64581215,22.5949613 Z M20.772884,22.5949613 C20.4067283,22.5949613 20.1099006,22.2981335 20.1099006,21.9319779 C20.1099006,21.5658223 20.4067283,21.2689945 20.772884,21.2689945 L24.3529945,21.2689945 C24.7191501,21.2689945 25.0159779,21.5658223 25.0159779,21.9319779 C25.0159779,22.2981335 24.7191501,22.5949613 24.3529945,22.5949613 L20.772884,22.5949613 Z" id="Mask" fill="#1F2229" fill-rule="nonzero"></path>
    </g>
</svg>