<?xml version="1.0" encoding="UTF-8"?>
<svg width="32px" height="32px" viewBox="0 0 32 32" version="1.1" xmlns="http://www.w3.org/2000/svg" xmlns:xlink="http://www.w3.org/1999/xlink">
    <!-- Generator: Sketch 49.1 (51147) - http://www.bohemiancoding.com/sketch -->
    <title>delivery</title>
    <desc>Created with Sketch.</desc>
    <defs>
        <path d="M5.16645489,10.3221093 L14.2649301,10.3221093 C14.6207116,10.3221093 14.9091487,10.0336722 14.9091487,9.67789072 C14.9091487,9.32210928 14.6207116,9.03367217 14.2649301,9.03367217 L5.16645489,9.03367217 C4.81067344,9.03367217 4.52223634,9.32210928 4.52223634,9.67789072 C4.52223634,10.0336722 4.81067344,10.3221093 5.16645489,10.3221093 L5.16645489,10.3221093 Z M4.113723,16.388183 L7.80241423,16.388183 C8.15819568,16.388183 8.44663278,16.0997459 8.44663278,15.7439644 C8.44663278,15.388183 8.15819568,15.0997459 7.80241423,15.0997459 L4.113723,15.0997459 C3.75794155,15.0997459 3.46950445,15.388183 3.46950445,15.7439644 C3.46950445,16.0997459 3.75794155,16.388183 4.113723,16.388183 L4.113723,16.388183 Z M4.63722999,13.3710292 L10.4167726,13.3710292 C10.772554,13.3710292 11.0609911,13.0825921 11.0609911,12.7268107 C11.0609911,12.3710292 10.772554,12.0825921 10.4167726,12.0825921 L4.63722999,12.0825921 C4.28144854,12.0825921 3.99301144,12.3710292 3.99301144,12.7268107 C3.99301144,13.0825921 4.28144854,13.3710292 4.63722999,13.3710292 L4.63722999,13.3710292 Z M28.5444727,13.9491741 L26.1969504,10.9847522 C25.8106734,10.5095299 25.2268107,10.2090216 24.5717916,10.2090216 L24.5419314,10.2090216 L19.9777637,10.2090216 C19.9186785,10.2128335 19.8640407,10.2249047 19.8125794,10.2433291 L19.9123253,9.6931385 C19.9523507,9.50127065 19.9752224,9.28017789 19.9752224,9.05400254 C19.9752224,8.28398983 19.7102922,7.57560356 19.2668361,7.01524778 C18.7522236,6.39580686 17.9726811,6 17.1016518,6 C17.0864041,6 17.0711563,6 17.0552732,6.00063532 L8.59466328,6.00063532 C8.23888183,6.00063532 7.95044473,6.28907243 7.95044473,6.64485388 C7.95044473,7.00063532 8.23888183,7.28907243 8.59466328,7.28907243 L17.0597205,7.28907243 C17.070521,7.28907243 17.0832274,7.2884371 17.0959339,7.2884371 C17.5794155,7.2884371 18.0120712,7.50635324 18.3011436,7.84879288 C18.5565438,8.18297332 18.7090216,8.60355781 18.7090216,9.05908513 C18.7090216,9.20520966 18.6931385,9.34752224 18.6632783,9.48475222 L17.0076239,19.023507 C16.7757306,20.3227446 15.7090216,21.3144854 14.3913596,21.429479 L12.047014,21.4301144 C11.752859,20.0476493 10.5419314,19.025413 9.09212198,19.025413 C9.06162643,19.025413 9.03113088,19.0260483 9.00127065,19.0266836 C7.41232529,19.0730623 6.04320203,19.9853875 5.34688691,21.3081321 C4.70584498,21.0844981 4.26810673,20.4822109 4.26810673,19.7776366 C4.26810673,19.7541296 4.26874206,19.7312579 4.26937738,19.7083863 C4.26937738,19.7102922 4.26937738,19.7083863 4.26937738,19.7064803 C4.26937738,19.3583227 3.9866582,19.0756036 3.63850064,19.0756036 L3.62198221,19.0756036 C3.27700127,19.0857687 3.00063532,19.3684879 3.00063532,19.7160102 L3.00063532,19.7331639 C3,19.7484117 3,19.7681067 3,19.7871665 C3,21.0368488 3.78017789,22.1048285 4.87992376,22.5298602 C4.90025413,22.5457433 4.89517154,22.5533672 4.89326557,22.5622618 C4.85324015,22.7541296 4.82973316,22.974587 4.82973316,23.2007624 C4.82973316,23.9726811 5.09911055,24.6817027 5.54891995,25.2395172 C6.10927573,25.9047014 6.95044473,26.3284625 7.89072427,26.3284625 C7.91550191,26.3284625 7.93964422,26.3284625 7.96442186,26.3278272 C10.0139771,26.2617535 11.6994917,24.7700127 12.0641677,22.8138501 C12.0717916,22.7623888 12.0730623,22.7388818 12.0775095,22.7141042 L18.2814485,22.7141042 C18.2560356,22.8659466 18.2414231,23.0406607 18.2414231,23.2185515 C18.2414231,23.9841169 18.5088945,24.6874206 18.954892,25.2395172 C19.5152478,25.9047014 20.3564168,26.3284625 21.2966963,26.3284625 C21.3202033,26.3284625 21.3437103,26.3284625 21.3672173,26.3278272 C23.4167726,26.2623888 25.1029225,24.7700127 25.4669632,22.8138501 C25.4758577,22.7623888 25.4758577,22.7388818 25.4796696,22.7141042 L27.2141042,22.7141042 C27.5273189,22.7121982 27.7865311,22.4847522 27.8373571,22.1855146 L28.9612452,15.7128335 C28.9860229,15.5889454 29,15.4459975 29,15.2998729 C29,14.7890724 28.8278272,14.3189327 28.5387548,13.9434562 L28.5444727,13.9491741 Z M10.8208386,22.5660737 C10.5387548,23.9358323 9.37992376,24.9637865 7.96696315,25.0419314 C7.94155019,25.043202 7.92121982,25.043202 7.90088945,25.043202 C7.34815756,25.043202 6.85324015,24.7973316 6.51969504,24.4085133 C6.25794155,24.0762389 6.10101652,23.6543837 6.10101652,23.1963151 C6.10101652,23.0520966 6.11689962,22.9110546 6.14612452,22.7757306 C6.42630241,21.4193139 7.58513342,20.3919949 8.9974587,20.3132147 C9.02287166,20.3119441 9.04320203,20.3119441 9.06416773,20.3119441 C9.61689962,20.3119441 10.111817,20.5578145 10.4453621,20.9466328 C10.7071156,21.2789072 10.8640407,21.7007624 10.8640407,22.158831 C10.8640407,22.3030496 10.8487929,22.4440915 10.8189327,22.5794155 L10.8208386,22.5660737 Z M24.2242694,22.5660737 C23.9421855,23.9358323 22.7827192,24.9631512 21.3703939,25.0419314 C21.3449809,25.0425667 21.3252859,25.043202 21.3049555,25.043202 C20.7522236,25.043202 20.2573062,24.7973316 19.9231258,24.4085133 C19.6613723,24.0762389 19.5050826,23.6550191 19.5050826,23.1969504 C19.5050826,23.0520966 19.5209657,22.9110546 19.5501906,22.7757306 C19.8303685,21.4193139 20.9891995,20.3919949 22.4015248,20.3132147 C22.4269377,20.3119441 22.4479034,20.3119441 22.4682338,20.3119441 C23.0203304,20.3119441 23.5152478,20.5578145 23.8487929,20.9466328 C24.1092757,21.2782719 24.2649301,21.6988564 24.2649301,22.1556544 C24.2649301,22.3011436 24.249047,22.4428208 24.2191868,22.5794155 L24.2242694,22.5660737 Z M27.7147395,15.4917408 L26.6836086,21.4282084 L25.4472681,21.4282084 C25.1518424,20.0457433 23.9409149,19.023507 22.4911055,19.023507 C22.4612452,19.023507 22.4307497,19.0241423 22.4008895,19.0247776 C20.7750953,19.0743329 19.3792884,20.0298602 18.7001271,21.4027954 L17.1245235,21.4275731 C17.6880559,20.8449809 18.0876747,20.1010165 18.2477764,19.2719187 L19.6188056,11.3716645 C19.7166455,11.4479034 19.8405337,11.4949174 19.974587,11.4987294 L24.5393901,11.4987294 C24.5495553,11.498094 24.5616264,11.498094 24.5736976,11.498094 C24.8278272,11.498094 25.0546379,11.6124524 25.2064803,11.7928844 L27.5540025,14.7585769 C27.6651842,14.9085133 27.7318933,15.0965693 27.7318933,15.3005083 C27.7318933,15.3684879 27.7242694,15.4345616 27.7102922,15.498094 L27.7147395,15.4917408 Z" id="path-1"></path>
    </defs>
    <g id="delivery" stroke="none" stroke-width="1" fill="none" fill-rule="evenodd">
        <mask id="mask-2" fill="white">
            <use xlink:href="#path-1"></use>
        </mask>
        <use id="Mask" fill="#1F2229" fill-rule="nonzero" xlink:href="#path-1"></use>
    </g>
</svg>