<?xml version="1.0" encoding="UTF-8"?>
<svg width="32px" height="32px" viewBox="0 0 32 32" version="1.1" xmlns="http://www.w3.org/2000/svg" xmlns:xlink="http://www.w3.org/1999/xlink">
    <!-- Generator: Sketch 49.1 (51147) - http://www.bohemiancoding.com/sketch -->
    <title>fast-action-2</title>
    <desc>Created with Sketch.</desc>
    <defs>
        <path d="M10.439879,14.5057705 C10.3891035,14.4930766 10.3303107,14.4857275 10.2701818,14.4857275 C9.92744689,14.4857275 9.63949612,14.7195623 9.55731991,15.0362413 C9.03887491,17.1340729 7.72940042,18.8564327 5.97163134,19.9053485 C5.72109413,20.0529984 5.57945709,20.2841608 5.57945709,20.54806 C5.57945709,20.6863565 5.61820684,20.8159678 5.68568487,20.925536 C5.81529612,21.1353192 6.04779465,21.2749519 6.31236195,21.2749519 C6.45132659,21.2749519 6.58160594,21.2362022 6.69317851,21.1693922 C8.81572977,19.9040123 10.3683924,17.8636373 10.9690136,15.4464542 C10.9950695,15.3322093 11.0024186,15.2734165 11.0024186,15.2132876 C11.0024186,14.8698846 10.7645752,14.5819338 10.4445557,14.5051024 L10.439879,14.5057705 Z M14.3963626,14.2037897 C14.3455871,14.1910958 14.2867944,14.1837467 14.2266654,14.1837467 C13.8839305,14.1837467 13.5959798,14.4175814 13.5138036,14.7342605 C12.9953586,16.832092 11.6858841,18.5537838 9.92811499,19.6026996 C9.67824587,19.7503495 9.53660884,19.9815118 9.53660884,20.245411 C9.53660884,20.3837076 9.57535859,20.5126507 9.64216852,20.622219 C9.77177977,20.8326702 10.0042783,20.9729711 10.2695137,20.9729711 C10.4091464,20.9729711 10.5394258,20.9342213 10.6503303,20.8667433 C12.7728815,19.6020315 14.324876,17.5609883 14.9254972,15.1444734 C14.9515531,15.0302284 14.9589022,14.9714357 14.9589022,14.9113067 C14.9589022,14.5679037 14.7210589,14.279953 14.4010393,14.2031216 L14.3963626,14.2037897 Z M21.0118812,1.97890992 C20.2823169,1.77513966 13.7897285,0 8.48902924,0 C5.58546998,0 3.59787477,0.5217855 2.41266673,1.59542096 C-1.52043344,5.16039846 0.471170365,18.5036763 0.754444439,20.2627816 C0.767138324,20.5607538 0.891404781,20.8273254 1.08582166,21.0237466 C1.30295391,21.2402108 1.60293046,21.3744987 1.93430768,21.3744987 L1.93698008,21.3744987 L1.94700157,21.3744987 C2.44807599,21.3744987 2.8749914,21.0571516 3.03867571,20.6128656 C3.0500334,20.5814649 3.05871869,20.5520686 3.06606778,20.521336 C3.70143015,17.7433794 5.81930471,10.1163586 7.98127383,8.14412963 C10.190678,6.13381904 18.1644423,4.65197495 21.0519672,4.25044731 C21.0867084,4.24577062 21.1167728,4.23975772 21.1461692,4.23174053 C21.6392264,4.09812069 22,3.6498261 22,3.11801911 C22,2.53944518 21.5737527,2.06041803 21.0178941,1.97757373 L21.0118812,1.97890992 Z M2.0077986,18.6860674 C1.86081677,17.5329281 1.70849014,16.1138854 1.60961146,14.5973001 L3.18498944,14.670791 C2.68324692,16.2060831 2.27637449,17.6558584 2.0084667,18.683395 L2.0077986,18.6860674 Z M6.98714217,7.07650706 C5.72643892,8.22430154 4.58265304,10.7216565 3.67336998,13.2337096 L1.52943955,13.1381714 C1.35439755,8.867013 1.6543741,4.25111541 3.3994493,2.66972453 C4.27599549,1.87535454 6.03510076,1.45512013 8.48568875,1.45512013 C10.5835203,1.48852509 12.6098653,1.69095915 14.5814261,2.04906034 L14.2607385,4.09478019 C11.3999376,4.80296538 8.38480576,5.80110563 6.98714217,7.07450276 L6.98714217,7.07650706 Z M15.7505998,3.74670049 L15.8174097,2.27354168 C17.2337801,2.54478997 18.4737723,2.83207264 19.3443056,3.0465325 C18.4143114,3.20219962 17.13891,3.43670245 15.7485955,3.74402809 L15.7505998,3.74670049 Z" id="path-1"></path>
    </defs>
    <g id="fast-action-2" stroke="none" stroke-width="1" fill="none" fill-rule="evenodd">
        <g transform="translate(5.000000, 5.000000)">
            <mask id="mask-2" fill="white">
                <use xlink:href="#path-1"></use>
            </mask>
            <use id="Mask" fill="#1F2229" fill-rule="nonzero" xlink:href="#path-1"></use>
        </g>
    </g>
</svg>