<?xml version="1.0" encoding="UTF-8"?>
<svg width="32px" height="32px" viewBox="0 0 32 32" version="1.1" xmlns="http://www.w3.org/2000/svg" xmlns:xlink="http://www.w3.org/1999/xlink">
    <!-- Generator: Sketch 49.1 (51147) - http://www.bohemiancoding.com/sketch -->
    <title>help-3</title>
    <desc>Created with Sketch.</desc>
    <defs></defs>
    <g id="help-3" stroke="none" stroke-width="1" fill="none" fill-rule="evenodd">
        <path d="M23.9751724,10.1751797 C23.9488401,9.004814 22.9910972,8.06627071 21.8144201,8.06627071 C21.799373,8.06627071 21.7850784,8.06627071 21.7700313,8.06702094 L21.7602508,8.06702094 C21.5097179,8.06702094 21.2689655,8.10828384 21.0440125,8.18405752 L21.0598119,7.654392 C21.0334796,6.48402626 20.0757367,5.54548296 18.8990596,5.54548296 C18.8840125,5.54548296 18.8697179,5.54548296 18.8546708,5.5462332 C18.8554232,5.5462332 18.8546708,5.5462332 18.8531661,5.5462332 C18.5823197,5.5462332 18.3227586,5.59274773 18.0820063,5.6790247 C17.858558,4.70672085 16.9956113,4.00075023 15.9671473,4.00075023 L15.9400627,4.00075023 C15.9287774,4.00075023 15.9144828,4 15.8994357,4 C14.7220063,4 13.7642633,4.93854329 13.737931,6.1059081 L13.737931,6.58830885 C13.525768,6.51928728 13.2812539,6.47802438 13.0277116,6.47577368 C13.0141693,6.47577368 13.000627,6.47502344 12.9863323,6.47502344 C11.8058934,6.47502344 10.8466458,7.41731791 10.8240752,8.58918412 L10.857931,14.2181932 L10.292163,12.5976868 C9.97241379,11.753673 9.16965517,11.164739 8.22846395,11.164739 L8.19987461,11.164739 C7.96363636,11.1669897 7.73567398,11.2030009 7.51974922,11.2667709 C6.9584953,11.4423257 6.49278997,11.8384495 6.22495298,12.3531103 C6.08125392,12.6291966 6,12.9412942 6,13.2728978 C6,13.50397 6.03912226,13.7260394 6.11210031,13.9323539 L8.17278997,20.6402001 C9.68426332,25.6592685 12.310721,28 16.448652,28 C20.6753605,28 23.5689028,25.3666771 24,21.1278525 L24,21.0453267 L23.9751724,10.1751797 Z M16.4516614,26.492779 C13.0247022,26.492779 10.9121003,24.5496718 9.6015047,20.198312 L7.52501567,13.4386996 C7.50695925,13.3899344 7.49642633,13.3336668 7.49642633,13.2751485 C7.49642633,13.1926227 7.51749216,13.1145983 7.55435737,13.046327 C7.63937304,12.8842763 7.78683386,12.7627384 7.96514107,12.7124726 C8.03962382,12.6884651 8.12012539,12.6749609 8.20363636,12.6734605 C8.21266458,12.6734605 8.22169279,12.6727102 8.23147335,12.6727102 C8.52413793,12.6727102 8.7754232,12.8467646 8.88752351,13.0965927 L10.9301567,18.9454204 C11.0347335,19.2380119 11.310094,19.4443264 11.633605,19.4443264 C12.0451411,19.4443264 12.3784326,19.1119725 12.3784326,18.7015942 L12.3784326,18.6895905 L12.3174922,8.58468271 C12.3761755,8.24107534 12.6726019,7.98299469 13.0292163,7.98299469 C13.3858307,7.98299469 13.6822571,8.24107534 13.7401881,8.58018131 L13.7409404,16.5971866 C13.7409404,17.0075649 14.0749843,17.340669 14.4865204,17.340669 C14.8980564,17.340669 15.2321003,17.0075649 15.2321003,16.5971866 L15.2321003,6.10890903 C15.2922884,5.76605189 15.5879624,5.50872148 15.9445768,5.50872148 C16.3011912,5.50872148 16.5968652,5.76605189 16.6563009,6.10440763 L16.6570533,16.6572054 C16.6570533,16.6639575 16.6563009,16.6722101 16.6563009,16.6812129 C16.6563009,17.0923414 16.9903448,17.4254455 17.4026332,17.4254455 C17.8149216,17.4254455 18.1489655,17.0923414 18.1489655,16.6812129 C18.1489655,16.6729603 18.1489655,16.6647077 18.1482132,16.6564551 L18.1482132,7.65514223 C18.2068966,7.31153485 18.5033229,7.0534542 18.8599373,7.0534542 C19.2165517,7.0534542 19.5129781,7.31153485 19.5709091,7.65064083 L19.5716614,16.7929978 C19.5716614,17.2033761 19.9057053,17.5364802 20.3172414,17.5364802 C20.7287774,17.5364802 21.0628213,17.2033761 21.0628213,16.7929978 L21.0628213,10.17593 C21.1230094,9.83307284 21.4186834,9.57574242 21.7752978,9.57574242 C22.1319122,9.57574242 22.4275862,9.83307284 22.4870219,10.1714286 L22.5103448,21.0093154 C22.1469592,24.4453892 19.8831348,26.4935292 16.4478997,26.4935292 L16.4516614,26.492779 Z" id="Mask" fill="#1F2229" fill-rule="nonzero"></path>
    </g>
</svg>