<?xml version="1.0" encoding="UTF-8"?>
<svg width="32px" height="32px" viewBox="0 0 32 32" version="1.1" xmlns="http://www.w3.org/2000/svg" xmlns:xlink="http://www.w3.org/1999/xlink">
    <!-- Generator: Sketch 49.1 (51147) - http://www.bohemiancoding.com/sketch -->
    <title>movies</title>
    <desc>Created with Sketch.</desc>
    <defs>
        <path d="M20.5580087,4.99608167e-16 L3.44255379,4.99608167e-16 C1.54014906,0.00450007031 0,1.54746168 0,3.4498664 L0,3.4498664 L0,14.5498523 L0,14.5498523 C0,16.4528196 1.54014906,17.9957812 3.44199128,17.9997187 L20.5574462,17.9997187 C22.4598509,17.9952187 24,16.4522571 24,14.5498523 L24,14.5498523 L24,3.4498664 L24,3.4498664 C24,1.54689917 22.4598509,0.00393756152 20.5580087,0 L20.5580087,4.99608167e-16 Z M22.5003516,14.5504149 L22.5003516,14.5504149 C22.5003516,15.6248066 21.631838,16.4961328 20.5580087,16.5006328 L3.44255379,16.5006328 C2.36872451,16.4961328 1.50021094,15.6248066 1.50021094,14.5504149 L1.50021094,14.5504149 L1.50021094,3.45042891 L1.50021094,3.45042891 C1.50021094,2.37603713 2.36928702,1.50471101 3.44255379,1.50021094 L20.5580087,1.50021094 C21.631838,1.50471101 22.5003516,2.37603713 22.5003516,3.45042891 L22.5003516,3.45042891 L22.5003516,14.5504149 Z M16.1029391,8.34988047 L8.64801013,4.04275067 C8.54057095,3.97974968 8.41119392,3.94206159 8.27281676,3.94206159 C7.85881029,3.94206159 7.52299255,4.27787934 7.52299255,4.69188581 L7.52299255,13.3067079 C7.52299255,13.5828997 7.67205738,13.824216 7.89424835,13.9541555 C8.00562509,14.0182815 8.13500211,14.0554071 8.27225425,14.0565321 C8.41063142,14.0565321 8.54000844,14.0194066 8.65082267,13.9541555 L16.1023766,9.64927577 C16.3279426,9.5170862 16.47757,9.27576993 16.47757,8.99957812 C16.47757,8.7233863 16.3285051,8.48207003 16.1063142,8.3521305 L16.1029391,8.34988047 Z M9.02264098,12.0078751 L9.02264098,5.99128111 L14.2275348,9.00014063 L9.02264098,12.0078751 Z" id="path-1"></path>
    </defs>
    <g id="movies" stroke="none" stroke-width="1" fill="none" fill-rule="evenodd">
        <g transform="translate(4.000000, 7.000000)">
            <mask id="mask-2" fill="white">
                <use xlink:href="#path-1"></use>
            </mask>
            <use id="Mask" fill="#1F2229" fill-rule="nonzero" xlink:href="#path-1"></use>
        </g>
    </g>
</svg>