<?xml version="1.0" encoding="UTF-8"?>
<svg width="32px" height="32px" viewBox="0 0 32 32" version="1.1" xmlns="http://www.w3.org/2000/svg" xmlns:xlink="http://www.w3.org/1999/xlink">
    <!-- Generator: Sketch 49.1 (51147) - http://www.bohemiancoding.com/sketch -->
    <title>sheets</title>
    <desc>Created with Sketch.</desc>
    <defs>
        <path d="M12.9530817,1.99835494 L12.9530817,5.83792646 L16.7932895,5.93637701 L12.9530817,1.99835494 Z M17.6212218,7.11391262 L12.3602036,6.97903707 C12.0468243,6.97100303 11.79696,6.71469228 11.79696,6.40126189 L11.79696,1.15593016 L2.5193819,1.15593016 C1.79330938,1.15593016 1.15612171,1.79301226 1.15612171,2.51896448 L1.15612171,18.4948826 C1.15612171,19.2208348 1.79330938,19.8579169 2.5193819,19.8579169 L16.2579616,19.8579169 C16.9840341,19.8579169 17.6212218,19.2208348 17.6212218,18.4948826 L17.6212218,7.11391262 Z M7.12941722,21.0138471 L7.12941722,21.4810355 C7.12941722,22.2069877 7.76660489,22.8440698 8.49267741,22.8440698 L20.7379332,22.8440698 C21.4640057,22.8440698 22.1011934,22.2069877 22.1011934,21.4810355 L22.1011934,5.5051174 C22.1011934,4.77916518 21.4640057,4.14208308 20.7379332,4.14208308 L16.6582578,4.14208308 L18.7773435,6.31514419 L18.7773435,18.4948826 C18.7773435,19.8592374 17.6225425,21.0138471 16.2579616,21.0138471 L7.12941722,21.0138471 Z M15.5310391,2.98615292 L20.7379332,2.98615292 C22.1025141,2.98615292 23.2573151,4.14076258 23.2573151,5.5051174 L23.2573151,21.4810355 C23.2573151,22.8453903 22.1025141,24 20.7379332,24 L8.49267741,24 C7.1280965,24 5.97329551,22.8453903 5.97329551,21.4810355 L5.97329551,21.0138471 L2.5193819,21.0138471 C1.15480099,21.0138471 0,19.8592374 0,18.4948826 L0,2.51896448 C0,1.15460966 1.15480099,1.77635684e-15 2.5193819,1.77635684e-15 L12.6190576,1.77635684e-15 L15.5310391,2.98615292 Z M5.65521271,12.7399109 C5.33595851,12.7399109 5.07715185,12.4811471 5.07715185,12.1619458 C5.07715185,11.8427445 5.33595851,11.5839807 5.65521271,11.5839807 L13.1218321,11.5839807 C13.4410863,11.5839807 13.699893,11.8427445 13.699893,12.1619458 C13.699893,12.4811471 13.4410863,12.7399109 13.1218321,12.7399109 L5.65521271,12.7399109 Z M5.65521271,15.0517712 C5.33595851,15.0517712 5.07715185,14.7930074 5.07715185,14.4738061 C5.07715185,14.1546048 5.33595851,13.8958411 5.65521271,13.8958411 L13.1218321,13.8958411 C13.4410863,13.8958411 13.699893,14.1546048 13.699893,14.4738061 C13.699893,14.7930074 13.4410863,15.0517712 13.1218321,15.0517712 L5.65521271,15.0517712 Z" id="path-1"></path>
    </defs>
    <g id="sheets" stroke="none" stroke-width="1" fill="none" fill-rule="evenodd">
        <g transform="translate(4.000000, 3.000000)">
            <mask id="mask-2" fill="white">
                <use xlink:href="#path-1"></use>
            </mask>
            <use id="Mask" fill="#1F2229" fill-rule="nonzero" xlink:href="#path-1"></use>
        </g>
    </g>
</svg>