<?xml version="1.0" encoding="UTF-8"?>
<svg width="32px" height="32px" viewBox="0 0 32 32" version="1.1" xmlns="http://www.w3.org/2000/svg" xmlns:xlink="http://www.w3.org/1999/xlink">
    <!-- Generator: Sketch 49.1 (51147) - http://www.bohemiancoding.com/sketch -->
    <title>bear</title>
    <desc>Created with Sketch.</desc>
    <defs>
        <path d="M8.99876826,8.55534049 L8.99876826,8.54900581 C8.99876826,7.82262889 8.40964279,7.23350343 7.68326588,7.23350343 C6.95688897,7.23350343 6.36776351,7.82262889 6.36776351,8.54900581 C6.36776351,9.27538272 6.95688897,9.86450818 7.68326588,9.86450818 L7.68396973,9.86450818 L7.68678515,9.86450818 C8.41034665,9.86450818 8.99736055,9.27819813 8.99876826,8.55534049 Z M16.3111033,7.2461728 C15.5903572,7.24969206 15.0075664,7.8345944 15.0075664,8.55534049 C15.0075664,9.27819813 15.5938765,9.86450818 16.3167341,9.86450818 C17.0395918,9.86450818 17.6259018,9.27819813 17.6259018,8.55534049 C17.6244941,7.83177899 17.0381841,7.2461728 16.3139187,7.2461728 L16.3103994,7.2461728 L16.3111033,7.2461728 Z M22.3931022,6.90058068 C23.3024811,6.19743093 23.8817526,5.10645786 23.8817526,3.88034489 L23.8817526,3.87049094 C23.8747141,1.74555692 22.1495689,0.0246348759 20.0232272,0.0246348759 C18.4233679,0.0246348759 17.0515573,0.998064403 16.4666549,2.38465599 C15.1286292,1.93137427 13.5949323,1.65405596 11.9971846,1.65405596 C10.3994369,1.65405596 8.86573993,1.93067042 7.44254795,2.43885272 C6.94985043,0.984691184 5.57240894,0 3.96480732,0 C1.83635404,0 0.111208869,1.72514517 0.111208869,3.85359845 C0.111208869,5.08815766 0.691888087,6.18687313 1.59493225,6.89213444 C0.607425655,8.35544607 0.00915009678,10.153792 0,12.091501 C0,17.8518388 5.38377617,22.5345768 12,22.5345768 C18.6162238,22.5345768 24,17.8518388 24,12.0936125 C23.990146,10.153792 23.3918705,8.35614992 22.3740982,6.86679571 L22.3931022,6.90058068 Z M20.0218195,1.51961992 L20.023931,1.51961992 C21.3239486,1.51961992 22.3790252,2.5711772 22.3832483,3.87049094 C22.3790252,4.61727961 22.0235791,5.27960584 21.4738694,5.701918 C20.461728,4.59123702 19.2581383,3.67622734 17.9081471,3.0124934 C18.2002463,2.11648777 19.0392398,1.51891607 20.0183002,1.51891607 L20.0232272,1.51891607 L20.0218195,1.51961992 Z M3.97184586,1.51961992 C4.95161007,1.52102763 5.79130741,2.11719162 6.1509766,2.96603906 C4.73341545,3.67833891 3.52560267,4.59686785 2.52542671,5.70684498 C1.96234383,5.28382896 1.61041703,4.6158719 1.61041703,3.86556396 C1.61041703,2.56976949 2.6605666,1.51961992 3.95636108,1.51961992 L3.97395742,1.51961992 L3.97184586,1.51961992 Z M11.9985923,21.0417033 C6.20798874,21.0417033 1.49850431,17.0269224 1.49850431,12.0929087 C1.49850431,7.15889495 6.2101003,3.14411402 11.9985923,3.14411402 C17.7870843,3.14411402 22.4986803,7.15889495 22.4986803,12.0929087 C22.4986803,17.0269224 17.7891958,21.0417033 11.9985923,21.0417033 Z M14.7555868,11.2919233 L9.2423016,11.2919233 L9.24019004,11.2919233 C8.82773183,11.2919233 8.49410523,11.6262537 8.49410523,12.0380081 C8.49410523,12.1752595 8.53140947,12.3040648 8.59546014,12.4145698 L11.2482844,16.9917297 L11.2482844,18.3973254 C11.2482844,18.8111913 11.5840225,19.1476333 11.9985923,19.1476333 C12.4131621,19.1476333 12.7489002,18.8118951 12.7489002,18.3973254 L12.7489002,16.9917297 L15.4052437,12.4110505 C15.4678867,12.3040648 15.5051909,12.1752595 15.5051909,12.0380081 C15.5051909,11.6255499 15.1708605,11.2919233 14.7591061,11.2919233 L14.754883,11.2919233 L14.7555868,11.2919233 Z M11.9985923,15.3010734 L10.5395038,12.7847968 L13.4576808,12.7847968 L11.9985923,15.3010734 Z" id="path-1"></path>
    </defs>
    <g id="bear" stroke="none" stroke-width="1" fill="none" fill-rule="evenodd">
        <g transform="translate(4.000000, 5.000000)">
            <mask id="mask-2" fill="white">
                <use xlink:href="#path-1"></use>
            </mask>
            <use id="Mask" fill="#1F2229" fill-rule="nonzero" xlink:href="#path-1"></use>
        </g>
    </g>
</svg>