<?xml version="1.0" encoding="UTF-8"?>
<svg width="32px" height="32px" viewBox="0 0 32 32" version="1.1" xmlns="http://www.w3.org/2000/svg" xmlns:xlink="http://www.w3.org/1999/xlink">
    <!-- Generator: Sketch 49.1 (51147) - http://www.bohemiancoding.com/sketch -->
    <title>frog</title>
    <desc>Created with Sketch.</desc>
    <defs>
        <path d="M9.90754087,12.2355423 C9.58692213,12.3860081 9.36895764,12.7059237 9.36895764,13.0771665 C9.36895764,13.5890315 9.78379329,14.0038671 10.2956583,14.0038671 C10.8075233,14.0038671 11.2223589,13.5890315 11.2223589,13.0771665 L11.2223589,13.0764634 C11.083846,12.5786606 10.6345579,12.2193707 10.1015996,12.2193707 C10.0326947,12.2193707 9.9658991,12.2249956 9.90050976,12.2369485 L9.90754087,12.2355423 Z M14.0903498,12.2355423 C13.7697311,12.3860081 13.5517666,12.7059237 13.5517666,13.0771665 C13.5517666,13.5890315 13.9666022,14.0038671 14.4784672,14.0038671 C14.9903322,14.0038671 15.4051679,13.5890315 15.4051679,13.0771665 L15.4051679,13.0764634 C15.2666549,12.5786606 14.8173668,12.2193707 14.2844085,12.2193707 C14.2155036,12.2193707 14.148708,12.2249956 14.0833187,12.2369485 L14.0903498,12.2355423 Z M4.16171559,5.93566532 C4.88029531,5.93074354 5.4603621,5.3478643 5.4603621,4.62858147 C5.4603621,3.9064862 4.87537353,3.32149763 4.15327826,3.32149763 C3.43118298,3.32149763 2.84619441,3.9064862 2.84619441,4.62858147 L2.84619441,4.62928458 C2.85041308,5.34997363 3.43540165,5.93285287 4.15749692,5.93285287 L4.1624187,5.93285287 L4.16171559,5.93566532 Z M19.8361751,5.93566532 C20.5547548,5.93144665 21.1362278,5.3478643 21.1362278,4.62858147 C21.1362278,3.9064862 20.5512392,3.32149763 19.829144,3.32149763 C19.1070487,3.32149763 18.5220601,3.9064862 18.5220601,4.62858147 L18.5220601,4.62928458 C18.5262788,5.34997363 19.1112674,5.93285287 19.8326595,5.93285287 L19.8347689,5.93285287 L19.8361751,5.93566532 Z M22.8574442,7.66039726 C23.5282123,6.86095975 23.9360169,5.82105818 23.9360169,4.6862366 L23.9360169,4.68272104 C23.9149235,2.09245913 21.8105115,0 19.216734,0 C17.5918439,0 16.1589031,0.82123396 15.3102478,2.07066268 C14.3090174,1.83512041 13.1713834,1.69027949 12,1.69027949 C10.8286166,1.69027949 9.6909826,1.83512041 8.60397258,2.10792758 C7.84039374,0.821937072 6.40745298,0.00140622253 4.78326595,0.00140622253 C2.18948849,0.00140622253 0.0850764634,2.09316224 0.0639831253,4.68201793 L0.0639831253,4.68483037 C0.0639831253,5.82035507 0.471084549,6.86025664 1.14677448,7.66813148 C0.428194762,8.94076288 0.00632800141,10.4672174 0,12.0914045 C0,17.8365266 5.38372297,22.508701 12,22.508701 C18.616277,22.508701 24,17.8365266 24,12.0928107 C23.9929689,10.4658112 23.570399,8.93865354 22.8328353,7.61047636 L22.8574442,7.66039726 Z M19.2209527,1.48848655 C20.9766216,1.50043944 22.3955001,2.92634909 22.3955001,4.68412726 C22.3955001,6.44893654 20.9646687,7.87976797 19.1998594,7.87976797 C17.4350501,7.87976797 16.0042187,6.44893654 16.0042187,4.68412726 L16.0042187,4.68342415 C16.0112498,2.91650554 17.4448937,1.48637722 19.2132185,1.48637722 L19.2195465,1.48637722 L19.2209527,1.48848655 Z M4.77904728,1.48848655 C6.53541923,1.49973633 7.95429777,2.92634909 7.95429777,4.68412726 C7.95429777,6.44893654 6.52346634,7.87976797 4.75865706,7.87976797 C2.99384778,7.87976797 1.56301635,6.44893654 1.56301635,4.68412726 L1.56301635,4.68342415 C1.57004746,2.91650554 3.00439445,1.48637722 4.77271928,1.48637722 L4.77764106,1.48637722 L4.77904728,1.48848655 Z M11.9992969,21.0202144 C7.31235718,21.0202144 3.33555985,18.3955001 1.98839866,14.78643 C4.23835472,16.2910881 7.93039198,17.2255229 12.0119529,17.2255229 C16.0618738,17.2255229 19.7419582,16.2995254 22.0010547,14.8096326 C20.6440499,18.4060468 16.6749868,21.0202144 11.9992969,21.0202144 L11.9992969,21.0202144 Z M22.4854983,12.3621023 C22.4763579,12.3733521 22.4637019,12.3782739 22.4552645,12.3909299 C21.0968536,14.3610476 16.8015468,15.7370364 12.0119529,15.7370364 C7.18509404,15.7370364 2.88205308,14.3490947 1.54895412,12.3621023 C1.53840745,12.3466339 1.52223589,12.3388996 1.51098611,12.3248374 C1.51098611,12.2496045 1.497627,12.1750747 1.497627,12.09492 C1.50676745,10.8447882 1.80769907,9.66777993 2.33714185,8.62506592 C3.01845667,9.10669713 3.86992442,9.36614519 4.78256284,9.36614519 C7.37493408,9.36614519 9.478643,7.27227984 9.49481455,4.68412726 C9.49270522,4.24819828 9.43153454,3.82844085 9.31903674,3.43047987 C10.1304271,3.27860784 11.0529091,3.17243804 12,3.17243804 C12.9470909,3.17243804 13.8695729,3.27860784 14.7568993,3.47899455 C14.5684655,3.82844085 14.5072948,4.24749517 14.5058886,4.68131482 C14.521357,7.27227984 16.6250659,9.36614519 19.2174372,9.36614519 C20.1300756,9.36614519 20.9815433,9.10669713 21.7036386,8.65740903 C22.1951134,9.6663737 22.496045,10.8440851 22.5002637,12.0921076 C22.5002637,12.1814027 22.4890139,12.2721041 22.4862014,12.3628054 L22.4854983,12.3621023 Z" id="path-1"></path>
    </defs>
    <g id="frog" stroke="none" stroke-width="1" fill="none" fill-rule="evenodd">
        <g transform="translate(4.000000, 5.000000)">
            <mask id="mask-2" fill="white">
                <use xlink:href="#path-1"></use>
            </mask>
            <use id="Mask" fill="#1F2229" fill-rule="nonzero" xlink:href="#path-1"></use>
        </g>
    </g>
</svg>