<?xml version="1.0" encoding="UTF-8"?>
<svg width="32px" height="32px" viewBox="0 0 32 32" version="1.1" xmlns="http://www.w3.org/2000/svg" xmlns:xlink="http://www.w3.org/1999/xlink">
    <!-- Generator: Sketch 49.1 (51147) - http://www.bohemiancoding.com/sketch -->
    <title>hamster </title>
    <desc>Created with Sketch.</desc>
    <defs>
        <path d="M7.68603703,7.55607313 C6.97752416,7.56655409 6.40666123,8.14300687 6.40666123,8.85361593 C6.40666123,9.57051357 6.98730639,10.1511587 7.70420403,10.1511587 C8.42110167,10.1511587 9.00174683,9.57051357 9.00174683,8.85361593 C8.99685571,8.13601956 8.41341563,7.55607313 7.69512053,7.55607313 L7.6853383,7.55607313 L7.68603703,7.55607313 Z M16.311168,7.55607313 C15.6026552,7.56655409 15.0317922,8.14300687 15.0317922,8.85361593 C15.0317922,9.57051357 15.6124374,10.1511587 16.329335,10.1511587 C17.0462327,10.1511587 17.6268778,9.57051357 17.6268778,8.85361593 C17.6219867,8.13601956 17.0385466,7.55607313 16.3202515,7.55607313 L16.3132642,7.55607313 L16.311168,7.55607313 Z M22.2329102,6.67078141 C22.4523116,6.35775009 22.6346803,5.99720508 22.7632468,5.6122045 C23.0588098,4.78141376 23.6415512,2.76347968 22.8387097,1.32968441 C22.4753697,0.693839525 21.8618842,0.236869687 21.1352044,0.0908349831 C20.850821,0.0321416094 20.5426808,7.75746844e-17 20.2268545,7.75746844e-17 C19.2926517,7.75746844e-17 18.4234308,0.280889717 17.7002446,0.763013858 C17.123093,1.12286014 16.6402702,1.61895889 16.2964947,2.20659136 C15.0087341,1.76918598 13.5351112,1.5050658 12,1.5050658 C10.4648888,1.5050658 8.99126587,1.76918598 7.62245254,2.25480377 C7.35972982,1.61965762 6.87760568,1.12286014 6.30115291,0.763013858 C5.57656923,0.280889717 4.70734832,0 3.77314545,0 C3.4573192,0 3.14917899,0.0321416094 2.85151974,0.092931175 C2.13881449,0.236869687 1.52463026,0.693140794 1.1675789,1.31570979 C0.358448818,2.76138349 0.940491441,4.77792011 1.22766973,5.58146035 C1.36531967,5.99650635 1.5483871,6.35705136 1.77617329,6.68335857 C0.670082683,8.22964947 0.0104809596,10.1665308 0,12.2571329 C0,15.084197 0,20.3428438 7.75241644,20.3428438 C8.0479795,20.3407476 8.33725399,20.3204845 8.6202399,20.2820543 C9.23791778,21.527891 10.5193898,22.3607779 11.9951089,22.3607779 C13.4645394,22.3607779 14.7404216,21.535577 15.3860487,20.3232794 C15.6061488,20.326773 15.8514033,20.3414464 16.0994527,20.3428438 C24,20.3428438 24,15.084197 24,12.2599278 C23.989519,10.1672295 23.3292186,8.2303482 22.2112496,6.6386398 L22.2329102,6.67078141 Z M18.5296378,1.99417724 C19.0047747,1.67066496 19.5917084,1.4778153 20.2233609,1.4778153 C20.4238966,1.4778153 20.6202399,1.49737976 20.8095959,1.53441248 C21.1086526,1.58332363 21.3734715,1.77477582 21.5250961,2.03889601 C21.8695703,2.65517643 21.8038896,3.85000582 21.3594969,5.08815652 C21.3147782,5.21392803 21.2742518,5.31314778 21.2358216,5.4025853 C20.2457203,4.34261092 19.0725515,3.46780016 17.7645278,2.82636544 C17.9182485,2.472109 18.1963433,2.20379644 18.5184581,1.99836963 L18.5296378,1.99417724 Z M2.47280773,2.04448585 C2.62652847,1.77477582 2.89064865,1.58332363 3.20228252,1.53231629 C3.37836264,1.49807849 3.57400722,1.47851403 3.77384418,1.47851403 C4.40619541,1.47851403 4.99382788,1.67136369 5.48084313,2.00116455 C5.80295796,2.20659136 6.08105275,2.47420519 6.29835798,2.78653779 C4.92674974,3.46849889 3.75427973,4.34330965 2.76976825,5.39629673 C2.72504949,5.31454524 2.68452312,5.21462676 2.63910562,5.08885525 C2.19541167,3.84860836 2.12903226,2.65308024 2.47420519,2.04238966 L2.47280773,2.04448585 Z M11.9979038,20.8850588 L11.9874228,20.8850588 C11.2188191,20.8850588 10.536858,20.5119366 10.1134273,19.9368813 C10.801677,19.6811459 11.4011878,19.3716082 11.9517876,18.9949924 C12.4786305,19.3939676 13.1151741,19.7181786 13.7936416,19.9543496 C13.4177245,20.52661 12.7504367,20.8808664 12,20.8829626 L11.9979038,20.8850588 Z M16.0994527,18.866426 C15.0024456,18.8566438 13.9795039,18.5464074 13.1067893,18.0146733 C13.7237685,17.4591825 14.2303482,16.8072668 14.635612,16.0910679 C14.7145685,15.9471294 14.7481076,15.8248515 14.7481076,15.6955864 C14.7481076,15.4160941 14.5915919,15.1729358 14.3617096,15.0485618 C14.2548038,14.9905671 14.1325259,14.9577268 14.002562,14.9577268 C13.7202748,14.9577268 13.4736229,15.112845 13.3443578,15.3427274 C12.9544661,16.0351694 12.4835216,16.6248981 11.9329219,17.1279842 C11.3739373,16.6269943 10.9043904,16.0400606 10.5361593,15.3895423 C10.3880284,15.1198323 10.1420752,14.9640154 9.85978805,14.9640154 C9.72912542,14.9640154 9.6054501,14.9975544 9.49854431,15.0562478 C9.2679632,15.1799231 9.11144754,15.4230814 9.11144754,15.7025737 C9.11144754,15.8325376 9.14498661,15.9541167 9.20437871,16.0603237 C9.62780948,16.8114592 10.132293,17.4598812 10.7178293,18.0244556 C9.87376266,18.5436124 8.85151974,18.8538488 7.75800629,18.8636311 C1.50087341,18.8636311 1.50087341,15.2022825 1.50087341,12.2599278 C1.50087341,7.14312333 6.21241411,2.98078491 12.0006987,2.98078491 C17.7889833,2.98078491 22.500524,7.14312333 22.500524,12.2599278 C22.500524,15.2022825 22.500524,18.8636311 16.1015489,18.8636311 L16.0994527,18.866426 Z" id="path-1"></path>
    </defs>
    <g id="hamster-" stroke="none" stroke-width="1" fill="none" fill-rule="evenodd">
        <g id="hamster" transform="translate(4.000000, 5.000000)">
            <mask id="mask-2" fill="white">
                <use xlink:href="#path-1"></use>
            </mask>
            <use id="Mask" fill="#1F2229" fill-rule="nonzero" xlink:href="#path-1"></use>
        </g>
    </g>
</svg>