<?xml version="1.0" encoding="UTF-8"?>
<svg width="32px" height="32px" viewBox="0 0 32 32" version="1.1" xmlns="http://www.w3.org/2000/svg" xmlns:xlink="http://www.w3.org/1999/xlink">
    <!-- Generator: Sketch 49.1 (51147) - http://www.bohemiancoding.com/sketch -->
    <title>penguin</title>
    <desc>Created with Sketch.</desc>
    <defs>
        <path d="M10.3480358,12.191988 C10.3374225,11.4832823 9.75444521,10.912568 9.03652653,10.912568 C8.31254307,10.912568 7.72501723,11.4937816 7.72501723,12.2099869 C7.72501723,12.9261921 8.31178498,13.5074058 9.03652653,13.5074058 C9.76202619,13.503656 10.3480358,12.9209424 10.3480358,12.2032373 L10.3480358,12.191238 L10.3480358,12.191988 Z M14.2749828,12.191988 C14.2643694,11.4832823 13.6813921,10.912568 12.9634735,10.912568 C12.23949,10.912568 11.6519642,11.4937816 11.6519642,12.2099869 C11.6519642,12.9261921 12.2387319,13.5074058 12.9634735,13.5074058 C13.6889731,13.5014062 14.2749828,12.9179426 14.2749828,12.1987376 L14.2749828,12.191238 L14.2749828,12.191988 Z M13.7518952,15.3192925 L8.24810476,15.3192925 C7.95017229,15.3192925 7.69393522,15.4932817 7.57567195,15.7430161 C7.52942798,15.8412599 7.50365265,15.9500031 7.50365265,16.0654959 C7.50365265,16.2462346 7.56733287,16.4127242 7.67346657,16.543966 L10.4238456,19.9172552 C10.5595451,20.0859946 10.767264,20.192488 11,20.192488 C11.232736,20.192488 11.4404549,20.0852447 11.5746382,19.9187551 L14.3272915,16.5424661 C14.4326671,16.4127242 14.4963473,16.2469846 14.4963473,16.0654959 C14.4963473,15.9500031 14.470572,15.84051 14.424328,15.7422661 C14.3045486,15.4940316 14.0483115,15.3215424 13.7518952,15.3185426 L13.7518952,15.3192925 Z M11,18.2568589 L9.82494831,16.8176989 L12.1750517,16.8176989 L11,18.2568589 Z M17.4210889,6.56133992 C17.3915231,6.34385351 17.2702274,6.15936504 17.0973811,6.04387226 C16.9783598,5.96212737 16.8343212,5.91413037 16.678153,5.91413037 C16.6129566,5.91413037 16.5500345,5.92237985 16.4901447,5.93812887 L11.1281185,7.29929379 L5.76078567,5.93662896 C5.70544452,5.9216299 5.6425224,5.91338041 5.57732598,5.91338041 C5.4287388,5.91338041 5.29000689,5.9568777 5.17477602,6.03187301 C5.00572019,6.13911631 4.88366644,6.31160552 4.84500345,6.51409287 C4.66988284,7.41853634 3.80565127,11.9587526 4.02549966,13.1931754 C4.08690558,13.5449034 4.39241902,13.8088869 4.76085458,13.8096369 C4.80709855,13.8096369 4.85106823,13.8051372 4.89427981,13.7976376 C5.24376292,13.7308918 5.50758098,13.4264108 5.50758098,13.0611837 C5.50758098,13.0139366 5.50303239,12.9681895 5.49469331,12.9239423 C5.56292212,10.9980626 5.80248105,9.16217736 6.20048243,7.3855384 L10.9461751,8.79995 C11.0007581,8.81494907 11.0636802,8.82319855 11.1281185,8.82319855 C11.1925569,8.82319855 11.255479,8.81494907 11.3153687,8.79920005 L16.0481737,7.60077495 C16.306685,9.19067558 16.4711923,11.0468096 16.5022743,12.9344416 C16.4984838,12.9966877 16.4962095,13.0304356 16.4962095,13.0641835 C16.4962095,13.4736579 16.8320469,13.8051372 17.2452102,13.8051372 C17.6250172,13.8051372 17.9381116,13.5261546 17.987388,13.1639273 C18.1473467,11.9137554 17.4953825,7.10505593 17.4195727,6.56058996 L17.4210889,6.56133992 Z M11,0 C4.93521709,0 0,5.38316355 0,11.99925 C0,15.8142616 1.69813921,19.2497969 3.1233632,21.4599088 C3.6904204,22.3261046 4.23928325,23.0663084 4.8268091,23.7742641 C4.92839421,23.8957565 5.13535493,24 5.36657478,24 L5.36809097,24 L16.6713301,24 C16.90255,23.9985001 17.1095107,23.8935067 17.2467264,23.7300169 C17.793315,23.0685582 18.3353549,22.3313543 18.8341833,21.5641522 C20.7210889,18.8028248 21.8627843,15.5457784 22,12.0337479 C22.0007581,5.38166365 17.065541,5.32873747e-15 11.0007581,5.32873747e-15 L11,0 Z M17.6333563,20.6597088 C17.2239835,21.2986688 16.7767057,21.9166302 16.314266,22.5023436 L5.71605789,22.5023436 C5.24603722,21.9106306 4.79875948,21.2881695 4.38180565,20.6462096 C3.06271537,18.6055872 1.49345279,15.4497844 1.49345279,12 C1.49345279,6.2096119 5.75396278,1.50065621 11,1.50065621 C16.2460372,1.50065621 20.5065472,6.21186176 20.5065472,12 C20.3640248,15.2450472 19.3102688,18.2216111 17.5954514,20.7167052 L17.6333563,20.6597088 Z" id="path-1"></path>
    </defs>
    <g id="penguin" stroke="none" stroke-width="1" fill="none" fill-rule="evenodd">
        <g transform="translate(5.000000, 4.000000)">
            <mask id="mask-2" fill="white">
                <use xlink:href="#path-1"></use>
            </mask>
            <use id="Mask" fill="#1F2229" fill-rule="nonzero" xlink:href="#path-1"></use>
        </g>
    </g>
</svg>