<?xml version="1.0" encoding="UTF-8"?>
<svg width="32px" height="32px" viewBox="0 0 32 32" version="1.1" xmlns="http://www.w3.org/2000/svg" xmlns:xlink="http://www.w3.org/1999/xlink">
    <!-- Generator: Sketch 49.1 (51147) - http://www.bohemiancoding.com/sketch -->
    <title>toucan</title>
    <desc>Created with Sketch.</desc>
    <defs>
        <path d="M15.4686375,5.87503584 L15.4686375,5.87203688 C15.4686375,5.14179013 14.8706236,4.55024528 14.1323909,4.55024528 C13.3941582,4.55024528 12.7961443,5.14179013 12.7961443,5.87203688 C12.7961443,6.60228362 13.3941582,7.19382847 14.1323909,7.19382847 L14.1346647,7.19382847 C14.8713815,7.19382847 15.4678796,6.6037831 15.4686375,5.87503584 Z M23.9939365,11.9546774 C23.9977262,11.8444656 24,11.7147606 24,11.5843058 C24,8.33343325 22.6857336,5.38545563 20.5544089,3.23295213 C18.5792196,1.33536022 15.9090002,0.132027545 12.9560694,0.0293131674 C12.6824534,0.0113194077 12.439155,7.33079097e-05 12.2064677,7.33079097e-05 C12.164781,7.33079097e-05 12.1261261,0.00457174783 12.0851974,0.00457174783 C12.0321417,0.00457174783 11.9821177,-0.000676432076 11.929062,7.33079097e-05 C11.9101135,7.33079097e-05 11.8941968,0.0105696677 11.8752483,0.0120691477 C5.09472514,0.136525985 0.344720824,4.01118223 0.016533196,9.74594339 C-0.219185863,13.8597667 2.07964341,17.8431352 6.01562114,20.1388391 C6.12703819,20.2063157 6.26195134,20.2460519 6.40671771,20.2460519 C6.82510009,20.2460519 7.16465681,19.9101684 7.16465681,19.4963119 C7.16465681,19.4265861 7.1548036,19.3591095 7.137371,19.2953816 C6.97441409,18.685843 6.39383275,14.8381774 7.78389305,12.6002035 C8.06281464,12.1466108 8.43951037,11.776989 8.88745237,11.5130805 C8.77300357,14.994873 9.19365977,18.6730974 12.4444605,21.8804851 C12.5642149,21.9981942 12.6885169,22.111405 12.8158507,22.2223665 C12.1223364,22.3385762 11.3863776,22.4307942 10.5958471,22.4885242 C10.1888338,22.503519 9.86443587,22.8334046 9.86443587,23.2382642 C9.86443587,23.6528704 10.2039926,23.9887539 10.6231329,23.9887539 C10.6329861,23.9887539 10.6420814,23.9887539 10.6519346,23.9880042 L10.7072641,23.9880042 C12.1829716,23.8867893 13.5510516,23.6641165 14.8736553,23.3267335 C15.8748929,23.7660811 17.2118975,24 18.6042316,24 C18.7618829,24 18.9187763,23.997001 19.0749118,23.9910031 C19.2325631,23.9917529 19.4190161,23.9917529 19.6092588,23.9857549 C20.0246094,23.9812565 20.3596185,23.6476222 20.3596185,23.236015 C20.3596185,22.8221585 20.0200618,22.486275 19.6016794,22.486275 L19.5933421,22.486275 L19.5774254,22.486275 C19.419774,22.4907734 19.2348369,22.4937724 19.0491418,22.4937724 C18.4776557,22.4937724 17.9129911,22.4675315 17.3551479,22.4172989 C22.9275162,19.9071694 23.9643769,15.09009 23.9962103,11.9539276 L23.9939365,11.9546774 Z M8.97461537,9.70545743 C8.97461537,9.73919573 8.96779392,9.77593299 8.9655201,9.81491946 C7.90667918,10.1815423 7.04641831,10.8870476 6.49615452,11.797232 C5.35242443,13.6423421 5.26374556,16.1667166 5.40169047,17.901615 C3.03843637,16.1067374 1.53013757,13.310957 1.53013757,10.1672973 C1.53013757,10.0503378 1.53241139,9.93337838 1.53620108,9.81716868 C1.8196703,4.8561392 5.87995004,1.61201428 11.9085976,1.51154912 C10.3927194,3.56733616 9.37632309,6.07296719 9.08451654,8.79227412 C9.07845302,8.87399578 9.06708394,8.88599162 9.066326,8.90098642 L9.05495691,9.05093442 C9.02691317,9.26311084 8.99583766,9.47678673 8.97385743,9.70245847 L8.97461537,9.70545743 Z M10.5662875,9.22937254 C10.8239868,6.29713945 11.9934868,3.67454898 13.7905604,1.59851896 C16.0143537,1.87967145 17.9842374,2.85583291 19.4849568,4.30583005 C20.78937,5.60662892 21.7330042,7.26655325 22.1521445,9.12215972 C19.5925842,9.48203491 17.3733385,10.7753364 15.8809564,12.659433 C14.5333407,14.4003292 13.7314411,16.5835721 13.7314411,18.9520007 C13.7314411,19.7647188 13.8261835,20.5556945 14.0042992,21.3144314 C13.8193621,21.1052539 13.6655004,20.966552 13.5192182,20.8218522 C10.0031387,17.3490566 10.2570483,13.2277359 10.5678033,9.22712332 L10.5662875,9.22937254 Z M15.6596382,21.508614 C15.4042127,20.7288844 15.2564146,19.8314457 15.2564146,18.8995189 C15.2564146,16.9029613 15.9332542,15.0630994 17.0724367,13.5921095 C18.3313735,11.9921644 20.2231895,10.897544 22.3780103,10.6771204 C22.4492566,11.0324972 22.4712368,11.4478532 22.4712368,11.8684573 L22.4712368,11.9479297 C22.4363716,15.4552134 21.0986091,19.5982765 15.6603961,21.5063648 L15.6596382,21.508614 Z" id="path-1"></path>
    </defs>
    <g id="toucan" stroke="none" stroke-width="1" fill="none" fill-rule="evenodd">
        <g transform="translate(4.000000, 4.000000)">
            <mask id="mask-2" fill="white">
                <use xlink:href="#path-1"></use>
            </mask>
            <use id="Mask" fill="#1F2229" fill-rule="nonzero" xlink:href="#path-1"></use>
        </g>
    </g>
</svg>