<?xml version="1.0" encoding="UTF-8"?>
<svg width="32px" height="32px" viewBox="0 0 32 32" version="1.1" xmlns="http://www.w3.org/2000/svg" xmlns:xlink="http://www.w3.org/1999/xlink">
    <!-- Generator: Sketch 49.1 (51147) - http://www.bohemiancoding.com/sketch -->
    <title>user</title>
    <desc>Created with Sketch.</desc>
    <defs>
        <path d="M15.9322128,6.32851064 C15.9322128,3.60892138 13.7280535,1.40425532 11.0088936,1.40425532 C8.28892429,1.40425532 6.0846383,3.60879468 6.0846383,6.32851064 C6.0846383,9.04801184 8.28870959,11.2518298 11.0088936,11.2518298 C13.7282682,11.2518298 15.9322128,9.04788518 15.9322128,6.32851064 Z M14.444648,11.6431162 C17.3218156,12.3494102 19.7659646,13.9465266 21.1882637,16.2451635 C21.6475463,16.9880032 22,18.0589784 22,18.9669957 C22,21.6835303 19.7978485,23.8725277 17.0757447,23.8725277 L4.92331915,23.8725277 C2.20198337,23.8725277 0,21.6833622 0,18.9669957 C0,18.0587099 0.352035798,16.987165 0.811009197,16.2448256 C2.23605,13.9428905 4.68505105,12.34465 7.56765372,11.6400039 C5.82973605,10.5121929 4.68038298,8.55476912 4.68038298,6.32851064 C4.68038298,2.83328201 7.51333936,0 11.0088936,0 C14.5036745,0 17.3364681,2.83344484 17.3364681,6.32851064 C17.3364681,8.55674154 16.1850364,10.5157684 14.444648,11.6431162 Z M11,12.6384851 C7.14326436,12.6384851 3.69252806,14.2580165 2.00519986,16.9836365 C1.67497812,17.5177342 1.40425532,18.3417744 1.40425532,18.9669957 C1.40425532,20.9059723 2.97570289,22.4682723 4.92331915,22.4682723 L17.0757447,22.4682723 C19.0241768,22.4682723 20.5957447,20.906092 20.5957447,18.9669957 C20.5957447,18.3423497 20.3246871,17.5187069 19.9939917,16.9838429 C18.3075275,14.2582778 14.8562344,12.6384851 11,12.6384851 Z" id="path-1"></path>
    </defs>
    <g id="user" stroke="none" stroke-width="1" fill="none" fill-rule="evenodd">
        <g transform="translate(5.000000, 4.000000)">
            <mask id="mask-2" fill="white">
                <use xlink:href="#path-1"></use>
            </mask>
            <use id="Mask" fill="#1F2229" fill-rule="nonzero" xlink:href="#path-1"></use>
        </g>
    </g>
</svg>