<?xml version="1.0" encoding="UTF-8"?>
<svg width="32px" height="32px" viewBox="0 0 32 32" version="1.1" xmlns="http://www.w3.org/2000/svg" xmlns:xlink="http://www.w3.org/1999/xlink">
    <!-- Generator: Sketch 49.1 (51147) - http://www.bohemiancoding.com/sketch -->
    <title>cart-empty</title>
    <desc>Created with Sketch.</desc>
    <defs></defs>
    <g id="cart-empty" stroke="none" stroke-width="1" fill="none" fill-rule="evenodd">
        <path d="M4,6.83777286 C4,6.39027512 4.16833123,6.00278027 4.44749441,6.00278027 L4.94832148,6.00111361 C6.00247497,5.99778032 7.09746128,5.99278038 7.9016179,6.13611163 C8.6291088,6.28277647 9.05910343,6.82610301 9.2182681,7.55859718 L9.92409262,10.771057 L25.5513973,10.7752236 L25.5705637,10.7752236 C26.0488911,10.7752236 26.7038829,10.7752236 27.0847114,11.1593855 C27.47054,11.550214 27.2897089,12.4443694 27.2897089,12.4443694 L25.279734,19.5859135 C25.279734,19.5859135 25.0747366,20.3025712 24.7747403,20.6800665 C24.4739107,21.0575618 24.2622467,21.2533927 23.4972563,21.2533927 L11.7824027,21.254226 C11.2682425,21.254226 10.8715808,21.1208943 10.5349183,20.6767332 C10.1982559,20.2325721 10.1115903,19.5859135 10.1115903,19.5859135 L8.41244484,11.7260451 L7.68162065,8.33525414 C7.55662221,7.64192948 6.38080357,7.66359587 5.87664321,7.67442907 L5.82414386,7.67442907 C5.78831098,7.67609572 5.75497806,7.67609572 5.72831173,7.67609572 L4.44666108,7.67609572 C4.15333142,7.67609572 4,7.28526727 4,6.83777286 Z M10.2790882,12.4452028 L11.8149023,19.5875802 L23.5439224,19.5859135 C24.1914143,17.2484427 25.5522306,12.4452028 25.5522306,12.4452028 L10.2790882,12.4452028 Z M15.6723541,24.0808573 C15.6723541,25.1400107 14.8106982,26 13.7482115,26 C12.6857248,26 11.8240689,25.1408441 11.8240689,24.0808573 C11.8240689,23.0225372 12.6857248,22.1642146 13.7482115,22.1642146 C14.8115315,22.1633813 15.6723541,23.0225372 15.6723541,24.0808573 Z M21.2806173,26 C22.343104,26 23.2055933,25.1408441 23.2055933,24.0808573 C23.2055933,23.0225372 22.3447707,22.1642146 21.2806173,22.1642146 C20.2181306,22.1642146 19.3556414,23.0217039 19.3556414,24.0808573 C19.357308,25.1408441 20.2189639,26 21.2806173,26 Z" id="Mask" fill="#626469" fill-rule="nonzero"></path>
    </g>
</svg>