<?xml version="1.0" encoding="UTF-8"?>
<svg width="32px" height="32px" viewBox="0 0 32 32" version="1.1" xmlns="http://www.w3.org/2000/svg" xmlns:xlink="http://www.w3.org/1999/xlink">
    <!-- Generator: Sketch 49.1 (51147) - http://www.bohemiancoding.com/sketch -->
    <title>logout</title>
    <desc>Created with Sketch.</desc>
    <defs></defs>
    <g id="logout" stroke="none" stroke-width="1" fill="none" fill-rule="evenodd">
        <path d="M13.2814088,9.62586211 C13.6991114,9.80487752 14.0804921,10.3834346 14.0804921,10.8374592 L14.0804921,26.404017 C14.0804921,26.5389272 14.0441701,26.6141656 14.0221175,26.6284349 C14.0000649,26.6427043 13.9170432,26.6465959 13.7925108,26.5947074 L7.09629646,23.7239747 C6.67859382,23.5449592 6.29721315,22.9676994 6.29721315,22.5123776 L6.29721315,6.94581973 C6.29721315,6.84333989 6.32056299,6.74734612 6.36337102,6.66043284 L13.2814088,9.62586211 Z M19.9179513,12.7832789 L19.9179513,12.7819817 C19.5599204,12.7819817 19.2693447,12.491406 19.2693447,12.1333751 L19.2693447,6.94452252 C19.2693447,6.58649169 18.9787689,6.29591594 18.6207381,6.29591594 L8.80861782,6.29591594 L13.7925108,8.432426 C14.6811018,8.81250946 15.3777052,9.86844097 15.3777052,10.836162 L15.3777052,23.1596869 L18.6207381,23.1596869 C18.9787689,23.1596869 19.2693447,22.8691112 19.2693447,22.5110804 L19.2693447,17.3222277 C19.2693447,16.9641969 19.5599204,16.6736212 19.9179513,16.6736212 C20.2772793,16.6736212 20.5665578,16.9641969 20.5665578,17.3222277 L20.5665578,22.5110804 C20.5665578,23.5838756 19.6935334,24.4569001 18.6207381,24.4569001 L15.3777052,24.4569001 L15.3777052,26.4027198 C15.3777052,26.9644131 15.1429096,27.4417876 14.7355847,27.7103107 C14.5111668,27.858193 14.2478326,27.9334313 13.9715262,27.9334313 C13.7471083,27.9334313 13.5123127,27.8841372 13.2814088,27.7868463 L6.58519447,24.9161135 C5.69660346,24.5360301 5,23.4800986 5,22.5123776 L5,6.94581973 C5,5.87302445 5.87302445,5 6.94581973,5 L18.6207381,5 C19.6935334,5 20.5665578,5.87302445 20.5665578,6.94581973 L20.5665578,12.1346723 C20.5665578,12.4927032 20.2772793,12.7832789 19.9179513,12.7832789 Z M28.8086611,14.2700149 L28.8112555,14.2687177 C29.0629148,14.5216743 29.0629148,14.9328908 28.8112555,15.1858474 L24.919616,19.0774869 C24.7911919,19.2033165 24.6251486,19.26688 24.4591054,19.26688 C24.2943593,19.26688 24.128316,19.2046138 24.0011891,19.0774869 C23.7482325,18.8245303 23.7482325,18.4133137 24.0011891,18.1603572 L26.7837113,15.3765377 L18.620349,15.3765377 C18.2636153,15.3765377 17.9717424,15.085962 17.9717424,14.7279312 C17.9717424,14.3699003 18.2636153,14.0793246 18.620349,14.0793246 L26.7837113,14.0793246 L24.0011891,11.2955052 C23.7482325,11.0425486 23.7482325,10.631332 24.0011891,10.3783755 C24.2528485,10.1254189 24.6653622,10.1254189 24.9170216,10.3783755 L28.8086611,14.2700149 Z" id="Mask" fill="#1F2229"></path>
    </g>
</svg>