<?xml version="1.0" encoding="UTF-8"?>
<svg width="32px" height="32px" viewBox="0 0 32 32" version="1.1" xmlns="http://www.w3.org/2000/svg" xmlns:xlink="http://www.w3.org/1999/xlink">
    <!-- Generator: Sketch 49.1 (51147) - http://www.bohemiancoding.com/sketch -->
    <title>user-drop</title>
    <desc>Created with Sketch.</desc>
    <defs></defs>
    <g id="user-drop" stroke="none" stroke-width="1" fill="none" fill-rule="evenodd">
        <path d="M16,4 C9.376,4 4,9.376 4,16 C4,22.624 9.376,28 16,28 C22.624,28 28,22.624 28,16 C28,9.376 22.624,4 16,4 Z M19.6,11.2 C19.6,9.208 17.992,7.6 16,7.6 C14.008,7.6 12.4,9.208 12.4,11.2 C12.4,13.192 14.008,14.8 16,14.8 C17.992,14.8 19.6,13.192 19.6,11.2 Z M8.2,20.8 C9.4,23.2 12.4,25 16,25 C19.3405,25 22,23.8 23.8,20.8 C23.764,18.412 18.388,17.08 16,17.08 C13.6,17.08 8.236,18.412 8.2,20.8 Z" id="Mask" fill="#1F2229"></path>
    </g>
</svg>