<?xml version="1.0" encoding="UTF-8"?>
<svg width="32px" height="32px" viewBox="0 0 32 32" version="1.1" xmlns="http://www.w3.org/2000/svg" xmlns:xlink="http://www.w3.org/1999/xlink">
    <!-- Generator: Sketch 49.1 (51147) - http://www.bohemiancoding.com/sketch -->
    <title>add</title>
    <desc>Created with Sketch.</desc>
    <defs>
        <path d="M12,0 C5.37225,0 0,5.37225 0,12 C0,18.62775 5.37225,24 12,24 C18.62775,24 24,18.62775 24,12 C23.991,5.376 18.624,0.009 12.00075,0 L12,0 Z M12,22.08 C6.43275,22.08 1.92,17.56725 1.92,12 C1.92,6.43275 6.43275,1.92 12,1.92 C17.56725,1.92 22.08,6.43275 22.08,12 C22.07325,17.56425 17.56425,22.07325 12.00075,22.08 L12,22.08 Z M17.28,11.04 L12.96,11.04 L12.96,6.72 C12.96,6.18975 12.53025,5.76 12,5.76 C11.46975,5.76 11.04,6.18975 11.04,6.72 L11.04,11.04 L6.72,11.04 C6.18975,11.04 5.76,11.46975 5.76,12 C5.76,12.53025 6.18975,12.96 6.72,12.96 L11.04,12.96 L11.04,17.28 C11.04,17.81025 11.46975,18.24 12,18.24 C12.53025,18.24 12.96,17.81025 12.96,17.28 L12.96,12.96 L17.28,12.96 C17.81025,12.96 18.24,12.53025 18.24,12 C18.24,11.46975 17.81025,11.04 17.28,11.04 Z" id="path-1"></path>
    </defs>
    <g id="add" stroke="none" stroke-width="1" fill="none" fill-rule="evenodd">
        <g transform="translate(4.000000, 4.000000)">
            <mask id="mask-2" fill="white">
                <use xlink:href="#path-1"></use>
            </mask>
            <use id="Mask" fill="#1F2229" fill-rule="nonzero" xlink:href="#path-1"></use>
        </g>
    </g>
</svg>