<?xml version="1.0" encoding="UTF-8"?>
<svg width="32px" height="32px" viewBox="0 0 32 32" version="1.1" xmlns="http://www.w3.org/2000/svg" xmlns:xlink="http://www.w3.org/1999/xlink">
    <!-- Generator: Sketch 49.1 (51147) - http://www.bohemiancoding.com/sketch -->
    <title>clock</title>
    <desc>Created with Sketch.</desc>
    <defs>
        <path d="M12,24 C5.372583,24 0,18.627417 0,12 C0,5.372583 5.372583,0 12,0 C18.627417,0 24,5.372583 24,12 C24,18.627417 18.627417,24 12,24 Z M12,22.4 C17.7437614,22.4 22.4,17.7437614 22.4,12 C22.4,6.2562386 17.7437614,1.6 12,1.6 C6.2562386,1.6 1.6,6.2562386 1.6,12 C1.6,17.7437614 6.2562386,22.4 12,22.4 Z M10.4,6.40197864 C10.4,5.95905807 10.7550919,5.6 11.2,5.6 L11.2,5.6 C11.6418278,5.6 12,5.96460876 12,6.40197864 L12,14.3980214 C12,14.8409419 11.6449081,15.2 11.2,15.2 L11.2,15.2 C10.7581722,15.2 10.4,14.8353912 10.4,14.3980214 L10.4,6.40197864 Z M16.0023759,13.6 C16.4428915,13.6 16.8,13.9550919 16.8,14.4 L16.8,14.4 C16.8,14.8418278 16.437571,15.2 16.0023759,15.2 L11.1976241,15.2 C10.7571085,15.2 10.4,14.8449081 10.4,14.4 L10.4,14.4 C10.4,13.9581722 10.762429,13.6 11.1976241,13.6 L16.0023759,13.6 Z" id="path-1"></path>
    </defs>
    <g id="clock" stroke="none" stroke-width="1" fill="none" fill-rule="evenodd">
        <g transform="translate(4.000000, 4.000000)">
            <mask id="mask-2" fill="white">
                <use xlink:href="#path-1"></use>
            </mask>
            <use id="Mask" fill="#1F2229" fill-rule="nonzero" xlink:href="#path-1"></use>
        </g>
    </g>
</svg>