<?xml version="1.0" encoding="UTF-8"?>
<svg width="32px" height="32px" viewBox="0 0 32 32" version="1.1" xmlns="http://www.w3.org/2000/svg" xmlns:xlink="http://www.w3.org/1999/xlink">
    <!-- Generator: Sketch 49.1 (51147) - http://www.bohemiancoding.com/sketch -->
    <title>download</title>
    <desc>Created with Sketch.</desc>
    <defs>
        <path d="M20.7711654,10.7957647 L20.7753609,10.7943529 C21.0466692,11.0696471 21.0466692,11.5171765 20.7753609,11.7924706 L13.7814812,18.8512941 C13.6444286,18.9896471 13.4654211,19.0588235 13.2864135,19.0588235 C13.1088045,19.0588235 12.929797,18.9910588 12.7913459,18.8527059 L5.79886466,11.7938824 C5.52755639,11.5185882 5.52755639,11.0710588 5.79886466,10.7957647 C6.07157143,10.5204706 6.51629323,10.5204706 6.7876015,10.7957647 L12.5857669,16.6489412 L12.5857669,0.705882353 C12.5857669,0.316235294 12.9004286,0 13.285015,0 C13.671,0 13.9842632,0.316235294 13.9842632,0.705882353 L13.9842632,16.6489412 L19.7838271,10.7957647 C20.0551353,10.5204706 20.4998571,10.5204706 20.7711654,10.7957647 Z M24.4736842,24 L2.09774436,24 C0.94118797,24 0,23.0498824 0,21.8823529 L0,19.0588235 C0,18.6691765 0.313263158,18.3529412 0.69924812,18.3529412 C1.08523308,18.3529412 1.39849624,18.6691765 1.39849624,19.0588235 L1.39849624,21.8823529 C1.39849624,22.272 1.7117594,22.5882353 2.09774436,22.5882353 L24.4736842,22.5882353 C24.8596692,22.5882353 25.1729323,22.272 25.1729323,21.8823529 L25.1729323,19.0588235 C25.1729323,18.6691765 25.4861955,18.3529412 25.8721805,18.3529412 C26.2581654,18.3529412 26.5714286,18.6691765 26.5714286,19.0588235 L26.5714286,21.8823529 C26.5714286,23.0498824 25.6302406,24 24.4736842,24 Z" id="path-1"></path>
    </defs>
    <g id="download" stroke="none" stroke-width="1" fill="none" fill-rule="evenodd">
        <g transform="translate(3.000000, 4.000000)">
            <mask id="mask-2" fill="white">
                <use xlink:href="#path-1"></use>
            </mask>
            <use id="Mask" fill="#1F2229" xlink:href="#path-1"></use>
        </g>
    </g>
</svg>