<?xml version="1.0" encoding="UTF-8"?>
<svg width="32px" height="32px" viewBox="0 0 32 32" version="1.1" xmlns="http://www.w3.org/2000/svg" xmlns:xlink="http://www.w3.org/1999/xlink">
    <!-- Generator: Sketch 49.1 (51147) - http://www.bohemiancoding.com/sketch -->
    <title>home</title>
    <desc>Created with Sketch.</desc>
    <defs>
        <path d="M23.6588541,10.3044278 L12.9705496,0.372668632 C12.7106623,0.141501999 12.3660138,0 11.9891422,0 C11.6122705,0 11.2676221,0.141501999 11.0063337,0.374069642 L0.238171682,10.3821838 C0.0917661481,10.5173813 0,10.7107206 0,10.9250752 C0,11.0238464 0.0196141385,11.1184145 0.0546393859,11.2052771 C0.167420682,11.4791746 0.436414582,11.6718134 0.750240799,11.6718134 L0.753743323,11.6718134 L3.04299349,11.6718134 L3.04299349,19.6351537 C3.05350107,21.1895742 4.31581098,22.444879 5.87163247,22.444879 L5.88354105,22.444879 L8.84807799,22.444879 L8.85578354,22.444879 C9.67887686,22.444879 10.3464581,21.7808003 10.3520621,20.959108 L10.3520621,12.7148653 C10.3548641,12.1838825 10.7863752,11.754473 11.3173579,11.754473 L11.321561,11.754473 L12.6609264,11.754473 L12.6630279,11.754473 C13.1947112,11.754473 13.6262222,12.183182 13.6304253,12.7141648 L13.6304253,20.959108 C13.6360293,21.7815008 14.304311,22.44628 15.1274043,22.44628 L15.1344094,22.44628 L17.8593736,22.44628 L17.8712822,22.44628 C19.4628295,22.44628 20.7538601,21.161554 20.7650682,19.5728087 L20.7650682,11.676717 L23.2462567,11.676717 L23.2546627,11.676717 C23.6658591,11.676717 24,11.3432766 24,10.9313797 C24,10.6693909 23.8648025,10.4389247 23.6602551,10.3058288 L23.6588541,10.3044278 Z M20.0092233,10.1797379 L20.0092233,10.1797379 C19.5959254,10.1797379 19.261084,10.5131782 19.2575815,10.9250752 L19.2575815,19.5721082 C19.2519775,20.3363591 18.6313301,20.9542045 17.8656782,20.9542045 L17.8586731,20.9542045 L15.1386124,20.9598085 L15.1386124,12.7141648 C15.1281048,11.3579872 14.0269111,10.263098 12.6693325,10.263098 L12.6567234,10.263098 L11.3173579,10.263098 L11.3075509,10.263098 C9.94997227,10.263098 8.84877849,11.3586877 8.83967193,12.7141648 L8.84597647,20.9528035 L5.88073903,20.9528035 L5.87443449,20.9528035 C5.14520884,20.9528035 4.55328216,20.3643793 4.54837862,19.6358542 L4.54837862,10.9264762 C4.5448761,10.5138788 4.20933423,10.1804384 3.79673681,10.1804384 L3.79673681,10.1804384 L2.65701527,10.1804384 L11.9891422,1.50818715 L21.3226701,10.1804384 L20.0134263,10.1804384 L20.0092233,10.1797379 Z" id="path-1"></path>
    </defs>
    <g id="home" stroke="none" stroke-width="1" fill="none" fill-rule="evenodd">
        <g transform="translate(4.000000, 5.000000)">
            <mask id="mask-2" fill="white">
                <use xlink:href="#path-1"></use>
            </mask>
            <use id="Mask" fill="#1F2229" fill-rule="nonzero" xlink:href="#path-1"></use>
        </g>
    </g>
</svg>