<?xml version="1.0" encoding="UTF-8"?>
<svg width="32px" height="32px" viewBox="0 0 32 32" version="1.1" xmlns="http://www.w3.org/2000/svg" xmlns:xlink="http://www.w3.org/1999/xlink">
    <!-- Generator: Sketch 49.1 (51147) - http://www.bohemiancoding.com/sketch -->
    <title>limited</title>
    <desc>Created with Sketch.</desc>
    <defs></defs>
    <g id="limited" stroke="none" stroke-width="1" fill="none" fill-rule="evenodd">
        <path d="M11.253306,22.2619229 C12.5719725,23.2630336 14.2165731,23.8571429 16,23.8571429 L16.0005846,23.8571429 C20.337213,23.8518814 23.8518814,20.337213 23.8571429,16 C23.8571429,14.2165731 23.2630336,12.5719725 22.2619229,11.253306 L11.253306,22.2619229 Z M9.73807714,20.746694 L20.746694,9.73807714 C19.4280275,8.73696641 17.7834269,8.14285714 16,8.14285714 C11.6604486,8.14285714 8.14285714,11.6604486 8.14285714,16 C8.14285714,17.7834269 8.73696641,19.4280275 9.73807714,20.746694 Z M16,6 L16.000625,6 C21.52,6.0075 25.9925,10.48 26,16 C26,21.523125 21.523125,26 16,26 C10.476875,26 6,21.523125 6,16 C6,10.476875 10.476875,6 16,6 Z" id="Mask" fill="#1F2229" fill-rule="nonzero"></path>
    </g>
</svg>