<?xml version="1.0" encoding="UTF-8"?>
<svg width="32px" height="32px" viewBox="0 0 32 32" version="1.1" xmlns="http://www.w3.org/2000/svg" xmlns:xlink="http://www.w3.org/1999/xlink">
    <!-- Generator: Sketch 49.1 (51147) - http://www.bohemiancoding.com/sketch -->
    <title>lock</title>
    <desc>Created with Sketch.</desc>
    <defs>
        <path d="M16.9411765,21.8823529 C16.9411765,22.272 16.6249412,22.5882353 16.2352941,22.5882353 L2.11764706,22.5882353 C1.728,22.5882353 1.41176471,22.272 1.41176471,21.8823529 L1.41176471,10.5882353 C1.41176471,10.1985882 1.728,9.88235294 2.11764706,9.88235294 L16.2352941,9.88235294 C16.6249412,9.88235294 16.9411765,10.1985882 16.9411765,10.5882353 L16.9411765,21.8823529 Z M4.23529412,6.35294118 C4.23529412,3.62823529 6.45176471,1.41176471 9.17647059,1.41176471 C11.9011765,1.41176471 14.1176471,3.62823529 14.1176471,6.35294118 L14.1176471,8.47058824 L4.23529412,8.47058824 L4.23529412,6.35294118 Z M16.2352941,8.47058824 L15.5294118,8.47058824 L15.5294118,6.35294118 C15.5294118,2.85035294 12.6790588,0 9.17647059,0 C5.67388235,0 2.82352941,2.85035294 2.82352941,6.35294118 L2.82352941,8.47058824 L2.11764706,8.47058824 C0.950117647,8.47058824 0,9.42070588 0,10.5882353 L0,21.8823529 C0,23.0498824 0.950117647,24 2.11764706,24 L16.2352941,24 C17.4028235,24 18.3529412,23.0498824 18.3529412,21.8823529 L18.3529412,10.5882353 C18.3529412,9.42070588 17.4028235,8.47058824 16.2352941,8.47058824 L16.2352941,8.47058824 Z" id="path-1"></path>
    </defs>
    <g id="lock" stroke="none" stroke-width="1" fill="none" fill-rule="evenodd">
        <g transform="translate(7.000000, 3.000000)">
            <mask id="mask-2" fill="white">
                <use xlink:href="#path-1"></use>
            </mask>
            <use id="Mask" fill="#1F2229" xlink:href="#path-1"></use>
        </g>
    </g>
</svg>