<?xml version="1.0" encoding="UTF-8"?>
<svg width="32px" height="32px" viewBox="0 0 32 32" version="1.1" xmlns="http://www.w3.org/2000/svg" xmlns:xlink="http://www.w3.org/1999/xlink">
    <!-- Generator: Sketch 49.1 (51147) - http://www.bohemiancoding.com/sketch -->
    <title>print </title>
    <desc>Created with Sketch.</desc>
    <defs>
        <path d="M20.554499,5.02869557 L19.2497494,5.02869557 L19.2497494,1.79125379 C19.2438828,0.800600169 18.4495343,0 17.4697988,0 L17.4645188,0 L6.53548119,0 L6.53020118,0 C5.55105234,0 4.75611724,0.800600169 4.74966389,1.79065987 L4.74966389,5.02869557 L3.44491432,5.02869557 L3.4343543,5.02869557 C1.54469677,5.02869557 0.0111466914,6.57406771 0,8.48469882 L0,11.361633 C0.0111466914,13.2734519 1.5441101,14.818824 3.4343543,14.818824 L3.44608766,14.818824 L4.75025056,14.818824 L4.75025056,17.2081523 C4.75553057,18.1988059 5.55046567,19 6.53020118,19 L6.53665453,19 L17.4651055,19 L17.4703855,19 C18.450121,19 19.2444694,18.1988059 19.2503361,17.2087462 L19.2503361,14.818824 L20.5550857,14.818824 L20.5656457,14.818824 C22.4553032,14.818824 23.9888533,13.2734519 24,11.3628208 L24,8.48885624 C23.9906133,6.57584946 22.4564766,5.02869557 20.5656457,5.02869557 L20.5539123,5.02869557 L20.554499,5.02869557 Z M6.24801388,1.79125379 C6.25153389,1.63267794 6.37825417,1.50498578 6.53489452,1.50320403 L17.4639321,1.50320403 C17.6205725,1.50498578 17.7472928,1.63267794 17.7502261,1.79065987 L17.7502261,5.02869557 L6.24742722,5.02869557 L6.24742722,1.79125379 L6.24801388,1.79125379 Z M17.7513994,17.2045888 C17.7490528,17.3631646 17.6217458,17.4914507 17.4651055,17.4932325 L6.53606786,17.4932325 C6.37884084,17.4914507 6.25153389,17.3637586 6.24860055,17.2051827 L6.24860055,11.1175331 C6.25212056,10.9589572 6.37884084,10.831265 6.53548119,10.8294833 L17.4639321,10.8294833 C17.5812657,10.8306711 17.6821726,10.9025351 17.7273461,11.0046888 C17.7425994,11.039136 17.7513994,11.0771467 17.7513994,11.1175331 L17.7513994,17.2081523 L17.7513994,17.2045888 Z M22.49989,11.3622269 C22.4934367,12.442562 21.6269281,13.31562 20.5591924,13.31562 L20.5498057,13.31562 L19.2450561,13.31562 L19.2450561,11.1210966 L19.2450561,11.1205026 C19.2450561,10.8692757 19.1934293,10.6299272 19.1001491,10.4137414 C18.8232418,9.77587446 18.1931604,9.33043669 17.4609988,9.33043669 L17.4598255,9.33043669 L6.53548119,9.33043669 L6.53020118,9.33043669 C5.55105234,9.33043669 4.75611724,10.1310369 4.74966389,11.1210966 L4.74966389,13.3162139 L3.44491432,13.3162139 L3.44139431,13.3162139 C2.37307194,13.3162139 1.50656335,12.4431559 1.50069667,11.3634147 L1.50069667,8.48945016 C1.50715002,7.40911506 2.37365861,6.53605702 3.44139431,6.53605702 L3.450781,6.53605702 L20.5603657,6.53605702 L20.5691657,6.53605702 C21.6374881,6.53605702 22.5039967,7.40911506 22.5098634,8.48885624 L22.5098634,11.3628208 L22.49989,11.3622269 Z" id="path-1"></path>
    </defs>
    <g id="print-" stroke="none" stroke-width="1" fill="none" fill-rule="evenodd">
        <g id="print" transform="translate(4.000000, 7.000000)">
            <mask id="mask-2" fill="white">
                <use xlink:href="#path-1"></use>
            </mask>
            <use id="Mask" fill="#1F2229" fill-rule="nonzero" xlink:href="#path-1"></use>
        </g>
    </g>
</svg>