<?xml version="1.0" encoding="UTF-8"?>
<svg width="32px" height="32px" viewBox="0 0 32 32" version="1.1" xmlns="http://www.w3.org/2000/svg" xmlns:xlink="http://www.w3.org/1999/xlink">
    <!-- Generator: Sketch 49.1 (51147) - http://www.bohemiancoding.com/sketch -->
    <title>search</title>
    <desc>Created with Sketch.</desc>
    <defs>
        <path d="M16.2218525,8.85779242 C16.2218525,4.79808675 12.9281856,1.50654116 8.86552453,1.50654116 C4.8017111,1.50654116 1.50785624,4.7978989 1.50785624,8.85779242 C1.50785624,12.917392 4.80141693,16.2077045 8.86552453,16.2077045 C12.9284798,16.2077045 16.2218525,12.9172042 16.2218525,8.85779242 Z M14.7163283,15.5112204 L19.8624429,22.8129751 C20.1021732,23.1531252 20.0205261,23.6230417 19.680079,23.8625629 C19.339632,24.1020841 18.8693053,24.0205082 18.629575,23.680358 L13.5033623,16.4068419 C12.154181,17.2360184 10.565772,17.7142457 8.86552453,17.7142457 C3.96868945,17.7142457 0,13.7494702 0,8.85779242 C0,3.96589769 3.96890656,0 8.86552453,0 C13.7610287,0 17.7297087,3.96612402 17.7297087,8.85779242 C17.7297087,11.5090675 16.5638218,13.8881628 14.7163283,15.5112204 Z M4.92794225,8.85779242 C4.92794225,9.27381228 4.59039714,9.611063 4.17401413,9.611063 C3.75763113,9.611063 3.42008601,9.27381228 3.42008601,8.85779242 C3.42008601,5.85320008 5.85790733,3.41750492 8.86512243,3.41750492 C9.28150544,3.41750492 9.61905055,3.75475564 9.61905055,4.17077549 C9.61905055,4.58679535 9.28150544,4.92404607 8.86512243,4.92404607 C6.69067334,4.92404607 4.92794225,6.68523978 4.92794225,8.85779242 Z" id="path-1"></path>
    </defs>
    <g id="search" stroke="none" stroke-width="1" fill="none" fill-rule="evenodd">
        <g transform="translate(6.000000, 4.000000)">
            <mask id="mask-2" fill="white">
                <use xlink:href="#path-1"></use>
            </mask>
            <use id="Mask" fill="#1F2229" fill-rule="nonzero" xlink:href="#path-1"></use>
        </g>
    </g>
</svg>