<?xml version="1.0" encoding="UTF-8"?>
<svg width="32px" height="32px" viewBox="0 0 32 32" version="1.1" xmlns="http://www.w3.org/2000/svg" xmlns:xlink="http://www.w3.org/1999/xlink">
    <!-- Generator: Sketch 49.1 (51147) - http://www.bohemiancoding.com/sketch -->
    <title>settings</title>
    <desc>Created with Sketch.</desc>
    <defs>
        <path d="M12.0012368,20.6586001 C13.3950723,20.6586001 14.6503899,21.4352892 15.284851,22.6398995 C15.9279694,22.4407802 16.5537731,22.1835328 17.1523679,21.8706309 C17.0187972,21.4822864 16.9495383,21.07168 16.9495383,20.6586001 C16.9495383,18.6129888 18.6142256,16.9483015 20.6598368,16.9483015 C21.0729168,16.9483015 21.4835231,17.0175604 21.8718677,17.1511312 C22.1847696,16.5525363 22.4432537,15.9279694 22.6411363,15.2836142 C21.436526,14.6503899 20.6598368,13.3950723 20.6598368,12 C20.6598368,10.6049277 21.436526,9.35084683 22.6411363,8.71638577 C22.4420169,8.07326735 22.1847696,7.44746366 21.8718677,6.84886883 C21.4835231,6.98243958 21.0729168,7.05169848 20.6598368,7.05169848 C18.6142256,7.05169848 16.9495383,5.3870112 16.9495383,3.34139992 C16.9495383,2.92832002 17.0187972,2.51771364 17.1523679,2.12936906 C16.5537731,1.81646721 15.9292062,1.55798308 15.284851,1.36010049 C14.6516267,2.56471076 13.396309,3.34139992 12.0012368,3.34139992 C10.6061645,3.34139992 9.35208359,2.56471076 8.71762254,1.36010049 C8.07450412,1.55798308 7.44870043,1.81646721 6.8501056,2.12936906 C6.98367634,2.51771364 7.05293525,2.92832002 7.05293525,3.34139992 C7.05293525,5.3870112 5.38824796,7.05169848 3.34263669,7.05169848 C2.92955678,7.05169848 2.51895041,6.98243958 2.13060582,6.84886883 C1.81770398,7.44746366 1.55921985,8.07203059 1.36133726,8.71638577 C2.56594752,9.34961006 3.34263669,10.6049277 3.34263669,12 C3.34263669,13.3950723 2.56594752,14.6491532 1.36133726,15.2836142 C1.55921985,15.9267326 1.81770398,16.5525363 2.13060582,17.1511312 C2.51895041,17.0175604 2.92955678,16.9483015 3.34263669,16.9483015 C5.38824796,16.9483015 7.05293525,18.6129888 7.05293525,20.6586001 C7.05293525,21.07168 6.98367634,21.4822864 6.8501056,21.8706309 C7.44870043,22.1835328 8.07326735,22.4420169 8.71762254,22.6398995 C9.35084683,21.4352892 10.6061645,20.6586001 12.0012368,20.6586001 L12.0012368,20.6586001 Z M9.07133767,24.0003423 C9.02063025,24.0003423 8.96868607,23.9941585 8.91674189,23.9805541 C7.80612586,23.6948611 6.73879664,23.2545723 5.74567339,22.6708187 C5.45750687,22.5013817 5.35609204,22.1340621 5.51563488,21.8409486 C5.7122807,21.4798128 5.81616906,21.07168 5.81616906,20.6573633 C5.81616906,19.2932102 4.70678979,18.1838309 3.34263669,18.1838309 C2.92955678,18.1838309 2.52018717,18.2877193 2.15905145,18.4843651 C1.86593786,18.643908 1.4986183,18.5424931 1.32918133,18.2543266 C0.745427694,17.2599666 0.305138931,16.1938741 0.0194459422,15.0832581 C-0.06094386,14.7691195 0.114676939,14.4463235 0.421394953,14.3436719 C1.42812263,14.004798 2.1058705,13.0623822 2.1058705,12 C2.1058705,10.9376178 1.4293594,9.99520201 0.421394953,9.65632807 C0.114676939,9.55243972 -0.06094386,9.23088051 0.0194459422,8.91674189 C0.305138931,7.80612586 0.745427694,6.73879664 1.32918133,5.74567339 C1.4986183,5.45750687 1.86593786,5.35609204 2.15905145,5.51563488 C2.51895041,5.7122807 2.92832002,5.81616906 3.34263669,5.81616906 C4.70678979,5.81616906 5.81616906,4.70678979 5.81616906,3.34263669 C5.81616906,2.92955678 5.7122807,2.52018717 5.51563488,2.15905145 C5.35609204,1.86593786 5.45750687,1.4986183 5.74567339,1.32918133 C6.7400334,0.745427694 7.80612586,0.305138931 8.91674189,0.0194459422 C9.23088051,-0.06094386 9.55367648,0.114676939 9.65632807,0.421394953 C9.99520201,1.42812263 10.9376178,2.1058705 12,2.1058705 C13.0623822,2.1058705 14.004798,1.4293594 14.3436719,0.421394953 C14.4475603,0.114676939 14.7703563,-0.06094386 15.0832581,0.0194459422 C16.1938741,0.305138931 17.2612034,0.745427694 18.2543266,1.32918133 C18.5424931,1.4986183 18.643908,1.86593786 18.4843651,2.15905145 C18.2877193,2.52018717 18.1838309,2.92832002 18.1838309,3.34263669 C18.1838309,4.70678979 19.2932102,5.81616906 20.6573633,5.81616906 C21.0704432,5.81616906 21.4798128,5.7122807 21.8409486,5.51563488 C22.1340621,5.35609204 22.5013817,5.45750687 22.6708187,5.74567339 C23.2545723,6.7400334 23.6948611,7.80612586 23.9805541,8.91674189 C24.0609439,9.23088051 23.8853231,9.55367648 23.578605,9.65632807 C22.5718774,9.99520201 21.8941295,10.9376178 21.8941295,12 C21.8941295,13.0623822 22.5706406,14.004798 23.578605,14.3436719 C23.8853231,14.4475603 24.0609439,14.7691195 23.9805541,15.0832581 C23.6948611,16.1938741 23.2545723,17.2612034 22.6708187,18.2543266 C22.5013817,18.5424931 22.1340621,18.643908 21.8409486,18.4843651 C21.4798128,18.2877193 21.07168,18.1838309 20.6573633,18.1838309 C19.2932102,18.1838309 18.1838309,19.2932102 18.1838309,20.6573633 C18.1838309,21.0704432 18.2877193,21.4798128 18.4843651,21.8409486 C18.643908,22.1340621 18.5424931,22.5013817 18.2543266,22.6708187 C17.2599666,23.2545723 16.1938741,23.6948611 15.0832581,23.9805541 C14.7691195,24.0609439 14.4463235,23.8853231 14.3436719,23.578605 C14.004798,22.5718774 13.0623822,21.8941295 12,21.8941295 C10.9376178,21.8941295 9.99520201,22.5706406 9.65632807,23.578605 C9.56975444,23.8346156 9.3298218,24.0003423 9.0701009,24.0003423 L9.07133767,24.0003423 Z M12.0012368,15.7115353 C14.046848,15.7115353 15.7115353,14.046848 15.7115353,12.0012368 C15.7115353,9.95562549 14.046848,8.2909382 12.0012368,8.2909382 C9.95562549,8.2909382 8.2909382,9.95562549 8.2909382,12.0012368 C8.2909382,14.046848 9.95562549,15.7115353 12.0012368,15.7115353 Z M12.0012368,9.52770439 C13.3653899,9.52770439 14.4747691,10.6370837 14.4747691,12.0012368 C14.4747691,13.3653899 13.3653899,14.4747691 12.0012368,14.4747691 C10.6370837,14.4747691 9.52770439,13.3653899 9.52770439,12.0012368 C9.52770439,10.6370837 10.6370837,9.52770439 12.0012368,9.52770439 Z" id="path-1"></path>
    </defs>
    <g id="settings" stroke="none" stroke-width="1" fill="none" fill-rule="evenodd">
        <g transform="translate(4.000000, 4.000000)">
            <mask id="mask-2" fill="white">
                <use xlink:href="#path-1"></use>
            </mask>
            <use id="Combined-Shape" fill="#1F2229" xlink:href="#path-1"></use>
        </g>
    </g>
</svg>