<?xml version="1.0" encoding="UTF-8"?>
<svg width="32px" height="32px" viewBox="0 0 32 32" version="1.1" xmlns="http://www.w3.org/2000/svg" xmlns:xlink="http://www.w3.org/1999/xlink">
    <!-- Generator: Sketch 49.1 (51147) - http://www.bohemiancoding.com/sketch -->
    <title>autopayment</title>
    <desc>Created with Sketch.</desc>
    <defs></defs>
    <g id="autopayment" stroke="none" stroke-width="1" fill="none" fill-rule="evenodd">
        <path d="M27.6094053,13.7599587 C27.4741417,13.6260084 27.2876618,13.5426177 27.0814833,13.5426177 C26.8753049,13.5426177 26.6894816,13.6253518 26.5535614,13.7599587 L24.9986868,15.3076105 C24.8903446,9.59239572 20.2316303,5 14.5,5 C8.70073792,5 4,9.70139453 4,15.5 C4,21.2986055 8.70139453,26 14.5,26 C18.1718154,26 21.4036958,24.1148459 23.2809705,21.2598649 C23.3814333,21.1055594 23.42674,20.9650428 23.42674,20.8140204 C23.42674,20.5546557 23.2927897,20.3261522 23.0905509,20.1941717 C22.9730161,20.1173473 22.8318429,20.0726971 22.6808205,20.0726971 C22.4201426,20.0726971 22.1909824,20.2053343 22.0563755,20.407573 C20.4227065,22.8948471 17.6484898,24.5121006 14.4967169,24.5121006 C9.518229,24.5121006 5.48264649,20.476518 5.48264649,15.4980301 C5.48264649,10.5195422 9.518229,6.48395973 14.4967169,6.48395973 C19.454193,6.48395973 23.4772997,10.4860547 23.5101307,15.4363079 L21.8219624,13.7586455 C21.6866988,13.6246951 21.5002189,13.5413045 21.2940404,13.5413045 C21.0878619,13.5413045 20.9020386,13.6240385 20.7661184,13.7586455 C20.6315115,13.8925958 20.5481208,14.0784191 20.5481208,14.2832843 C20.5481208,14.4881496 20.6315115,14.6739729 20.7661184,14.8079232 L23.6598399,17.687199 C23.7951035,17.8211494 23.9815834,17.9045401 24.1877619,17.9045401 C24.3939403,17.9045401 24.5797636,17.821806 24.7156838,17.687199 L27.6080921,14.8079232 C27.742699,14.6739729 27.8260897,14.4881496 27.8260897,14.2832843 C27.8260897,14.0784191 27.742699,13.8925958 27.6080921,13.7586455 L27.6094053,13.7599587 Z" id="Mask" fill="#1F2229" fill-rule="nonzero"></path>
    </g>
</svg>