<?xml version="1.0" encoding="UTF-8"?>
<svg width="32px" height="32px" viewBox="0 0 32 32" version="1.1" xmlns="http://www.w3.org/2000/svg" xmlns:xlink="http://www.w3.org/1999/xlink">
    <!-- Generator: Sketch 49.1 (51147) - http://www.bohemiancoding.com/sketch -->
    <title>bank-card</title>
    <desc>Created with Sketch.</desc>
    <defs></defs>
    <g id="bank-card" stroke="none" stroke-width="1" fill="none" fill-rule="evenodd">
        <path d="M24.8882759,8 L7.11172414,8 C5.39086207,8.01137931 4,9.40896552 4,11.1313793 L4,11.1360345 L4,21.407931 L4,21.412069 C4,23.1344828 5.39086207,24.532069 7.11068966,24.5434483 L24.8882759,24.5434483 C26.6091379,24.532069 28,23.1344828 28,21.412069 L28,21.4074138 L28,11.1355172 L28,11.1313793 C28,9.40896552 26.6091379,8.01137931 24.8893103,8 L24.8882759,8 Z M5.64689655,13.442931 L26.3448276,13.442931 L26.3448276,16.1584483 L5.64689655,16.1584483 L5.64689655,13.442931 L5.64689655,13.442931 Z M7.11172414,9.66344828 L24.8882759,9.66344828 C25.6941379,9.66913793 26.3448276,10.3234483 26.3448276,11.1298276 L26.3448276,11.1360345 L26.3448276,11.7794828 L5.64689655,11.7794828 L5.64689655,11.1355172 L5.64689655,11.1313793 C5.64689655,10.3218966 6.30224138,9.665 7.11172414,9.66344828 L7.11172414,9.66344828 Z M24.8882759,22.88 L7.11172414,22.88 C6.30224138,22.877931 5.64689655,22.2215517 5.64689655,21.412069 L5.64689655,21.407931 L5.64689655,17.8224138 L26.3448276,17.8224138 L26.3448276,21.4084483 L26.3448276,21.4141379 C26.3448276,22.2205172 25.6941379,22.8748276 24.8887931,22.8805172 L24.8882759,22.88 Z" id="Mask" fill="#1F2229" fill-rule="nonzero"></path>
    </g>
</svg>