<?xml version="1.0" encoding="UTF-8"?>
<svg width="32px" height="32px" viewBox="0 0 32 32" version="1.1" xmlns="http://www.w3.org/2000/svg" xmlns:xlink="http://www.w3.org/1999/xlink">
    <!-- Generator: Sketch 49.1 (51147) - http://www.bohemiancoding.com/sketch -->
    <title>cat</title>
    <desc>Created with Sketch.</desc>
    <defs></defs>
    <g id="cat" stroke="none" stroke-width="1" fill="none" fill-rule="evenodd">
        <g transform="translate(4.000000, 5.000000)"></g>
        <path d="M13.0003534,14.2961259 C12.9932854,13.5751929 12.4066439,12.993499 11.6850041,12.993499 C10.9584168,12.993499 10.3696548,13.5822609 10.3696548,14.3088483 C10.3696548,15.0354356 10.9584168,15.6241975 11.6850041,15.6241975 L11.6857109,15.6241975 C12.4122983,15.6206635 13.0003534,15.030488 13.0003534,14.3031939 L13.0003534,14.2954191 L13.0003534,14.2961259 Z M20.3128755,12.9687611 L20.2994463,12.9687611 C19.565791,12.9687611 18.9713747,13.5631774 18.9713747,14.2968327 C18.9713747,15.030488 19.565791,15.6249043 20.2994463,15.6249043 C21.0331017,15.6249043 21.627518,15.030488 21.627518,14.2968327 L21.627518,14.2961259 L21.627518,14.2890579 C21.627518,13.5617638 21.0401696,12.9715883 20.3135823,12.9673475 L20.3128755,12.9687611 Z M19.0265049,20.6099438 C18.2532689,20.605703 17.5683826,20.2289802 17.1428908,19.6501134 L18.3720108,18.5051022 C18.5218518,18.3651564 18.6158558,18.1665464 18.6158558,17.9460258 C18.6158558,17.847781 18.5974791,17.753777 18.5635528,17.6668409 C18.4547061,17.3883629 18.1840028,17.1904597 17.8673578,17.189753 L14.1397102,17.189753 C13.8223583,17.1904597 13.5523619,17.3883629 13.4435151,17.6668409 C13.4095889,17.7530702 13.3912122,17.8470742 13.3912122,17.945319 C13.3912122,18.1658397 13.4845094,18.3644496 13.6343503,18.5043954 L14.868418,19.6430454 C14.4379786,20.2282734 13.7530922,20.6042894 12.9805631,20.609237 C12.5720344,20.6226661 12.2469078,20.9562743 12.2469078,21.3655098 C12.2469078,21.7747453 12.5720344,22.1083535 12.9784427,22.1217826 C14.2075627,22.120369 15.2995641,21.5436227 16.0028272,20.6466972 C16.7195194,21.5365547 17.8058664,22.1104739 19.0257981,22.1217826 L19.0279185,22.1217826 C19.4456355,22.1217826 19.7848981,21.7832269 19.7848981,21.364803 C19.7848981,20.9463792 19.4463423,20.6085302 19.0286253,20.6078234 L19.0265049,20.6099438 Z M26.9956414,12.7963026 C27.383673,12.3149738 27.725056,10.8462496 27.8091648,5.87817326 L27.8091648,5.86333052 C27.8091648,5.4873145 27.5349276,5.17561701 27.1758747,5.11695286 C26.9546472,5.08585379 22.0183767,4.37622957 19.3424432,6.86415512 C18.3394982,6.59274506 17.187419,6.43724971 16,6.43724971 C14.812581,6.43724971 13.6605018,6.59274506 12.5642596,6.88535903 C9.97950289,4.37410918 5.04323242,5.08444019 4.82695253,5.11695286 C4.46365885,5.17632381 4.1901284,5.4873145 4.1901284,5.86262373 L4.1901284,5.87888006 C4.27423725,10.8462496 4.61632701,12.314267 5.00435858,12.7963026 C4.37318883,14.0289566 4.00212039,15.4849585 4,17.0271896 C4,22.8660399 9.38367299,27.6150092 16,27.6150092 C22.616327,27.6150092 28,22.8660399 28,17.0278964 C27.9971728,15.4849585 27.6261044,14.0289566 26.9701967,12.742586 L26.9956414,12.7963026 Z M26.2952056,6.54821685 C26.2655201,8.20777628 26.1524326,9.80584436 25.959477,11.3784678 C24.7141006,9.53160712 23.0623159,8.26219965 21.1603251,7.47694814 C22.7704088,6.45774683 25.1544352,6.46905558 26.2952056,6.55104403 L26.2952056,6.54821685 Z M5.70408764,6.54821685 C6.84627165,6.4648148 9.22888444,6.45421284 10.9188361,7.44796947 C8.93768406,8.26219965 7.2858994,9.53160712 6.03840264,11.1310888 C5.84756744,9.80655116 5.73447992,8.20989667 5.70479444,6.59274506 L5.70408764,6.54821685 Z M16.0007068,26.1017567 C10.2099187,26.1017567 5.5005301,22.0306058 5.5005301,17.0271896 C5.5005301,12.0237734 10.2120391,7.95262255 16.0007068,7.95262255 C21.7893745,7.95262255 26.5008835,12.0237734 26.5008835,17.0271896 C26.5008835,22.0306058 21.7907881,26.1017567 16.0007068,26.1017567 Z" id="Mask" fill="#1F2229" fill-rule="nonzero"></path>
    </g>
</svg>