<?xml version="1.0" encoding="UTF-8"?>
<svg width="32px" height="32px" viewBox="0 0 32 32" version="1.1" xmlns="http://www.w3.org/2000/svg" xmlns:xlink="http://www.w3.org/1999/xlink">
    <!-- Generator: Sketch 49.1 (51147) - http://www.bohemiancoding.com/sketch -->
    <title>user-circle</title>
    <desc>Created with Sketch.</desc>
    <defs>
        <path d="M12.3319084,13.1784169 C12.2243858,13.1854273 12.1159071,13.1889882 12.0065882,13.1889882 C11.9199004,13.1889882 11.8337413,13.1867505 11.7481685,13.1823306 C8.4569552,13.295851 5.5378991,14.9536251 4.07019234,17.703363 C3.94491873,17.9371585 3.81679878,18.2565378 3.71652024,18.5953786 C5.65658611,21.0287146 8.64631445,22.5882353 12,22.5882353 C15.4455878,22.5882353 18.5069978,20.9420713 20.4405939,18.3933794 C20.3530021,18.1324387 20.2507647,17.8906974 20.1503744,17.7022225 C18.6633842,14.914829 15.6804372,13.2487915 12.3319084,13.1784169 Z M15.0414168,12.1377117 C17.7331247,12.8439695 20.0274959,14.5262424 21.355465,16.9626056 C22.142371,15.4823402 22.5882353,13.7931975 22.5882353,12 C22.5882353,6.15267159 17.8473284,1.41176471 12,1.41176471 C6.15267159,1.41176471 1.41176471,6.15267159 1.41176471,12 C1.41176471,13.8772914 1.90042815,15.6405398 2.75748276,17.1694727 C2.77990988,17.1240481 2.80253052,17.0800333 2.82527352,17.0375887 C4.12220759,14.6077905 6.37272208,12.9165776 9.02455007,12.1795798 C7.90583336,11.3176315 7.18682353,9.98111473 7.18682353,8.47745882 C7.18682353,5.87036593 9.34822621,3.76498824 12.0065882,3.76498824 C14.6641789,3.76498824 16.8254118,5.87053335 16.8254118,8.47745882 C16.8254118,9.95691662 16.1293228,11.2746586 15.0414168,12.1377117 Z M12,24 C5.37297547,24 0,18.6270245 0,12 C0,5.37297547 5.37297547,0 12,0 C18.6270245,0 24,5.37297547 24,12 C24,18.6270245 18.6270245,24 12,24 Z M15.4136471,8.47745882 C15.4136471,6.65859642 13.8926116,5.17675294 12.0065882,5.17675294 C10.119745,5.17675294 8.59858824,6.65848037 8.59858824,8.47745882 C8.59858824,10.2962049 10.1195109,11.7772235 12.0065882,11.7772235 C13.8928456,11.7772235 15.4136471,10.2960889 15.4136471,8.47745882 Z" id="path-1"></path>
    </defs>
    <g id="user-circle" stroke="none" stroke-width="1" fill="none" fill-rule="evenodd">
        <g id="user" transform="translate(4.000000, 4.000000)">
            <mask id="mask-2" fill="white">
                <use xlink:href="#path-1"></use>
            </mask>
            <use id="Mask" fill="#1F2229" fill-rule="nonzero" xlink:href="#path-1"></use>
        </g>
    </g>
</svg>