<?xml version="1.0" encoding="UTF-8"?>
<svg width="32px" height="32px" viewBox="0 0 32 32" version="1.1" xmlns="http://www.w3.org/2000/svg" xmlns:xlink="http://www.w3.org/1999/xlink">
    <!-- Generator: Sketch 49.1 (51147) - http://www.bohemiancoding.com/sketch -->
    <title>balance</title>
    <desc>Created with Sketch.</desc>
    <defs></defs>
    <g id="balance" stroke="none" stroke-width="1" fill="none" fill-rule="evenodd">
        <path d="M18.2875539,5 C14.5743577,5 10.5751078,5.91592174 10.5751078,7.9258611 L10.5751078,11.6294305 C6.83165594,12.2111646 4,15.4113896 4,19.2731137 C4,23.5426017 7.46083641,27.0034381 11.7303244,27.0034381 C13.3201225,27.0034381 14.7978371,26.5234732 16.0259424,25.701069 C16.6846909,25.7959617 17.4809652,25.8406576 18.2868663,25.8406576 C21.6803151,25.8406576 25.3006814,25.0739514 25.9030443,23.4085141 C25.9614928,23.3143089 25.9972495,23.2001625 26,23.0777646 L26,7.92654873 C26,5.91660936 22.0014378,5.00068763 18.2868663,5.00068763 L18.2875539,5 Z M24.6254298,19.2036632 C24.6254298,19.6018003 22.7736451,20.5617303 19.3258736,20.7281365 C19.415953,20.2969932 19.4675252,19.8019004 19.4675252,19.2951178 C19.4675252,18.8818528 19.4331437,18.4761518 19.3671313,18.0814528 C21.2780521,18.1027693 23.0803276,17.6867538 24.7100081,16.9551166 L24.6254298,19.2036632 L24.6254298,19.2036632 Z M24.6254298,15.2229793 C24.6254298,15.5585422 22.9359255,16.6236794 19.0425705,16.7570795 C18.7365756,15.8789773 18.3109333,15.1184597 17.7766456,14.4487091 C17.9554291,14.4686504 18.1211477,14.4769019 18.2889292,14.4769019 C20.6571232,14.4769019 23.1360255,14.1028318 24.6254298,13.3120585 L24.6254298,15.2229793 Z M24.6254298,11.5503532 C24.6254298,12.0000625 22.405076,13.1002688 18.2889292,13.1002688 C17.6013002,13.1002688 16.9232981,13.0672626 16.269363,13.0026255 L16.2631743,13.0026255 L16.2569857,13.0026255 C15.0625742,12.1286491 13.5752329,11.5881728 11.9641183,11.5434769 L11.9538038,9.68687879 C13.4432081,10.4776521 15.9214228,10.8517222 18.2896168,10.8517222 C20.6578108,10.8517222 23.1367131,10.4776521 24.6261174,9.68687879 L24.6261174,11.5496656 L24.6254298,11.5503532 Z M18.2875539,6.37525786 C22.4037007,6.37525786 24.6240545,7.47546415 24.6240545,7.92448584 C24.6240545,8.37350753 22.4037007,9.47440145 18.2875539,9.47440145 C14.1714071,9.47440145 11.951741,8.37419516 11.951741,7.92448584 C11.951741,7.47477652 14.17347,6.37525786 18.2875539,6.37525786 Z M5.37181972,19.2689879 C5.37250735,15.7579546 8.21929112,12.9118585 11.7303244,12.9118585 C15.2413578,12.9118585 18.0888292,15.7586422 18.0888292,19.2703632 C18.0888292,22.7813965 15.242733,25.6281803 11.7316997,25.6288679 C8.22066637,25.6254298 5.37457023,22.7800213 5.37181972,19.2689879 L5.37181972,19.2689879 Z M18.2861787,24.4633369 C18.0111271,24.4633369 17.7408889,24.4516472 17.4699631,24.4413327 C18.0654498,23.7839595 18.5522911,23.0145027 18.8954179,22.170782 C18.9614303,22.1198975 19.0171282,22.1198975 19.0735138,22.1198975 C21.0786397,22.1198975 22.9861224,21.6990686 24.7113834,20.9406139 L24.621304,22.9127336 C24.6254298,23.362443 22.4037007,24.4626492 18.2875539,24.4626492 L18.2861787,24.4633369 Z" id="Mask" fill="#1F2229" fill-rule="nonzero"></path>
    </g>
</svg>