<?xml version="1.0" encoding="UTF-8"?>
<svg width="32px" height="32px" viewBox="0 0 32 32" version="1.1" xmlns="http://www.w3.org/2000/svg" xmlns:xlink="http://www.w3.org/1999/xlink">
    <!-- Generator: Sketch 49.1 (51147) - http://www.bohemiancoding.com/sketch -->
    <title>cart</title>
    <desc>Created with Sketch.</desc>
    <defs></defs>
    <g id="cart" stroke="none" stroke-width="1" fill="none" fill-rule="evenodd">
        <path d="M13.4357036,21.5142538 C13.42017,21.5142538 13.4025183,21.5135477 13.3841605,21.5135477 C11.707246,21.5135477 10.3473567,22.8734371 10.3473567,24.5503516 C10.3473567,26.227266 11.707246,27.5871554 13.3841605,27.5871554 C15.061075,27.5871554 16.4209644,26.227266 16.4209644,24.5503516 L16.4209644,24.5503516 L16.4209644,24.5270513 C16.4209644,22.872731 15.0871996,21.5297873 13.4371157,21.5149598 L13.4357036,21.5142538 Z M13.4357036,26.0719308 L13.4109911,26.0719308 C12.5700627,26.0719308 11.8887058,25.390574 11.8887058,24.5496455 C11.8887058,23.708717 12.5700627,23.0273602 13.4109911,23.0273602 C14.2512136,23.0273602 14.9332765,23.708717 14.9332765,24.5489394 L14.9332765,24.5595305 C14.9332765,25.3891618 14.2646289,26.0627519 13.4364096,26.0712247 L13.4357036,26.0719308 Z M21.0492483,21.5142538 C21.0337148,21.5142538 21.0160631,21.5135477 20.9977053,21.5135477 C19.3207908,21.5135477 17.9609014,22.8734371 17.9609014,24.5503516 C17.9609014,26.227266 19.3207908,27.5871554 20.9977053,27.5871554 C22.6746198,27.5871554 24.0345091,26.227266 24.0345091,24.5503516 L24.0345091,24.5503516 L24.0345091,24.5270513 C24.0345091,22.872731 22.7007443,21.5297873 21.0506605,21.5149598 L21.0492483,21.5142538 Z M21.0492483,26.0719308 L21.0245359,26.0719308 C20.1836074,26.0719308 19.5022506,25.390574 19.5022506,24.5496455 C19.5022506,23.708717 20.1836074,23.0273602 21.0245359,23.0273602 C21.8647583,23.0273602 22.5468212,23.708717 22.5468212,24.5489394 L22.5468212,24.5595305 C22.5468212,25.3891618 21.8781736,26.0627519 21.0506605,26.0712247 L21.0492483,26.0719308 Z M26.42879,9.67841487 C25.9211262,8.99635198 25.1169133,8.55929511 24.2103204,8.55929511 L24.206084,8.55929511 L8.44379395,8.55929511 L7.84151687,5.60227707 C7.77090995,5.25771528 7.47153658,5.00211821 7.11214733,5 L3.75690624,5 C3.33891324,5 3,5.33891324 3,5.75690624 C3,6.17489924 3.33891324,6.51381248 3.75690624,6.51381248 L6.50563384,6.51381248 L9.33908976,20.4728016 C9.40899062,20.8173634 9.70836398,21.0736666 10.0677532,21.0750787 L23.9151834,21.0750787 C24.2583331,21.0729605 24.5464093,20.8406637 24.6325498,20.5243447 L26.89762,12.1531876 C26.9625783,11.9258333 27,11.6652938 27,11.3955753 C27,10.7488159 26.7853549,10.1528934 26.4238475,9.67347239 L26.42879,9.67841487 Z M25.460769,11.7521403 L23.3517402,19.5619723 L10.6763849,19.5619723 L8.75093407,10.0724015 L24.206084,10.0724015 L24.2082022,10.0724015 C24.6311377,10.0724015 25.0067665,10.2764555 25.2411815,10.5913624 C25.409932,10.8144803 25.5094878,11.0926716 25.5094878,11.3934571 C25.5094878,11.5212556 25.4918361,11.6441117 25.4579448,11.7613192 L25.460769,11.7521403 Z" id="Mask" fill="#1F2229" fill-rule="nonzero"></path>
    </g>
</svg>