<?xml version="1.0" encoding="UTF-8"?>
<svg width="32px" height="32px" viewBox="0 0 32 32" version="1.1" xmlns="http://www.w3.org/2000/svg" xmlns:xlink="http://www.w3.org/1999/xlink">
    <!-- Generator: Sketch 49.1 (51147) - http://www.bohemiancoding.com/sketch -->
    <title>wallet</title>
    <desc>Created with Sketch.</desc>
    <defs></defs>
    <g id="wallet" stroke="none" stroke-width="1" fill="none" fill-rule="evenodd">
        <path d="M28.8943576,16.6244044 C29.6716015,16.6288577 30.2977838,17.2582222 30.3,18.0361408 L30.2999997,28.8886912 C30.298891,29.6665994 29.6709051,30.2977748 28.8934843,30.3 L12.0870346,30.2999988 C11.3111749,30.2977736 10.6833613,29.666427 10.6822526,28.8882636 L10.6822526,22.2753596 L5.56745509,22.2752801 C4.15367005,22.2417833 2.89293463,21.423463 2.28039934,20.1873371 C1.90148215,19.4889539 1.7,18.7053987 1.7,17.8934534 C1.7,16.951187 1.97228997,16.0502374 2.48295504,15.2604812 C3.65838997,13.4524395 5.40674893,12.0865541 7.46457227,11.3715446 C5.98476542,10.4215031 5.05098718,8.77027975 5.05098718,6.94941537 C5.05098718,4.05006598 7.39555567,1.7 10.2888244,1.7 C13.1817998,1.7 15.5266617,4.0506472 15.5266617,6.94941537 C15.5266617,8.78901635 14.5721281,10.4650182 13.0750527,11.430539 C14.0783049,11.7709363 15.0224146,12.2656901 15.8766439,12.8977498 C16.5123525,13.4050104 17.0823935,13.9854404 17.5907962,14.644278 L24.6660362,12.2182748 C25.9250444,11.7728179 27.3299841,12.5225407 27.8036447,13.8748288 L28.7421528,16.6244044 L28.8943576,16.6244044 Z M28.9663984,22.2753059 L21.5747083,22.2738684 C21.4730784,22.2744888 21.3861286,22.3564218 21.3797542,22.4419434 L21.3791532,25.2259388 C21.3857873,25.3305841 21.4715233,25.412601 21.5755216,25.4141039 C21.5843992,25.4136099 21.5843992,25.4136099 21.6037553,25.4132495 L28.9663984,25.4132495 L28.9663984,22.2753059 Z M27.0056551,15.6634351 L24.3115462,16.6244044 L27.3335581,16.6244044 L27.0056551,15.6634351 Z M26.5448641,14.3132526 C26.312464,13.6487161 25.6618481,13.2859355 25.1069448,13.481687 L15.9288616,16.6252798 L20.381452,16.6252798 C20.4200325,16.6018343 20.4611414,16.5821678 20.5046322,16.5665989 L26.5741614,14.3989086 L26.5448641,14.3132526 Z M10.2853311,10.8652598 C12.4390665,10.8652598 14.1852001,9.1150319 14.1852001,6.95554305 C14.1852001,4.7960542 12.4390665,3.0458263 10.2853311,3.0458263 C8.13492295,3.0458263 6.39032839,4.79024032 6.38546132,6.94571585 C6.38546209,9.10880341 8.13074586,10.8611952 10.2853311,10.8652598 Z M15.0697903,13.9599432 C13.6710003,12.9146849 11.9895746,12.3178154 10.2128443,12.2609829 C7.61714012,12.2609829 5.13403309,13.6655898 3.58647101,16.0130625 C3.22761021,16.5687404 3.03360157,17.2168145 3.03360157,17.8934534 C3.03360157,18.4787392 3.17805859,19.0440631 3.44446809,19.5317176 C3.92580368,20.4324759 4.70077019,20.9374164 5.579801,20.9374164 L10.6848728,20.9374164 L10.6848743,18.0351123 C10.686996,17.4162549 11.0905494,16.8797699 11.6718832,16.6962494 C11.7106523,16.6705187 11.7552107,16.6472003 11.8112672,16.6235168 L16.2325153,15.087245 C15.8771869,14.6734596 15.4860021,14.2944104 15.0697903,13.9599432 Z M28.9664232,18.0399941 C28.965888,17.9983301 28.9315473,17.9639089 28.8943576,17.9632277 L12.0939298,17.9631833 C12.0522218,17.963901 12.0174222,17.9988389 12.0167275,18.0370162 L12.016703,28.8853022 C12.0172471,28.9278437 12.0510361,28.9617119 12.0896416,28.9620521 L28.9020265,28.9620521 C28.9380241,28.9563942 28.9660827,28.9249979 28.9663984,28.889139 L28.9663984,26.7494466 L21.576682,26.7494466 C20.7444307,26.7494466 20.0651335,26.0842747 20.044406,25.2440443 L20.0444985,22.4336172 C20.0651528,21.6022389 20.7447765,20.9374164 21.576682,20.9374164 L28.9664007,20.9374164 L28.9664232,18.0399941 Z M24.2320483,23.8443069 C24.2320483,24.3452855 23.8372915,24.7534398 23.3430561,24.7734512 L23.302296,24.7733456 C22.7916264,24.7720229 22.3779764,24.3563807 22.3779764,23.8425561 C22.3786365,23.3299423 22.7938253,22.9143938 23.3050123,22.9143938 C23.8168775,22.9143938 24.2320483,23.330538 24.2320483,23.8443069 Z" id="Mask" fill="#1F2229"></path>
    </g>
</svg>