<?xml version="1.0" encoding="UTF-8"?>
<svg width="11px" height="30px" viewBox="0 0 11 30" version="1.1" xmlns="http://www.w3.org/2000/svg" xmlns:xlink="http://www.w3.org/1999/xlink">
    <!-- Generator: Sketch 49.1 (51147) - http://www.bohemiancoding.com/sketch -->
    <title>field-counter</title>
    <desc>Created with Sketch.</desc>
    <defs></defs>
    <g id="field-counter" stroke="none" stroke-width="1" fill="none" fill-rule="evenodd">
        <g id="Icons/Arrows/Opener" transform="translate(0.000000, 20.000000)" fill="#1F2229">
            <path d="M8.80187534,6.61144 C8.62092948,6.85364047 8.33123837,7.01022908 7.99707067,7.01022908 L3.00292933,7.01022908 C2.44902676,7.01022908 2,6.56636426 2,6.01022908 C2,5.45794433 2.43788135,5.01022908 3.00292933,5.01022908 L7.01022908,5.01022908 L7.01022908,1.00292933 C7.01022908,0.449026756 7.4540939,0 8.01022908,0 C8.56251383,0 9.01022908,0.437881351 9.01022908,1.00292933 L9.01022908,5.99707067 C9.01022908,6.22854894 8.93271075,6.44171127 8.80187534,6.61144 Z" id="Mask" transform="translate(5.505115, 3.505115) rotate(45.000000) translate(-5.505115, -3.505115) "></path>
        </g>
        <g id="Icons/Arrows/Opener" transform="translate(5.500000, 6.500000) scale(1, -1) translate(-5.500000, -6.500000) translate(0.000000, 1.000000)" fill="#1F2229">
            <path d="M8.80187534,8.61144 C8.62092948,8.85364047 8.33123837,9.01022908 7.99707067,9.01022908 L3.00292933,9.01022908 C2.44902676,9.01022908 2,8.56636426 2,8.01022908 C2,7.45794433 2.43788135,7.01022908 3.00292933,7.01022908 L7.01022908,7.01022908 L7.01022908,3.00292933 C7.01022908,2.44902676 7.4540939,2 8.01022908,2 C8.56251383,2 9.01022908,2.43788135 9.01022908,3.00292933 L9.01022908,7.99707067 C9.01022908,8.22854894 8.93271075,8.44171127 8.80187534,8.61144 Z" id="Mask" transform="translate(5.505115, 5.505115) rotate(45.000000) translate(-5.505115, -5.505115) "></path>
        </g>
    </g>
</svg>